<svg width="327" height="268" viewBox="0 0 327 268" fill="none" xmlns="http://www.w3.org/2000/svg">
<path d="M134.583 267.961C116.503 267.961 98.9613 264.419 82.4473 257.431C66.4979 250.684 52.1743 241.024 39.8757 228.719C27.575 216.415 17.9177 202.087 11.1726 186.133C4.18561 169.613 0.644531 152.066 0.644531 133.98C0.644531 115.895 4.18561 98.3475 11.1706 81.8283C17.9156 65.874 27.575 51.5459 39.8736 39.2434C52.1722 26.9388 66.4958 17.2785 82.4473 10.5293C98.9613 3.54219 116.501 0 134.583 0C152.665 0 170.207 3.54219 186.719 10.5293C202.67 17.2785 216.994 26.9388 229.293 39.2413L226.368 42.1669C214.448 30.2431 200.567 20.8807 185.108 14.3384C169.109 7.5706 152.109 4.13807 134.583 4.13807C117.058 4.13807 100.06 7.5706 84.0585 14.3405C68.5994 20.8828 54.7184 30.2452 42.7983 42.169C30.8761 54.0949 21.5166 67.9802 14.9785 83.4421C8.21277 99.4461 4.78131 116.452 4.78131 133.98C4.78131 151.509 8.21277 168.513 14.9805 184.521C21.5187 199.983 30.8782 213.868 42.8004 225.794C54.7226 237.72 68.6035 247.082 84.0606 253.62C100.062 260.39 117.062 263.823 134.585 263.823C152.109 263.823 169.107 260.39 185.11 253.62C200.567 247.08 214.448 237.718 226.37 225.794C238.292 213.868 247.652 199.981 254.19 184.521C260.958 168.515 264.389 151.509 264.389 133.98V131.911H321.702V136.049H268.511C268.251 153.404 264.718 170.244 258 186.133C251.255 202.087 241.597 216.415 229.297 228.719C216.996 241.024 202.672 250.684 186.723 257.431C170.205 264.419 152.665 267.961 134.583 267.961Z" fill="#475569"/>
<path d="M307.993 150.906L305.172 147.875L320.112 133.985L305.172 120.092L307.993 117.061L326.187 133.985L307.993 150.906Z" fill="#475569"/>
</svg>
