<svg width="268" height="268" viewBox="0 0 268 268" fill="none" xmlns="http://www.w3.org/2000/svg">
<path d="M133.939 267.961C115.859 267.961 98.3168 264.419 81.8027 257.431C65.8534 250.684 51.5298 241.024 39.2311 228.719C26.9304 216.415 17.2731 202.087 10.5281 186.133C3.54108 169.613 0 152.066 0 133.98C0 115.895 3.54108 98.3475 10.526 81.8283C17.2711 65.874 26.9304 51.5459 39.2291 39.2434C51.5277 26.9388 65.8513 17.2785 81.8027 10.5293C98.3168 3.54219 115.857 0 133.939 0C152.02 0 169.562 3.54219 186.074 10.5293C202.026 17.2785 216.349 26.9388 228.648 39.2413L225.723 42.1669C213.803 30.2431 199.922 20.8807 184.463 14.3384C168.464 7.5706 151.464 4.13807 133.939 4.13807C116.413 4.13807 99.4151 7.5706 83.414 14.3405C67.9549 20.8828 54.0739 30.2452 42.1538 42.169C30.2316 54.0949 20.8721 67.9802 14.3339 83.4421C7.56824 99.4461 4.13678 116.452 4.13678 133.98C4.13678 151.509 7.56824 168.513 14.336 184.521C20.8742 199.983 30.2336 213.868 42.1558 225.794C54.078 237.72 67.959 247.082 83.4161 253.62C99.4171 260.39 116.417 263.823 133.941 263.823C151.464 263.823 168.462 260.39 184.465 253.62C199.922 247.08 213.803 237.718 225.725 225.794C237.648 213.868 247.007 199.981 253.545 184.521C260.313 168.515 263.744 151.509 263.744 133.98V131.911H267.867V136.049C267.606 153.404 264.073 170.244 257.355 186.133C250.61 202.087 240.953 216.415 228.652 228.719C216.351 241.024 202.028 250.684 186.079 257.431C169.56 264.419 152.02 267.961 133.939 267.961Z" fill="#475569"/>
</svg>
