<svg width="40" height="40" viewBox="0 0 40 40" fill="none" xmlns="http://www.w3.org/2000/svg">
<g filter="url(#filter0_i_485_920)">
<path d="M40 20C40 8.95431 31.0457 0 20 0C8.95431 0 0 8.95431 0 20C0 31.0457 8.95431 40 20 40C31.0457 40 40 31.0457 40 20Z" fill="white" fill-opacity="0.5"/>
<path d="M34.1407 5.85759C30.3843 2.13412 25.3058 0.0502458 20.0167 0.0619771C14.7275 0.0737084 9.65839 2.18009 5.9185 5.92019C2.17861 9.66029 0.072514 14.7296 0.0610819 20.0187C0.0496498 25.3078 2.13381 30.3862 5.8575 34.1424C9.61395 37.8659 14.6924 39.9497 19.9815 39.938C25.2707 39.9263 30.3398 37.8199 34.0797 34.0798C37.8196 30.3397 39.9257 25.2704 39.9371 19.9813C39.9485 14.6921 37.8644 9.61383 34.1407 5.85759ZM10.0255 34.5616C10.4401 32.2178 11.6669 30.0948 13.4906 28.5654C15.3143 27.0359 17.6185 26.1976 19.9987 26.1976C22.3789 26.1976 24.6831 27.0359 26.5068 28.5654C28.3305 30.0948 29.5573 32.2178 29.9719 34.5616C27.0366 36.5773 23.5595 37.6563 19.9987 37.6563C16.438 37.6563 12.9608 36.5773 10.0255 34.5616ZM13.6399 17.4896C13.6408 16.2323 14.0145 15.0035 14.7137 13.9585C15.4129 12.9136 16.4062 12.0993 17.568 11.6188C18.7298 11.1382 20.0081 11.0129 21.2411 11.2586C22.4742 11.5044 23.6067 12.1102 24.4955 12.9995C25.3843 13.8887 25.9895 15.0215 26.2347 16.2547C26.4798 17.4879 26.3538 18.7661 25.8727 19.9276C25.3915 21.0892 24.5768 22.0821 23.5315 22.7808C22.4862 23.4794 21.2572 23.8525 19.9999 23.8528C18.3145 23.8496 16.6991 23.1787 15.5073 21.987C14.3156 20.7952 13.6447 19.1798 13.6415 17.4944L13.6399 17.4912V17.4896ZM31.9999 32.936C31.4853 31.1171 30.5646 29.4387 29.3072 28.0273C28.0498 26.6159 26.4884 25.5083 24.7407 24.788C26.3144 23.7657 27.5155 22.2621 28.1648 20.5014C28.8141 18.7407 28.8769 16.8173 28.3437 15.018C27.8106 13.2187 26.7102 11.64 25.2065 10.5173C23.7028 9.3945 21.8765 8.78788 19.9999 8.78788C18.1233 8.78788 16.297 9.3945 14.7933 10.5173C13.2896 11.64 12.1892 13.2187 11.6561 15.018C11.1229 16.8173 11.1857 18.7407 11.835 20.5014C12.4843 22.2621 13.6854 23.7657 15.2591 24.788C13.5113 25.5081 11.9499 26.6157 10.6924 28.0271C9.43493 29.4385 8.5143 31.117 7.9999 32.936C5.39634 30.5237 3.58029 27.3826 2.78865 23.9227C1.99702 20.4628 2.26656 16.8445 3.56212 13.5401C4.85768 10.2356 7.11909 7.39838 10.0513 5.39845C12.9836 3.39851 16.4506 2.32877 19.9999 2.32877C23.5492 2.32877 27.0162 3.39851 29.9485 5.39845C32.8807 7.39838 35.1421 10.2356 36.4377 13.5401C37.7332 16.8445 38.0028 20.4628 37.2111 23.9227C36.4195 27.3826 34.6035 30.5237 31.9999 32.936Z" fill="#545454"/>
</g>
<defs>
<filter id="filter0_i_485_920" x="0" y="0" width="40" height="43" filterUnits="userSpaceOnUse" color-interpolation-filters="sRGB">
<feFlood flood-opacity="0" result="BackgroundImageFix"/>
<feBlend mode="normal" in="SourceGraphic" in2="BackgroundImageFix" result="shape"/>
<feColorMatrix in="SourceAlpha" type="matrix" values="0 0 0 0 0 0 0 0 0 0 0 0 0 0 0 0 0 0 127 0" result="hardAlpha"/>
<feOffset dy="3"/>
<feGaussianBlur stdDeviation="3"/>
<feComposite in2="hardAlpha" operator="arithmetic" k2="-1" k3="1"/>
<feColorMatrix type="matrix" values="0 0 0 0 0 0 0 0 0 0 0 0 0 0 0 0 0 0 0.1 0"/>
<feBlend mode="normal" in2="shape" result="effect1_innerShadow_485_920"/>
</filter>
</defs>
</svg>
