<svg width="217" height="32" viewBox="0 0 217 32" fill="none" xmlns="http://www.w3.org/2000/svg">
<g clip-path="url(#clip0_485_898)">
<path d="M24.0711 31.7889H7.35049C7.30902 31.7314 7.35049 31.684 7.37334 31.6383C7.61479 31.2027 7.85512 30.7669 8.09432 30.3308L9.34166 28.0689C9.69595 27.4263 10.0508 26.784 10.4062 26.142C10.901 25.245 11.3957 24.348 11.8905 23.451C12.2521 22.796 12.614 22.1411 12.9762 21.4861C13.383 20.7482 13.7897 20.0103 14.1965 19.2724C14.5883 18.559 14.9843 17.8482 15.3753 17.1348C15.3861 17.1136 15.4001 17.0942 15.4167 17.0772C15.2212 17.2617 15.0292 17.4496 14.8371 17.6366C14.3767 18.0851 13.9062 18.5268 13.4467 18.9736C12.9246 19.4814 12.3974 19.9781 11.8744 20.4816C11.5421 20.8015 11.209 21.1205 10.875 21.4387C10.3442 21.9464 9.8147 22.4542 9.28665 22.9619C8.95155 23.284 8.61588 23.6053 8.27964 23.9258C7.75668 24.4242 7.23709 24.926 6.71413 25.4253C6.19116 25.9245 5.68934 26.4052 5.17822 26.8943C4.65074 27.3987 4.12383 27.9036 3.59747 28.4091L2.0548 29.89C1.5386 30.385 1.01817 30.8758 0.50536 31.3742C0.386042 31.4902 0.258262 31.5985 0.142329 31.7195C0.105445 31.7484 0.0654206 31.7731 0.0230106 31.7931C0.0162408 31.788 0.000162492 31.8041 0.00100872 31.7821C0.00185495 31.7601 0.00100872 31.7237 0.00100872 31.6975V0.368498C0.0385261 0.354414 0.0790618 0.350331 0.118634 0.356651H31.2987C31.4485 0.356651 31.4333 0.340572 31.4333 0.490354C31.4333 10.8831 31.4333 21.2762 31.4333 31.6696C31.44 31.7093 31.4365 31.7501 31.4231 31.788H31.4011C31.3379 31.759 31.2805 31.7185 31.2319 31.6687C30.6623 31.1187 30.0878 30.5754 29.5191 30.0237C29.1958 29.7106 28.8683 29.4017 28.5434 29.0928C28.0114 28.5851 27.4791 28.0751 26.9466 27.5628C26.6225 27.2506 26.2958 26.9409 25.9709 26.632C25.4389 26.1243 24.9066 25.6143 24.374 25.102C24.0468 24.7872 23.7191 24.4733 23.3907 24.1602C22.8593 23.6524 22.3295 23.1447 21.8015 22.637C21.4743 22.3227 21.1465 22.0091 20.8182 21.6959C20.2879 21.1882 19.7584 20.6805 19.2298 20.1727C18.8975 19.8534 18.5644 19.5347 18.2304 19.2165C17.6979 18.7088 17.1653 18.1993 16.6327 17.6882C16.4246 17.4902 16.2291 17.2803 16.0294 17.1119C16.1462 17.3142 16.2706 17.5418 16.3958 17.7695C16.8409 18.5779 17.2866 19.3857 17.7328 20.1931L19.075 22.626C19.484 23.3672 19.893 24.108 20.302 24.8481C20.7889 25.7327 21.2763 26.617 21.7643 27.5011C22.2043 28.2993 22.6449 29.0976 23.0861 29.8959C23.4076 30.4775 23.7286 31.0597 24.0491 31.6425C24.0736 31.6882 24.1134 31.7356 24.0719 31.7931" fill="#637FE5"/>
<path d="M31.4181 31.7897C31.4181 21.3529 31.4181 10.9161 31.4181 0.479353C31.4181 0.371036 31.3774 0.368497 31.2945 0.368497C20.8645 0.369626 10.433 0.369908 0.000197366 0.369343C0.00612095 0.362574 -0.00995735 0.344803 0.0120445 0.344803C0.0340464 0.344803 0.0704342 0.344803 0.0966672 0.344803C10.5109 0.344803 20.9243 0.344803 31.3368 0.344803C31.4214 0.344803 31.4426 0.362574 31.4426 0.450581C31.4426 10.8642 31.4426 21.2776 31.4426 31.6907C31.4426 31.7229 31.468 31.7644 31.4223 31.7889" fill="#637FE5"/>
</g>
<g clip-path="url(#clip1_485_898)">
<path d="M55.2903 14.6832H48.0317L40.6523 29.8707H37.7993L51.6418 2.12934L65.2758 29.8707H62.5325L55.2903 14.6832ZM49.1674 12.2909H54.1985L51.6802 7.13331L49.1674 12.2909Z" fill="#545454"/>
<path d="M76.6001 14.6448V29.8707H74.1641V2.22811H86.2893C87.4162 2.21838 88.5412 2.32316 89.647 2.54085C90.564 2.71579 91.4392 3.06402 92.2257 3.56689C92.9337 4.04636 93.5017 4.70529 93.8716 5.4763C94.292 6.41939 94.4927 7.44561 94.4587 8.47759C94.4577 9.205 94.3656 9.92942 94.1844 10.6339C94.0083 11.3352 93.7032 11.9976 93.2846 12.5872C92.842 13.1911 92.2679 13.6864 91.6057 14.0357C90.7967 14.4348 89.9071 14.6431 89.0051 14.6448L96.9715 29.8707H94.1624L86.4539 14.6448H76.6001ZM76.6001 4.65876V12.2909H86.4155C87.2207 12.2993 88.0255 12.2516 88.824 12.1483C89.44 12.0761 90.0372 11.89 90.5852 11.5996C91.0624 11.3396 91.4461 10.9366 91.6825 10.4474C91.959 9.82878 92.0886 9.15459 92.0611 8.47759C92.0611 7.02358 91.6057 6.01949 90.7004 5.4763C89.7952 4.9331 88.3303 4.65876 86.3112 4.65876H76.6001Z" fill="#545454"/>
<path d="M109.442 2.2281H107.012V29.8707H109.442V2.2281Z" fill="#545454"/>
<path d="M142.032 2.22262V4.65876H132.217V29.8707H129.786V4.65876H119.889V2.22262H142.032Z" fill="#545454"/>
<path d="M160.867 14.6832H153.609L146.229 29.8707H143.376L157.219 2.12934L170.853 29.8597H168.11L160.867 14.6832ZM154.745 12.2909H159.776L157.257 7.13331L154.745 12.2909Z" fill="#545454"/>
<path d="M179.741 29.8707V2.22262H199.29V4.65876H182.177V12.2909H196.941V14.7271H182.177V27.4345H199.624V29.8707H179.741Z" fill="#545454"/>
<path d="M210.455 2.57377H208.649V7.18818H208.15V2.57377H206.351V2.12934H210.455V2.57377Z" fill="#545454"/>
<path d="M216.402 7.18818V3.03467L214.558 6.24994H214.268L212.419 3.03467V7.18818H211.919V2.12934H212.435L214.405 5.59152L216.396 2.12934H216.901V7.18818H216.402Z" fill="#545454"/>
</g>
<defs>
<clipPath id="clip0_485_898">
<rect width="31.3104" height="31.3104" fill="white" transform="translate(0 0.344803)"/>
</clipPath>
<clipPath id="clip1_485_898">
<rect width="179.102" height="27.7413" fill="white" transform="translate(37.7993 2.12934)"/>
</clipPath>
</defs>
</svg>
