<svg width="317" height="163" viewBox="0 0 317 163" fill="none" xmlns="http://www.w3.org/2000/svg">
<g clip-path="url(#clip0_3110_10450)">
<path d="M181.959 90.0966H134.05C133.931 89.9317 134.05 89.7959 134.116 89.665C134.808 88.4171 135.496 87.1684 136.182 85.9189L139.755 79.4378C140.771 77.5967 141.787 75.7564 142.806 73.9169C144.223 71.3468 145.641 68.7767 147.059 66.2066C148.095 64.3299 149.132 62.4532 150.169 60.5765C151.335 58.4622 152.5 56.348 153.666 54.2337C154.788 52.1897 155.923 50.153 157.043 48.109C157.074 48.0483 157.114 47.9927 157.162 47.9441C156.602 48.4727 156.052 49.011 155.501 49.5468C154.182 50.8319 152.834 52.0976 151.517 53.3778C150.021 54.8326 148.511 56.2558 147.012 57.6985C146.06 58.615 145.106 59.5291 144.149 60.4408C142.628 61.8955 141.111 63.3503 139.598 64.8051C138.638 65.7281 137.676 66.6486 136.713 67.5668C135.214 68.9949 133.725 70.4327 132.227 71.8632C130.729 73.2938 129.291 74.671 127.826 76.0724C126.315 77.5175 124.805 78.9642 123.297 80.4125L118.877 84.6557C117.398 86.0741 115.907 87.4804 114.437 88.9085C114.095 89.2407 113.729 89.551 113.397 89.8977C113.292 89.9807 113.177 90.0514 113.055 90.1087C113.036 90.0941 112.99 90.1402 112.992 90.0772C112.995 90.0141 112.992 89.9099 112.992 89.8347V0.0695718C113.1 0.0292173 113.216 0.0175192 113.329 0.0356268H202.668C203.097 0.0356268 203.053 -0.0104414 203.053 0.41872C203.053 30.1966 203.053 59.9752 203.053 89.7547C203.073 89.8685 203.063 89.9853 203.024 90.0941H202.961C202.78 90.0108 202.616 89.8949 202.476 89.7523C200.844 88.1762 199.198 86.6196 197.569 85.0388C196.642 84.1416 195.704 83.2566 194.773 82.3717C193.249 80.9169 191.724 79.4556 190.198 77.9879C189.269 77.0932 188.333 76.2058 187.402 75.3208C185.878 73.866 184.353 72.4047 182.827 70.937C181.889 70.0351 180.95 69.1355 180.009 68.2384C178.487 66.7836 176.969 65.3288 175.456 63.874C174.518 62.9737 173.579 62.075 172.639 61.1778C171.119 59.7231 169.602 58.2683 168.087 56.8135C167.135 55.8986 166.181 54.9853 165.224 54.0736C163.698 52.6189 162.172 51.1592 160.646 49.6947C160.05 49.1274 159.49 48.5261 158.917 48.0436C159.252 48.623 159.608 49.2753 159.967 49.9275C161.243 52.2438 162.52 54.5586 163.798 56.8717L167.644 63.8425C168.816 65.9665 169.988 68.0889 171.159 70.2096C172.554 72.7442 173.951 75.278 175.349 77.8109C176.61 80.0981 177.873 82.3854 179.137 84.6726C180.058 86.3392 180.978 88.0073 181.896 89.6771C181.966 89.808 182.08 89.9438 181.961 90.1087" fill="white"/>
<path d="M203.009 90.0973C203.009 60.1934 203.009 30.2894 203.009 0.385518C203.009 0.0751639 202.892 0.06789 202.655 0.06789C172.77 0.0711229 142.881 0.0719311 112.989 0.0703146C113.006 0.0509175 112.96 0 113.023 0C113.086 0 113.19 0 113.265 0C143.105 0 172.941 0 202.776 0C203.018 0 203.079 0.0509175 203.079 0.30308C203.079 30.1407 203.079 59.9776 203.079 89.8136C203.079 89.9058 203.152 90.0246 203.021 90.0949" fill="white"/>
</g>
<g clip-path="url(#clip1_3110_10450)">
<path d="M30.9394 135.866H18.0998L5.04658 162.731H0L24.4856 113.66L48.6025 162.731H43.75L30.9394 135.866ZM20.1087 131.635H29.0082L24.5536 122.512L20.1087 131.635Z" fill="white"/>
<path d="M68.6332 135.797V162.729H64.3242V113.833H85.7722C87.7656 113.816 89.7557 114.001 91.7116 114.386C93.3336 114.696 94.8817 115.312 96.273 116.201C97.5254 117.049 98.5302 118.215 99.1845 119.579C99.928 121.247 100.283 123.062 100.223 124.888C100.221 126.174 100.058 127.456 99.7376 128.702C99.4263 129.943 98.8865 131.114 98.146 132.157C97.3632 133.225 96.3476 134.101 95.1763 134.719C93.7454 135.425 92.1717 135.794 90.5762 135.797L104.668 162.729H99.6988L86.0633 135.797H68.6332ZM68.6332 118.133V131.633H85.9954C87.4197 131.648 88.8433 131.563 90.2559 131.381C91.3455 131.253 92.4019 130.924 93.3712 130.41C94.2152 129.95 94.894 129.237 95.3122 128.372C95.8013 127.278 96.0305 126.085 95.9818 124.888C95.9818 122.316 95.1763 120.54 93.575 119.579C91.9737 118.618 89.3824 118.133 85.811 118.133H68.6332Z" fill="white"/>
<path d="M126.729 113.836H122.43V162.732H126.729V113.836Z" fill="white"/>
<path d="M184.376 113.824V118.133H167.014V162.73H162.715V118.133H145.207V113.824H184.376Z" fill="white"/>
<path d="M217.693 135.866H204.854L191.801 162.731H186.754L211.24 113.66L235.356 162.712H230.504L217.693 135.866ZM206.863 131.635H215.762L211.307 122.512L206.863 131.635Z" fill="white"/>
<path d="M251.078 162.73V113.824H285.657V118.133H255.387V131.634H281.503V135.943H255.387V158.421H286.249V162.73H251.078Z" fill="white"/>
<path d="M305.404 114.446H302.211V122.609H301.328V114.446H298.145V113.66H305.404V114.446Z" fill="white"/>
<path d="M315.925 122.609V115.262L312.664 120.949H312.15L308.879 115.262V122.609H307.996V113.66H308.908L312.392 119.784L315.915 113.66H316.808V122.609H315.925Z" fill="white"/>
</g>
<defs>
<clipPath id="clip0_3110_10450">
<rect width="89.7118" height="89.7118" fill="white" transform="translate(112.988)"/>
</clipPath>
<clipPath id="clip1_3110_10450">
<rect width="316.809" height="49.0709" fill="white" transform="translate(0 113.66)"/>
</clipPath>
</defs>
</svg>
