<svg width="278" height="40" viewBox="0 0 278 40" fill="none" xmlns="http://www.w3.org/2000/svg">
<g clip-path="url(#clip0_750_1119)">
<path d="M30.7518 40.1711H9.3907C9.33772 40.0976 9.3907 40.037 9.41988 39.9787C9.72835 39.4223 10.0354 38.8655 10.341 38.3084L11.9345 35.4187C12.3871 34.5978 12.8404 33.7772 13.2945 32.957C13.9266 31.8111 14.5586 30.6651 15.1907 29.5192C15.6527 28.6824 16.115 27.8457 16.5777 27.0089C17.0974 26.0662 17.617 25.1235 18.1366 24.1808C18.6372 23.2695 19.1431 22.3614 19.6426 21.45C19.6564 21.4229 19.6743 21.3982 19.6956 21.3765C19.4458 21.6122 19.2004 21.8522 18.955 22.0911C18.3669 22.6641 17.7658 23.2284 17.1788 23.7992C16.5118 24.4478 15.8383 25.0824 15.1702 25.7257C14.7457 26.1343 14.3201 26.5419 13.8934 26.9484C13.2152 27.597 12.5388 28.2457 11.8642 28.8943C11.4361 29.3059 11.0073 29.7163 10.5777 30.1257C9.90961 30.7624 9.24583 31.4035 8.57772 32.0414C7.90961 32.6792 7.26853 33.2932 6.61556 33.9181C5.94169 34.5624 5.26853 35.2075 4.5961 35.8532L2.62529 37.7451C1.96583 38.3776 1.30097 39.0046 0.64583 39.6414C0.493398 39.7895 0.330155 39.9278 0.182046 40.0824C0.134927 40.1194 0.0837941 40.151 0.029614 40.1765C0.0209654 40.17 0.000424843 40.1905 0.00150592 40.1624C0.00258701 40.1343 0.00150592 40.0878 0.00150592 40.0543V0.0305471C0.0494355 0.0125541 0.101221 0.00733827 0.151776 0.0154119H39.9853C40.1766 0.0154119 40.1572 -0.0051286 40.1572 0.186223C40.1572 13.4633 40.1572 26.7408 40.1572 40.0187C40.1658 40.0694 40.1614 40.1215 40.1442 40.17H40.1161C40.0353 40.1328 39.962 40.0812 39.8999 40.0176C39.1723 39.3149 38.4383 38.6208 37.7118 37.916C37.2988 37.516 36.8804 37.1214 36.4653 36.7268C35.7857 36.0781 35.1057 35.4266 34.4253 34.7722C34.0112 34.3732 33.5939 33.9776 33.1788 33.583C32.4992 32.9343 31.8192 32.2828 31.1388 31.6284C30.7208 31.2262 30.302 30.8251 29.8826 30.4251C29.2037 29.7765 28.5269 29.1278 27.8523 28.4792C27.4343 28.0778 27.0156 27.677 26.5961 27.277C25.9186 26.6284 25.2422 25.9797 24.5669 25.3311C24.1424 24.9232 23.7168 24.5159 23.2902 24.1095C22.6098 23.4608 21.9294 22.81 21.2491 22.157C20.9831 21.9041 20.7334 21.636 20.4783 21.4208C20.6275 21.6792 20.7864 21.97 20.9464 22.2608C21.515 23.2936 22.0844 24.3257 22.6545 25.357L24.3691 28.4651C24.8916 29.4122 25.4141 30.3585 25.9366 31.3041C26.5586 32.4341 27.1813 33.5639 27.8048 34.6932C28.3669 35.7131 28.9298 36.7329 29.4934 37.7527C29.9042 38.4958 30.3143 39.2396 30.7237 39.9841C30.755 40.0424 30.8058 40.103 30.7529 40.1765" fill="#475569"/>
<path d="M40.1375 40.1719C40.1375 26.8386 40.1375 13.5052 40.1375 0.171892C40.1375 0.0335135 40.0857 0.0302703 39.9797 0.0302703C26.655 0.0317117 13.3285 0.0320721 0.000252141 0.0313514C0.00781971 0.0227027 -0.0127208 0 0.0153873 0C0.0434954 0 0.0899819 0 0.123495 0C13.428 0 26.7314 0 40.0338 0C40.1419 0 40.1689 0.0227027 40.1689 0.135135C40.1689 13.4389 40.1689 26.7423 40.1689 40.0454C40.1689 40.0865 40.2013 40.1395 40.143 40.1708" fill="#475569"/>
</g>
<g clip-path="url(#clip1_750_1119)">
<path d="M70.6354 18.3172H61.3622L51.9348 37.7197H48.29L65.9742 2.2793L83.3921 37.7197H79.8875L70.6354 18.3172ZM62.8131 15.261H69.2405L66.0233 8.67203L62.8131 15.261Z" fill="#475569"/>
<path d="M97.8592 18.2678V37.7193H94.7471V2.40509H110.237C111.677 2.39266 113.114 2.52653 114.527 2.80463C115.698 3.02812 116.817 3.473 117.821 4.11543C118.726 4.72797 119.452 5.56977 119.924 6.55476C120.461 7.75958 120.718 9.07062 120.674 10.389C120.673 11.3183 120.555 12.2438 120.324 13.1438C120.099 14.0397 119.709 14.886 119.174 15.6392C118.609 16.4106 117.875 17.0434 117.029 17.4897C115.996 17.9995 114.859 18.2656 113.707 18.2678L123.884 37.7193H120.296L110.448 18.2678H97.8592ZM97.8592 5.51033V15.2607H110.399C111.427 15.2713 112.455 15.2104 113.476 15.0784C114.263 14.9862 115.026 14.7485 115.726 14.3774C116.335 14.0453 116.825 13.5305 117.127 12.9054C117.481 12.1152 117.646 11.2539 117.611 10.389C117.611 8.53146 117.029 7.24871 115.873 6.55476C114.716 5.86081 112.845 5.51033 110.265 5.51033H97.8592Z" fill="#475569"/>
<path d="M139.816 2.40625H136.711V37.7205H139.816V2.40625Z" fill="#475569"/>
<path d="M181.451 2.39844V5.51069H168.911V37.7197H165.806V5.51069H153.162V2.39844H181.451Z" fill="#475569"/>
<path d="M205.513 18.3172H196.24L186.813 37.7197H183.168L200.852 2.2793L218.27 37.7057H214.765L205.513 18.3172ZM197.691 15.261H204.118L200.901 8.67203L197.691 15.261Z" fill="#475569"/>
<path d="M229.625 37.7197V2.39844H254.599V5.51069H232.737V15.261H251.599V18.3733H232.737V34.6074H255.026V37.7197H229.625Z" fill="#475569"/>
<path d="M268.863 2.84707H266.556V8.74213H265.919V2.84707H263.62V2.2793H268.863V2.84707Z" fill="#475569"/>
<path d="M276.46 8.74213V3.43588L274.105 7.54349H273.734L271.372 3.43588V8.74213H270.734V2.2793H271.393L273.909 6.70234L276.453 2.2793H277.098V8.74213H276.46Z" fill="#475569"/>
</g>
<defs>
<clipPath id="clip0_750_1119">
<rect width="40" height="40" fill="white"/>
</clipPath>
<clipPath id="clip1_750_1119">
<rect width="228.808" height="35.4404" fill="white" transform="translate(48.29 2.2793)"/>
</clipPath>
</defs>
</svg>
