<svg width="37" height="37" viewBox="0 0 37 37" fill="none" xmlns="http://www.w3.org/2000/svg">
<path d="M27.054 12.7219C27.026 12.6811 27.0074 12.6598 26.9962 12.6488C26.9843 12.6581 26.9646 12.6759 26.9343 12.7097C26.6682 13.0082 26.4386 13.2375 26.2116 13.4315C26.082 13.5423 26.0671 13.58 26.1867 13.764C28.2484 16.9299 28.9157 20.3684 28.1707 23.9842C27.4318 27.5709 25.3597 30.6419 22.3363 32.6322C19.3167 34.6204 15.6781 35.3139 12.0914 34.5863C5.37747 33.2247 0.656764 26.8014 1.34376 19.9634C1.68283 16.5901 3.06461 13.7302 5.45082 11.4628C8.71639 8.3601 12.6419 7.13771 17.1218 7.82927C18.9673 8.11432 20.7474 8.8278 22.4129 9.95018C22.5226 10.0237 22.5308 10.0142 22.5974 9.94086C22.7567 9.76579 22.9268 9.59833 23.0914 9.43628C23.1635 9.36491 23.236 9.29398 23.3074 9.22217C23.3582 9.17119 23.4099 9.11891 23.437 9.08594C23.4052 9.05926 23.3463 9.01913 23.289 8.97965C20.7147 7.21775 17.9252 6.35329 14.7613 6.33594C13.6563 6.34396 12.5326 6.47651 11.5126 6.71925C3.70899 8.57703 -1.23048 16.222 0.267284 24.1241C1.00665 28.0245 3.25438 31.4053 6.59654 33.6436C9.95494 35.8929 13.9571 36.6821 17.8668 35.8675C21.8869 35.0291 25.297 32.6524 27.469 29.1748C29.6418 25.6959 30.2858 21.5799 29.2818 17.585C28.8557 15.8875 28.1062 14.2512 27.054 12.7219Z" fill="#212121"/>
<path d="M19.1874 13.3617C19.4733 13.0502 19.7199 12.8031 19.9631 12.5845C19.9952 12.5556 20.0131 12.5357 20.0226 12.5231C20.0088 12.5116 19.9832 12.4938 19.9359 12.4665C18.3325 11.5499 16.6461 11.0898 14.9023 11.0898C14.2579 11.0898 13.6055 11.1528 12.9467 11.2786C9.8544 11.8699 7.26242 13.829 5.83519 16.6536C4.40256 19.4891 4.36144 22.7584 5.72289 25.6234C7.16072 28.6496 9.99548 30.7676 13.3054 31.2894C16.6461 31.8169 19.888 30.7095 22.1994 28.2537C24.4456 25.8672 25.3453 22.9775 24.8736 19.6644C24.6996 18.4416 24.2736 17.2678 23.5727 16.0805C23.5137 16.1408 23.4552 16.2005 23.3975 16.2597C23.1573 16.505 22.9305 16.7367 22.6932 16.9638C22.635 17.0196 22.6276 17.0267 22.6804 17.1261C23.5593 18.7871 23.8793 20.5746 23.6318 22.4382C23.312 24.8479 22.054 26.9662 20.0895 28.4029C18.1111 29.85 15.6921 30.4069 13.279 29.972C10.8361 29.5314 8.67753 28.0539 7.35676 25.9182C6.03664 23.7836 5.67637 21.1894 6.36856 18.8014C7.11355 16.2313 8.94367 14.1561 11.3905 13.1079C13.8308 12.0626 16.5827 12.1693 18.9412 13.401C19.0704 13.4685 19.103 13.4537 19.1874 13.3617Z" fill="#212121"/>
<path d="M35.25 4.36612C35.2476 4.36612 35.2455 4.36612 35.2431 4.36612C34.8075 4.36851 34.3715 4.36807 33.9355 4.36742C33.3232 4.36677 32.7117 4.36612 32.1 4.37219C32.0013 4.3735 31.8784 4.3633 31.7958 4.28022C31.7131 4.19713 31.7036 4.07587 31.7045 3.97955C31.7123 3.16325 31.7112 2.33285 31.7099 1.52978L31.7092 0.829318C31.709 0.431037 31.561 0.172241 31.2693 0.0600892C31.1661 0.0199574 31.0674 0 30.9722 0C30.7708 0 30.5856 0.0900253 30.4034 0.27333C29.0709 1.61482 27.7357 2.95305 26.3982 4.28954C26.089 4.59823 25.9391 4.96614 25.9393 5.4141L25.9386 6.45471C25.9376 7.26667 25.9365 8.07885 25.9425 8.89082C25.9445 9.13269 25.8709 9.31014 25.6972 9.48433C22.5757 12.6075 19.4573 15.7336 16.3391 18.8596L14.483 20.7193C14.4397 20.7611 14.3964 20.8028 14.3579 20.8486C14.1452 21.1013 14.1526 21.4727 14.3748 21.7126C14.6026 21.9579 14.9871 21.9861 15.2496 21.7781C15.331 21.7132 15.4052 21.6378 15.4839 21.5575L15.5517 21.4887L16.6571 20.38C19.9738 17.0536 23.2902 13.727 26.6034 10.3974C26.7799 10.2197 26.9612 10.1427 27.1971 10.1486C27.6019 10.1583 28.015 10.1564 28.4142 10.1546C28.5317 10.1542 28.6494 10.1536 28.7669 10.1533V10.152L29.4251 10.1525C29.8376 10.1529 30.2498 10.1533 30.6624 10.1514C31.115 10.1492 31.4829 9.99975 31.7863 9.69388C32.6442 8.82942 33.5045 7.96713 34.365 7.10528L35.7899 5.67659C36.0656 5.40022 36.14 5.11062 36.0115 4.81646C35.8769 4.50951 35.6347 4.36612 35.25 4.36612ZM33.5556 6.08029C33.5465 6.08767 33.5374 6.09461 33.5298 6.10198C33.1522 6.48226 32.7742 6.86167 32.3958 7.24107C31.9254 7.71311 31.4548 8.18515 30.9857 8.6587C30.8441 8.80166 30.7054 8.86305 30.512 8.86348C29.3873 8.85524 28.4672 8.85546 27.616 8.86435C27.6119 8.86435 27.608 8.86435 27.6037 8.86435C27.5115 8.86435 27.3988 8.85199 27.3181 8.77151C27.2341 8.68755 27.2237 8.56781 27.2246 8.46173C27.2322 7.604 27.2298 6.73194 27.2278 5.88853L27.227 5.55749C27.2267 5.42799 27.2447 5.27744 27.3789 5.14359C27.9854 4.53945 28.5899 3.93356 29.1947 3.32747L30.0624 2.45802C30.0903 2.43003 30.1214 2.41225 30.1461 2.39793L30.2796 2.31289L30.354 2.4181C30.433 2.53004 30.4248 2.64306 30.4194 2.7179C30.4181 2.7346 30.4168 2.75109 30.4168 2.76714L30.4192 3.35393C30.4226 4.05244 30.4261 4.77481 30.411 5.48591C30.4084 5.60934 30.4278 5.63906 30.4341 5.64513C30.4434 5.65446 30.4795 5.67073 30.6061 5.66769C31.2559 5.65641 31.9159 5.65815 32.5553 5.6601C32.8002 5.66075 33.0449 5.6614 33.2899 5.6614H33.6657L33.6863 5.77138C33.7194 5.94861 33.6086 6.03777 33.5556 6.08029Z" fill="#212121"/>
<path d="M12.2491 18.0942C13.1066 17.3796 14.1902 17.0442 15.2271 17.1753L15.2585 17.1794C15.3483 17.1922 15.3684 17.1898 15.3937 17.1642C15.6837 16.87 15.9758 16.5778 16.2768 16.277L16.4486 16.1052C15.9531 15.9446 15.4125 15.8594 14.8578 15.8594C13.2042 15.8594 11.4212 16.6141 10.3084 18.3703C8.90175 20.5908 9.31286 23.5018 11.286 25.2921C13.1929 27.0217 16.1707 27.1054 18.2138 25.4878C20.193 23.9204 20.597 21.3728 19.9922 19.6682C19.955 19.707 19.918 19.7459 19.8812 19.7845C19.6908 19.9841 19.4941 20.1906 19.2861 20.3778C18.9862 20.6474 18.8529 20.8427 18.9577 21.1609C18.9802 21.229 18.9743 21.2976 18.9694 21.3529C18.9681 21.3681 18.9668 21.3828 18.9661 21.3976C18.8789 23.6217 17.0767 25.3548 14.8584 25.355C14.8489 25.355 14.84 25.3548 14.8305 25.3548C13.6962 25.3472 12.6509 24.8929 11.8869 24.0753C11.1079 23.2417 10.7169 22.1349 10.786 20.9587C10.8509 19.8433 11.3706 18.8259 12.2491 18.0942Z" fill="#212121"/>
</svg>
