<svg width="72" height="72" viewBox="0 0 72 72" fill="none" xmlns="http://www.w3.org/2000/svg">
<rect width="72" height="72" rx="10" fill="#E13333" fill-opacity="0.05"/>
<path d="M45.8874 26.3632C43.2839 23.7731 39.8194 22.3448 36.134 22.3448C32.4486 22.3448 28.9841 23.7731 26.3806 26.3652C23.7771 28.9574 22.3447 32.4048 22.3447 36.0742C22.3447 43.6429 28.5323 49.8015 36.136 49.8015C39.8214 49.8015 43.2839 48.3733 45.8894 45.7812C48.4929 43.189 49.9273 39.7415 49.9273 36.0722C49.9253 32.4048 48.4908 28.9554 45.8874 26.3632ZM48.1484 36.0903C48.1464 39.2756 46.8923 42.2752 44.615 44.5345C42.3418 46.7918 39.327 48.0344 36.1178 48.0344C29.4967 48.0284 24.1155 42.6544 24.1216 36.056C24.1236 32.8708 25.3797 29.8712 27.655 27.6119C29.9282 25.3546 32.9409 24.112 36.1522 24.112C42.7713 24.118 48.1525 29.4899 48.1484 36.0903Z" fill="#E13333"/>
<path d="M39.1226 34.3636C39.3232 34.1619 39.5237 33.9582 39.7264 33.7585L40.8589 32.6288C41.4667 32.0216 42.0766 31.4124 42.6864 30.8072C43.2152 30.2827 43.278 29.8087 42.8768 29.3972C42.6864 29.2015 42.4635 29.1047 42.2346 29.1047C41.8638 29.1107 41.5782 29.381 41.3938 29.5828C41.3715 29.607 41.3492 29.6292 41.3208 29.6554L41.2702 29.7038C40.8326 30.1395 40.3949 30.5732 39.9533 31.011C38.7518 32.2011 37.5119 33.4317 36.3064 34.6622C36.2132 34.759 36.1585 34.7953 36.1342 34.8094C36.1099 34.7953 36.0552 34.757 35.9559 34.6561C34.7403 33.4175 33.4882 32.1749 32.2685 30.9646C31.8288 30.5268 31.3872 30.0891 30.9475 29.6514L30.9131 29.6171C30.8968 29.6009 30.8786 29.5828 30.8624 29.5666C30.6416 29.3367 30.3701 29.1027 30.0115 29.1027H30.0094C29.7785 29.1047 29.5657 29.2055 29.3793 29.4052C28.9924 29.8188 29.0613 30.2928 29.584 30.8133C30.1229 31.3499 30.6618 31.8865 31.1987 32.423L31.223 32.4472C32.3576 33.5809 33.5307 34.7509 34.6997 35.8907C34.8071 35.9956 34.8497 36.0521 34.8638 36.0743C34.8497 36.0985 34.8132 36.1509 34.72 36.2397C33.478 37.444 32.2421 38.6805 31.0468 39.8768L30.9779 39.9453C30.5666 40.3589 30.1533 40.7704 29.74 41.1819L29.4665 41.4563C29.2456 41.6782 29.1322 41.9263 29.1362 42.1764C29.1382 42.3338 29.1909 42.5657 29.4239 42.7856C29.6002 42.951 29.8048 43.0378 30.0175 43.0378C30.2728 43.0378 30.5281 42.9147 30.751 42.6807C30.8118 42.6162 30.8766 42.5536 30.9495 42.483L35.9883 37.4702C36.0369 37.4238 36.0835 37.3754 36.1321 37.331C36.1504 37.3512 36.1686 37.3713 36.1869 37.3895C36.6407 37.8373 37.0905 38.2872 37.5423 38.735L39.3333 40.5162C40.0627 41.2404 40.7921 41.9666 41.5214 42.6928C41.9428 43.1124 42.4635 43.1447 42.8485 42.7735C43.0754 42.5557 43.124 42.3257 43.1261 42.1704C43.1281 41.9222 43.0106 41.6721 42.7877 41.4482L42.6418 41.3009C42.5851 41.2424 42.5284 41.1839 42.4696 41.1274L41.2256 39.8868C40.012 38.6725 38.7518 37.4137 37.4997 36.1872C37.445 36.1328 37.4106 36.0944 37.3903 36.0702C37.4065 36.05 37.4329 36.0218 37.4734 35.9835C38.0387 35.459 38.5877 34.9043 39.1185 34.3697L39.0679 34.3132L39.1226 34.3636Z" fill="#E13333"/>
</svg>
