<svg width="53" height="54" viewBox="0 0 53 54" fill="none" xmlns="http://www.w3.org/2000/svg">
<path d="M26.44 53.7166C18.3725 53.7166 10.305 53.7166 2.23965 53.7166C0.777294 53.7166 0.0151641 52.9567 0.0151641 51.4905C0.0172989 49.1489 -0.0339386 46.8072 0.0407801 44.4677C0.209431 39.1316 3.52481 33.4208 10.2239 31.443C12.5829 30.7453 14.9653 30.1202 17.4118 29.9019C19.8946 29.6815 21.8757 30.7324 23.3381 32.7551C23.543 33.0377 23.7181 33.3416 23.938 33.6135C25.3832 35.3986 27.4775 35.405 28.9249 33.622C29.2323 33.2432 29.4693 32.8087 29.7767 32.4319C31.3671 30.4798 33.4123 29.6023 35.9143 29.949C38.7472 30.3428 41.5523 30.9144 44.1995 32.0231C49.0349 34.048 51.7696 37.7702 52.6812 42.8923C52.9395 44.3457 52.8434 45.8183 52.8498 47.2845C52.8584 48.7165 52.8584 50.1506 52.8498 51.5826C52.8434 52.946 52.0599 53.7166 50.6936 53.7166C42.6091 53.7188 34.5245 53.7166 26.44 53.7166ZM27.4711 40.7026C29.0935 41.3191 30.0798 42.43 30.1481 44.1145C30.2357 46.2957 30.1759 48.4811 30.1674 50.6665C30.1652 51.1909 29.9154 51.4263 29.386 51.437C28.7584 51.4499 28.1307 51.4392 27.5031 51.4392C27.0228 51.4392 26.7559 51.2059 26.7132 50.7221C26.6492 50.0093 26.5681 49.2966 26.5211 48.5817C26.4976 48.2285 26.3823 48.1022 26.0045 48.0508C23.3039 47.6805 21.8736 44.838 23.1844 42.4899C23.6711 41.6166 24.4268 41.0601 25.3597 40.7219C25.3192 40.6449 25.3042 40.5935 25.2701 40.5528C22.7531 37.5177 20.2319 34.4868 17.7171 31.4495C17.5612 31.2611 17.4033 31.2226 17.1727 31.2568C14.7604 31.6357 12.3736 32.1216 10.0616 32.9264C5.43761 34.5339 2.60043 37.7788 1.62909 42.552C1.00786 45.6 1.43909 48.7208 1.37078 51.8073C1.36437 52.1348 1.61415 52.3403 1.95572 52.3681C2.16279 52.3852 2.37414 52.3745 2.58335 52.3745C18.5112 52.3745 34.4391 52.3745 50.3649 52.3745C50.5207 52.3745 50.6787 52.3767 50.8345 52.3703C51.2829 52.3553 51.5155 52.107 51.5113 51.6746C51.4814 49.0547 51.712 46.4198 51.4195 43.817C50.8367 38.6564 48.1489 35.0005 43.2687 33.1019C40.8393 32.1558 38.2882 31.6678 35.72 31.2568C35.4019 31.2055 35.2418 31.3317 35.0646 31.5479C33.978 32.8686 32.8807 34.1807 31.7898 35.4949C30.3659 37.2137 28.942 38.9304 27.4711 40.7026ZM33.2266 31.5222C32.204 31.8776 31.4077 32.494 30.7779 33.3309C30.4641 33.7483 30.193 34.2021 29.8578 34.6002C28.4382 36.2933 26.3097 36.7706 24.5015 35.8117C23.6007 35.3344 22.9239 34.6152 22.3859 33.7569C21.8266 32.86 21.0794 32.1729 20.1273 31.717C19.9715 31.6421 19.8199 31.5137 19.6 31.5715C19.6448 31.6442 19.6662 31.6935 19.6982 31.732C21.8608 34.3369 24.0298 36.9354 26.1795 39.5489C26.4272 39.8507 26.5211 39.7437 26.7068 39.519C28.7861 37.0039 30.874 34.4975 32.9554 31.9846C33.06 31.8604 33.2201 31.762 33.2266 31.5222ZM28.8331 46.9549C28.8331 46.1159 28.8395 45.2789 28.831 44.4399C28.8182 42.9694 27.708 41.8542 26.3354 41.9227C25.0011 41.9891 23.955 43.1535 24.0404 44.4784C24.1301 45.8847 25.3234 46.8586 26.7815 46.7152C27.4818 46.6467 27.6888 46.8115 27.7614 47.5264C27.8361 48.2563 27.9258 48.9841 27.9578 49.7161C27.9749 50.1249 28.214 50.0778 28.4787 50.095C28.8096 50.1185 28.8374 49.9387 28.8352 49.6754C28.8267 48.77 28.8331 47.8625 28.8331 46.9549Z" fill="#637FE5"/>
<path d="M26.4036 0.751107C29.0166 0.695455 31.4781 1.40609 33.8862 2.28795C35.2268 2.78026 36.0509 3.83764 36.3668 5.25034C36.9454 7.83815 37.5175 10.4281 38.0768 13.0202C38.1451 13.3348 38.2711 13.5275 38.5657 13.6859C39.2403 14.0497 39.5733 14.6555 39.4922 15.4218C39.3385 16.8623 39.1634 18.3007 38.9628 19.7348C38.8539 20.5161 38.1985 21.109 37.3488 21.2245C37.082 21.2609 36.9646 21.3487 36.8813 21.6013C36.275 23.4035 35.4104 25.0688 34.1957 26.535C32.0523 29.125 29.4116 30.7303 25.9382 30.5591C23.3764 30.4328 21.2801 29.2705 19.506 27.4768C17.8814 25.8351 16.7777 23.8701 16.0241 21.6997C15.9238 21.4065 15.8128 21.2588 15.4669 21.2138C14.5917 21.0983 13.9939 20.454 13.8808 19.5785C13.71 18.245 13.5499 16.9115 13.3876 15.5759C13.2809 14.6983 13.6096 14.0326 14.3953 13.6281C14.628 13.5082 14.7112 13.3562 14.7646 13.1165C15.3389 10.4923 15.9195 7.86812 16.5045 5.24606C16.8161 3.85263 17.6231 2.7931 18.9382 2.30508C21.3398 1.41679 23.8013 0.704017 26.4036 0.751107ZM37.7822 17.5258C38.0619 17.3118 37.9402 16.98 37.9829 16.7125C38.064 16.1881 38.1836 15.6529 38.1366 15.1157C38.0875 15.1114 38.0384 15.1071 37.9871 15.1028C37.921 15.9141 37.8548 16.7253 37.7929 17.5387C37.6819 18.2515 37.5709 18.9642 37.4599 19.6749C37.7331 18.9835 37.8868 18.2729 37.7822 17.5258ZM16.37 16.736C16.3379 17.1341 16.4276 17.5943 16.5002 18.0545C17.0147 21.3037 18.1846 24.2576 20.5457 26.6164C24.3179 30.3878 29.3454 29.9983 32.7718 26.1433C34.8447 23.8102 35.9078 21.0233 36.3754 17.9775C36.4415 17.5451 36.5547 17.1085 36.4842 16.7531C29.7489 19.3731 23.0754 19.388 16.37 16.736ZM16.291 12.4144C23.0904 11.3571 29.8193 11.3506 36.5803 12.4187C36.0573 10.0642 35.5535 7.71186 35.0091 5.37021C34.802 4.48406 34.2213 3.82694 33.3695 3.52728C31.1493 2.74601 28.8971 2.09103 26.5061 2.08033C24.3862 2.07177 22.3838 2.63471 20.3685 3.20407C18.8741 3.62788 17.9775 4.46908 17.6786 6.03803C17.2751 8.17848 16.7585 10.2954 16.291 12.4144ZM26.4164 12.9838C26.2414 12.9838 26.0684 12.9817 25.8934 12.9838C22.9153 13.033 19.9372 13.1079 17.0083 13.7244C16.6304 13.8036 16.0433 13.8015 15.9772 14.1846C15.9067 14.5977 16.3828 14.9145 16.7372 15.1756C17.6658 15.8584 18.7289 16.248 19.8262 16.5391C23.2227 17.4402 26.6705 17.5344 30.1396 17.1085C32.0139 16.8794 33.8435 16.4663 35.5278 15.563C36.0231 15.2976 36.4714 14.9744 36.7938 14.495C36.971 14.2295 36.9518 14.0433 36.6251 13.947C36.3241 13.8592 36.0252 13.7586 35.72 13.6966C32.6501 13.0673 29.5333 13.0288 26.4164 12.9838ZM14.8969 15.1071C14.8244 15.1157 14.7539 15.1264 14.6813 15.135C14.8692 16.6483 15.0592 18.1616 15.247 19.6749C15.3004 19.6684 15.3517 19.6599 15.405 19.6535C15.2833 18.9022 15.1339 18.1551 15.0506 17.4017C14.9674 16.6418 14.946 15.8734 14.8969 15.1071Z" fill="#637FE5"/>
<path d="M26.4251 46.0196C25.4772 46.0154 24.7493 45.2662 24.7642 44.3116C24.7791 43.3997 25.5349 42.6613 26.4443 42.6655C27.3516 42.6698 28.1031 43.4211 28.1095 44.3308C28.1137 45.2705 27.3644 46.0239 26.4251 46.0196ZM26.7581 44.3651C26.7453 44.1703 26.645 44.0376 26.4464 44.0247C26.2735 44.014 26.1476 44.1168 26.122 44.2944C26.0942 44.4978 26.1988 44.639 26.3973 44.6647C26.5937 44.6883 26.7176 44.5684 26.7581 44.3651Z" fill="#637FE5"/>
<path d="M23.5217 6.8578C23.5644 5.75332 23.9273 4.72805 24.8325 3.95106C26.1774 2.7995 28.2696 3.20404 29.0915 4.76443C29.2793 5.12189 29.2495 5.4558 28.9143 5.69125C28.5791 5.9267 28.244 5.86463 28.0006 5.52643C27.5672 4.92497 27.0549 4.45407 26.2543 4.68738C25.4196 4.93139 25.0673 5.61205 24.9179 6.40616C24.7727 7.17458 24.9051 7.90662 25.3833 8.54019C26.0686 9.45417 27.1701 9.43704 27.8426 8.51879C27.9237 8.40749 27.9963 8.28548 28.0689 8.16775C28.2995 7.79103 28.6368 7.68615 29.0039 7.90234C29.3818 8.12281 29.4053 8.47384 29.2217 8.85912C28.2589 10.869 25.7249 11.1558 24.3564 9.40494C23.7886 8.67504 23.5473 7.83384 23.5217 6.8578Z" fill="#637FE5"/>
</svg>
