<svg width="53" height="54" viewBox="0 0 53 54" fill="none" xmlns="http://www.w3.org/2000/svg">
<path d="M26.44 53.7166C18.3725 53.7166 10.305 53.7166 2.23965 53.7166C0.777294 53.7166 0.0151641 52.9567 0.0151641 51.4905C0.0172989 49.1489 -0.0339386 46.8072 0.0407801 44.4677C0.209431 39.1316 3.52481 33.4208 10.2239 31.443C12.5829 30.7453 14.9653 30.1202 17.4118 29.9019C19.8946 29.6815 21.8757 30.7324 23.3381 32.7551C23.543 33.0377 23.7181 33.3416 23.938 33.6135C25.3832 35.3986 27.4775 35.405 28.9249 33.622C29.2323 33.2432 29.4693 32.8087 29.7767 32.4319C31.3671 30.4798 33.4123 29.6023 35.9143 29.949C38.7472 30.3428 41.5523 30.9144 44.1995 32.0231C49.0349 34.048 51.7696 37.7702 52.6812 42.8923C52.9395 44.3457 52.8434 45.8183 52.8498 47.2845C52.8584 48.7165 52.8584 50.1506 52.8498 51.5826C52.8434 52.946 52.0599 53.7166 50.6936 53.7166C42.6091 53.7188 34.5245 53.7166 26.44 53.7166ZM27.4711 40.7026C29.0935 41.3191 30.0798 42.43 30.1481 44.1145C30.2357 46.2957 30.1759 48.4811 30.1674 50.6665C30.1652 51.1909 29.9154 51.4263 29.386 51.437C28.7584 51.4499 28.1307 51.4392 27.5031 51.4392C27.0228 51.4392 26.7559 51.2059 26.7132 50.7221C26.6492 50.0093 26.5681 49.2966 26.5211 48.5817C26.4976 48.2285 26.3823 48.1022 26.0045 48.0508C23.3039 47.6805 21.8736 44.838 23.1844 42.4899C23.6711 41.6166 24.4268 41.0601 25.3597 40.7219C25.3192 40.6449 25.3042 40.5935 25.2701 40.5528C22.7531 37.5177 20.2319 34.4868 17.7171 31.4495C17.5612 31.2611 17.4033 31.2226 17.1727 31.2568C14.7604 31.6357 12.3736 32.1216 10.0616 32.9264C5.43761 34.5339 2.60043 37.7788 1.62909 42.552C1.00786 45.6 1.43909 48.7208 1.37078 51.8073C1.36437 52.1348 1.61415 52.3403 1.95572 52.3681C2.16279 52.3852 2.37414 52.3745 2.58335 52.3745C18.5112 52.3745 34.4391 52.3745 50.3649 52.3745C50.5207 52.3745 50.6787 52.3767 50.8345 52.3703C51.2829 52.3553 51.5155 52.107 51.5113 51.6746C51.4814 49.0547 51.712 46.4198 51.4195 43.817C50.8367 38.6564 48.1489 35.0005 43.2687 33.1019C40.8393 32.1558 38.2882 31.6678 35.72 31.2568C35.4019 31.2055 35.2418 31.3317 35.0646 31.5479C33.978 32.8686 32.8807 34.1807 31.7898 35.4949C30.3659 37.2137 28.942 38.9304 27.4711 40.7026ZM33.2266 31.5222C32.204 31.8776 31.4077 32.494 30.7779 33.3309C30.4641 33.7483 30.193 34.2021 29.8578 34.6002C28.4382 36.2933 26.3097 36.7706 24.5015 35.8117C23.6007 35.3344 22.9239 34.6152 22.3859 33.7569C21.8266 32.86 21.0794 32.1729 20.1273 31.717C19.9715 31.6421 19.8199 31.5137 19.6 31.5715C19.6448 31.6442 19.6662 31.6935 19.6982 31.732C21.8608 34.3369 24.0298 36.9354 26.1795 39.5489C26.4272 39.8507 26.5211 39.7437 26.7068 39.519C28.7861 37.0039 30.874 34.4975 32.9554 31.9846C33.06 31.8604 33.2201 31.762 33.2266 31.5222ZM28.8331 46.9549C28.8331 46.1159 28.8395 45.2789 28.831 44.4399C28.8182 42.9694 27.708 41.8542 26.3354 41.9227C25.0011 41.9891 23.955 43.1535 24.0404 44.4784C24.1301 45.8847 25.3234 46.8586 26.7815 46.7152C27.4818 46.6467 27.6888 46.8115 27.7614 47.5264C27.8361 48.2563 27.9258 48.9841 27.9578 49.7161C27.9749 50.1249 28.214 50.0778 28.4787 50.095C28.8096 50.1185 28.8374 49.9387 28.8352 49.6754C28.8267 48.77 28.8331 47.8625 28.8331 46.9549Z" fill="#475569"/>
<path d="M26.4037 0.751107C29.0168 0.695455 31.4782 1.40609 33.8863 2.28795C35.227 2.78026 36.051 3.83764 36.3669 5.25034C36.9455 7.83815 37.5176 10.4281 38.0769 13.0202C38.1452 13.3348 38.2712 13.5275 38.5658 13.6859C39.2404 14.0497 39.5734 14.6555 39.4923 15.4218C39.3386 16.8623 39.1636 18.3007 38.9629 19.7348C38.854 20.5161 38.1986 21.109 37.349 21.2245C37.0821 21.2609 36.9647 21.3487 36.8814 21.6013C36.2752 23.4035 35.4105 25.0688 34.1958 26.535C32.0525 29.125 29.4117 30.7303 25.9384 30.5591C23.3766 30.4328 21.2802 29.2705 19.5061 27.4768C17.8815 25.8351 16.7778 23.8701 16.0243 21.6997C15.9239 21.4065 15.8129 21.2588 15.4671 21.2138C14.5918 21.0983 13.994 20.454 13.8809 19.5785C13.7101 18.245 13.55 16.9115 13.3877 15.5759C13.281 14.6983 13.6098 14.0326 14.3954 13.6281C14.6281 13.5082 14.7113 13.3562 14.7647 13.1165C15.339 10.4923 15.9196 7.86812 16.5046 5.24606C16.8163 3.85263 17.6232 2.7931 18.9383 2.30508C21.3399 1.41679 23.8014 0.704017 26.4037 0.751107ZM37.7823 17.5258C38.062 17.3118 37.9403 16.98 37.983 16.7125C38.0641 16.1881 38.1837 15.6529 38.1367 15.1157C38.0876 15.1114 38.0385 15.1071 37.9873 15.1028C37.9211 15.9141 37.8549 16.7253 37.793 17.5387C37.682 18.2515 37.571 18.9642 37.46 19.6749C37.7332 18.9835 37.8869 18.2729 37.7823 17.5258ZM16.3701 16.736C16.3381 17.1341 16.4277 17.5943 16.5003 18.0545C17.0148 21.3037 18.1847 24.2576 20.5458 26.6164C24.318 30.3878 29.3455 29.9983 32.7719 26.1433C34.8448 23.8102 35.908 21.0233 36.3755 17.9775C36.4417 17.5451 36.5548 17.1085 36.4844 16.7531C29.749 19.3731 23.0756 19.388 16.3701 16.736ZM16.2911 12.4144C23.0905 11.3571 29.8195 11.3506 36.5804 12.4187C36.0574 10.0642 35.5536 7.71186 35.0092 5.37021C34.8021 4.48406 34.2215 3.82694 33.3697 3.52728C31.1494 2.74601 28.8972 2.09103 26.5062 2.08033C24.3863 2.07177 22.3839 2.63471 20.3686 3.20407C18.8742 3.62788 17.9776 4.46908 17.6787 6.03803C17.2752 8.17848 16.7586 10.2954 16.2911 12.4144ZM26.4166 12.9838C26.2415 12.9838 26.0686 12.9817 25.8935 12.9838C22.9154 13.033 19.9374 13.1079 17.0084 13.7244C16.6305 13.8036 16.0435 13.8015 15.9773 14.1846C15.9068 14.5977 16.3829 14.9145 16.7373 15.1756C17.6659 15.8584 18.7291 16.248 19.8264 16.5391C23.2229 17.4402 26.6706 17.5344 30.1397 17.1085C32.014 16.8794 33.8436 16.4663 35.528 15.563C36.0232 15.2976 36.4716 14.9744 36.7939 14.495C36.9711 14.2295 36.9519 14.0433 36.6253 13.947C36.3242 13.8592 36.0254 13.7586 35.7201 13.6966C32.6502 13.0673 29.5334 13.0288 26.4166 12.9838ZM14.8971 15.1071C14.8245 15.1157 14.754 15.1264 14.6814 15.135C14.8693 16.6483 15.0593 18.1616 15.2472 19.6749C15.3005 19.6684 15.3518 19.6599 15.4052 19.6535C15.2835 18.9022 15.134 18.1551 15.0508 17.4017C14.9675 16.6418 14.9462 15.8734 14.8971 15.1071Z" fill="#475569"/>
<path d="M26.4253 46.0201C25.4774 46.0158 24.7494 45.2667 24.7644 44.312C24.7793 43.4002 25.5351 42.6618 26.4445 42.666C27.3518 42.6703 28.1032 43.4216 28.1097 44.3313C28.1139 45.271 27.3646 46.0244 26.4253 46.0201ZM26.7583 44.3656C26.7455 44.1708 26.6452 44.0381 26.4466 44.0252C26.2737 44.0145 26.1478 44.1173 26.1221 44.2949C26.0944 44.4983 26.199 44.6395 26.3975 44.6652C26.5939 44.6888 26.7178 44.5689 26.7583 44.3656Z" fill="#475569"/>
<path d="M23.522 6.85877C23.5647 5.7543 23.9276 4.72902 24.8328 3.95204C26.1777 2.80047 28.2698 3.20502 29.0917 4.76541C29.2796 5.12287 29.2497 5.45678 28.9145 5.69223C28.5794 5.92768 28.2442 5.8656 28.0008 5.52741C27.5675 4.92594 27.0551 4.45504 26.2545 4.68835C25.4198 4.93237 25.0676 5.61303 24.9182 6.40714C24.773 7.17556 24.9053 7.9076 25.3835 8.54117C26.0688 9.45514 27.1704 9.43802 27.8429 8.51977C27.924 8.40846 27.9966 8.28646 28.0691 8.16873C28.2997 7.79201 28.637 7.68713 29.0042 7.90332C29.3821 8.12378 29.4055 8.47482 29.2219 8.8601C28.2591 10.87 25.7251 11.1568 24.3567 9.40591C23.7888 8.67602 23.5476 7.83482 23.522 6.85877Z" fill="#475569"/>
</svg>
