<svg width="72" height="72" viewBox="0 0 72 72" fill="none" xmlns="http://www.w3.org/2000/svg">
<rect width="72" height="72" rx="10" fill="#13CF48" fill-opacity="0.05"/>
<path d="M51.8415 33.0898C50.5894 27.7199 47.293 24.2845 42.0456 22.8765C36.8974 21.4947 32.3044 22.8099 28.3941 26.7839C28.0476 27.1369 27.4682 27.7259 28.0963 28.3634C28.2908 28.5611 28.4934 28.6538 28.702 28.6559C29.0607 28.6498 29.3666 28.3513 29.6482 28.0446L29.6766 28.0144C29.7353 27.9498 29.7941 27.8873 29.8549 27.8248C33.1999 24.3571 38.3602 23.1791 42.7 24.8917C47.4045 26.7496 50.3584 30.9898 50.4091 35.9542C50.4638 41.3181 46.6933 46.1736 41.4438 47.5009C36.1133 48.8464 30.5944 46.4459 28.0193 41.659C27.9463 41.5239 27.8795 41.3847 27.8106 41.2475C27.687 40.9953 27.5594 40.7351 27.4013 40.4971C27.1379 40.0977 26.7489 39.9867 26.3377 40.1925C25.9203 40.4023 25.7501 40.7573 25.8595 41.193C25.9061 41.3786 25.9912 41.5541 26.0743 41.7236C26.0966 41.7679 26.1168 41.8103 26.1371 41.8547C28.4285 46.7223 33.3012 49.6352 38.4676 49.6352C39.9486 49.6352 41.454 49.3951 42.9289 48.8949C46.1139 47.8136 48.7822 45.6047 50.4374 42.6757C52.1008 39.7406 52.5992 36.3355 51.8415 33.0898Z" fill="#13CF48"/>
<path d="M38.3315 39.7426L38.3842 39.7971L40.3576 37.9513C42.1851 36.2407 43.97 34.5724 45.7509 32.9001C46.2574 32.4241 46.3142 31.9016 45.9049 31.4639C45.7084 31.252 45.4896 31.1411 45.2566 31.133C44.977 31.125 44.6832 31.2621 44.3833 31.5445C42.9611 32.8759 41.5388 34.2073 40.1145 35.5387C39.7336 35.8937 39.3506 36.2467 38.9535 36.6139L38.4551 37.0738C38.2627 36.8781 38.0803 36.6905 37.902 36.507C37.4705 36.0632 37.0632 35.6456 36.6519 35.2381C36.3946 34.9839 36.1313 34.8548 35.8699 34.8548C35.8679 34.8548 35.8658 34.8548 35.8638 34.8548C35.6328 34.8569 35.414 34.9618 35.2114 35.1655C34.8103 35.573 34.8224 36.0833 35.2438 36.5292C35.9469 37.2735 36.6519 38.0038 37.3975 38.7804C37.7035 39.091 38.0134 39.4118 38.3315 39.7426Z" fill="#13CF48"/>
<path d="M25.2453 31.25H26.7689C28.0473 31.25 29.3278 31.25 30.6062 31.252C31.0884 31.252 31.757 31.254 31.7793 30.4572C31.7874 30.1789 31.7205 29.9731 31.5787 29.8279C31.3477 29.5918 30.9587 29.5717 30.5778 29.5717H30.5758H28.6004C25.6849 29.5717 22.7695 29.5737 19.854 29.5676C19.4204 29.5676 18.6221 29.5656 18.6201 30.431C18.6201 30.6731 18.687 30.8627 18.8207 30.9958C19.0436 31.2177 19.4164 31.25 19.7567 31.25C19.7648 31.25 19.7729 31.25 19.781 31.25C21.1122 31.244 22.4433 31.246 23.7744 31.246L25.2453 31.25Z" fill="#13CF48"/>
<path d="M30.6908 35.2764C30.6928 35.2764 30.6948 35.2764 30.6968 35.2764C30.9683 35.2764 31.3513 35.2482 31.5782 35.0142C31.72 34.8669 31.7869 34.6531 31.7747 34.3767C31.7443 33.6828 31.2175 33.592 30.6908 33.592C29.6757 33.5941 28.6607 33.5941 27.6456 33.5941H26.039L24.8679 33.5961C23.6948 33.5981 22.4792 33.6001 21.2859 33.592C21.0245 33.588 20.2303 33.586 20.1938 34.3848C20.1817 34.6491 20.2465 34.8589 20.3883 35.0061C20.5646 35.1897 20.8482 35.2744 21.2818 35.2744C21.2838 35.2744 21.2859 35.2744 21.2899 35.2744C24.4992 35.2684 27.7044 35.2704 30.6908 35.2764Z" fill="#13CF48"/>
<path d="M30.7038 39.2948C31.1252 39.2948 31.4048 39.21 31.579 39.0305C31.7229 38.8812 31.7897 38.6674 31.7776 38.391C31.7452 37.6084 31.034 37.6104 30.6937 37.6124C29.8143 37.6164 28.935 37.6144 28.0557 37.6144H26.9617H25.9324C25.0329 37.6144 24.1313 37.6144 23.2317 37.6144C23.2297 37.6144 23.2256 37.6144 23.2236 37.6144C22.6786 37.6144 22.1741 37.7112 22.1559 38.3971C22.1478 38.6714 22.2187 38.8853 22.3626 39.0345C22.5388 39.2141 22.8144 39.2968 23.2338 39.2968C23.2358 39.2968 23.2378 39.2968 23.2398 39.2968C25.7258 39.2927 28.2138 39.2927 30.7018 39.2968C30.7018 39.2948 30.7018 39.2948 30.7038 39.2948Z" fill="#13CF48"/>
</svg>
