<svg width="41" height="22" viewBox="0 0 41 22" fill="none" xmlns="http://www.w3.org/2000/svg">
<path d="M39.3501 12.6451C39.5389 12.4271 39.7253 12.2059 39.9091 11.9811C40.1702 11.6657 40.4285 11.348 40.6862 11.0294C40.6862 10.8704 40.6862 10.7114 40.6862 10.5525C40.3284 10.0978 39.9622 9.65097 39.5876 9.21217C38.3656 7.76046 37.0175 6.43904 35.5164 5.2796C33.2276 3.49046 30.7297 2.11825 28.0012 1.22498C25.5529 0.395953 23.015 -0.016554 20.3879 0.000508385C17.7608 -0.016554 15.2231 0.395953 12.7748 1.22498C10.0466 2.11825 7.54837 3.49046 5.25962 5.2796C3.75854 6.43884 2.41044 7.76026 1.18847 9.21217C0.813852 9.65097 0.447643 10.0978 0.0898438 10.5525C0.0898438 10.7114 0.0898438 10.8704 0.0898438 11.0294C0.347531 11.348 0.60582 11.6657 0.866912 11.9811C1.05072 12.2059 1.23733 12.4271 1.42594 12.6451C1.43775 12.6588 1.44956 12.6722 1.46118 12.6859C1.52565 12.7599 1.58992 12.834 1.65499 12.9073C2.04823 13.3547 2.45348 13.7917 2.88116 14.2094C2.90339 14.2311 2.92581 14.2522 2.94824 14.2737C4.69318 15.9984 6.63055 17.4537 8.77634 18.6133C8.8306 18.6428 8.88487 18.6725 8.93933 18.7018C8.95514 18.7103 8.97116 18.7185 8.98698 18.7269C10.281 19.4163 11.6321 19.9857 13.0425 20.4314C13.083 20.4444 13.1228 20.4581 13.1632 20.4709C15.5279 21.2211 17.9378 21.5948 20.3881 21.585C22.8384 21.595 25.2481 21.2211 27.613 20.4709C27.6534 20.4581 27.6933 20.4444 27.7337 20.4314C29.1443 19.9857 30.4956 19.4163 31.7896 18.7267C31.8053 18.7185 31.8211 18.7103 31.8367 18.702C31.8914 18.6727 31.9456 18.643 32.0001 18.6133C34.1459 17.4539 36.0828 15.9984 37.8278 14.2739C37.85 14.2522 37.8726 14.2311 37.8949 14.2094C38.3225 13.7917 38.7278 13.3547 39.121 12.9073C39.1859 12.834 39.2504 12.7599 39.3148 12.6859C39.3267 12.6722 39.3385 12.6588 39.3501 12.6451ZM39.1539 11.0087C38.7274 11.5379 38.2875 12.0461 37.8344 12.5345C37.8052 12.566 37.7757 12.5977 37.7463 12.6291C37.6644 12.7166 37.5819 12.8031 37.499 12.8892C37.4508 12.9392 37.4025 12.989 37.3541 13.0386C37.2812 13.1132 37.2081 13.1875 37.1344 13.2612C37.0806 13.315 37.0265 13.3684 36.9722 13.4218C36.8983 13.4946 36.8243 13.5673 36.7496 13.6389C36.7031 13.6837 36.6563 13.7277 36.6096 13.7718C36.5233 13.8535 36.437 13.9352 36.3499 14.0157C36.3295 14.0346 36.3087 14.0531 36.2883 14.0719C33.9382 16.2242 31.2645 17.8764 28.2367 18.9799C28.2205 18.9857 28.2044 18.9917 28.1882 18.9975C28.0993 19.0296 28.0096 19.0606 27.9201 19.0917C26.7278 19.5016 25.4834 19.8241 24.1835 20.0542C23.9775 20.0907 23.7711 20.1246 23.5643 20.1564C23.1035 20.219 22.6406 20.268 22.1763 20.3065C21.8277 20.3248 21.4785 20.327 21.1287 20.3035C23.4858 20.1006 25.5943 19.0555 27.1529 17.4671C27.1923 17.428 27.2312 17.3882 27.2698 17.3485C27.2774 17.3405 27.2852 17.3326 27.293 17.3244C27.9924 16.5982 28.5566 15.7731 28.9791 14.847C28.9795 14.8462 28.9799 14.8454 28.9803 14.8446C29.0069 14.7861 29.033 14.7273 29.0584 14.6681C29.5642 13.5326 29.8585 12.2786 29.8861 10.9531C29.8943 10.5605 29.8765 10.1689 29.8351 9.78045C29.7345 8.73804 29.4558 7.7434 29.0061 6.79674C27.6674 3.90558 24.8797 1.64271 21.1628 1.27175C21.4787 1.25068 21.7943 1.25268 22.109 1.27095C22.6188 1.3127 23.1262 1.36871 23.6305 1.44057C24.8197 1.61119 25.9764 1.87094 27.1018 2.2154C27.1507 2.23066 27.1997 2.24531 27.2484 2.26097C28.5054 2.66284 29.7007 3.15363 30.838 3.72813C31.545 4.08845 32.2383 4.48469 32.9177 4.91888C35.3116 6.44907 37.3715 8.35142 39.1489 10.5673C39.1791 10.6051 39.2021 10.6396 39.2191 10.6729C39.2562 10.7506 39.259 10.821 39.2245 10.9001C39.2081 10.9339 39.1853 10.9696 39.1539 11.0087ZM20.6632 19.0732C20.5717 19.0762 20.4802 19.0788 20.3879 19.079C20.2958 19.079 20.2041 19.0762 20.1126 19.0732C20.0744 19.072 20.0361 19.072 19.9977 19.0702C18.5308 19.0035 17.1605 18.569 15.9844 17.8349C15.9417 17.8078 15.8995 17.7799 15.8573 17.752C15.8354 17.7377 15.8136 17.7233 15.792 17.7088C14.2721 16.6817 13.1328 15.1579 12.5417 13.4372C12.5327 13.4105 12.5231 13.384 12.5143 13.3571C12.4959 13.3019 12.4783 13.2465 12.4611 13.1911C12.4332 13.1006 12.4064 13.0094 12.3812 12.9175C12.3684 12.8705 12.3563 12.8234 12.3443 12.7762C12.3303 12.7218 12.3175 12.6668 12.3045 12.612C12.1251 11.8436 12.0534 11.0475 12.1031 10.2474C12.1657 9.30912 12.3934 8.39579 12.7602 7.54508C12.9758 7.05388 13.2313 6.58918 13.5252 6.14817C13.5333 6.13633 13.5411 6.12449 13.5493 6.11284C13.5737 6.07671 13.5991 6.04118 13.624 6.00525C14.4138 4.88596 15.4714 3.95616 16.7126 3.3377C16.7665 3.31703 16.8219 3.29394 16.8806 3.26664C17.6316 2.91897 18.3979 2.69275 19.1808 2.57993C19.5512 2.52995 19.9182 2.50205 20.2814 2.49683C20.3168 2.49643 20.3523 2.49563 20.3879 2.49563C20.4236 2.49563 20.459 2.49643 20.4944 2.49683C20.8578 2.50205 21.2246 2.52995 21.5951 2.57993C22.3779 2.69275 23.1442 2.91897 23.8952 3.26664C23.9541 3.29394 24.0096 3.31683 24.0634 3.3377C25.3044 3.95616 26.3622 4.88596 27.1521 6.00545C27.1769 6.04118 27.2023 6.07671 27.2265 6.11284C27.2346 6.12469 27.2426 6.13653 27.2506 6.14837C27.5445 6.58939 27.7998 7.05388 28.0154 7.54508C28.3824 8.39599 28.6101 9.30952 28.6728 10.248C28.7222 11.0479 28.6505 11.8436 28.4713 12.6116C28.4583 12.6668 28.4453 12.722 28.4311 12.7766C28.4191 12.8236 28.4071 12.8705 28.3943 12.9173C28.369 13.0094 28.3422 13.1008 28.3142 13.1913C28.2969 13.2467 28.2793 13.3019 28.2611 13.3569C28.2521 13.3842 28.2425 13.4109 28.2333 13.438C27.642 15.1585 26.5031 16.6819 24.9834 17.7088C24.9616 17.7233 24.94 17.7379 24.918 17.7522C24.8759 17.7801 24.8337 17.8078 24.791 17.8349C23.6149 18.5692 22.2446 19.0037 20.7777 19.0702C20.7397 19.0718 20.7017 19.072 20.6632 19.0732ZM17.2118 20.1564C17.0049 20.1246 16.7985 20.0905 16.5925 20.0542C15.2926 19.8241 14.0482 19.5014 12.8559 19.0917C12.7664 19.0604 12.6767 19.0296 12.5878 18.9975C12.5716 18.9917 12.5556 18.9857 12.5393 18.9799C9.51157 17.8764 6.83778 16.2244 4.48756 14.0719C4.46713 14.0531 4.44631 14.0346 4.42589 14.0159C4.33879 13.9356 4.25249 13.8537 4.1662 13.772C4.11954 13.7277 4.07269 13.6837 4.02624 13.6391C3.95156 13.5673 3.87747 13.4946 3.80359 13.422C3.74953 13.3688 3.69527 13.3154 3.64161 13.2616C3.56793 13.1879 3.49465 13.1134 3.42176 13.0388C3.37351 12.9894 3.32546 12.9398 3.2774 12.8898C3.19451 12.8035 3.11202 12.717 3.02993 12.6293C3.00049 12.5979 2.97126 12.5662 2.94183 12.5347C2.48892 12.0465 2.04883 11.5381 1.62236 11.0089C1.59092 10.9698 1.56809 10.9343 1.55188 10.9001C1.51744 10.821 1.52004 10.7506 1.55728 10.6729C1.5743 10.6396 1.59733 10.6051 1.62756 10.5673C3.40475 8.35122 5.46465 6.44867 7.85852 4.91868C8.53768 4.48449 9.23125 4.08825 9.93824 3.72793C11.0755 3.15343 12.2708 2.66264 13.5279 2.26077C13.5767 2.24511 13.6258 2.23046 13.6746 2.2152C14.7999 1.87094 15.9566 1.61119 17.1457 1.44057C17.6501 1.36871 18.1572 1.3129 18.6672 1.27095C18.9819 1.25288 19.2975 1.25068 19.6134 1.27175C15.8967 1.64271 13.1088 3.90538 11.7701 6.79654C11.3204 7.7434 11.0415 8.73804 10.9412 9.78065C10.8997 10.1691 10.8819 10.5605 10.8901 10.9531C10.9177 12.2788 11.2121 13.5328 11.718 14.6685C11.7435 14.7275 11.7693 14.7861 11.7959 14.8444C11.7963 14.8452 11.7967 14.8462 11.7971 14.847C12.2196 15.7729 12.7836 16.5982 13.483 17.3242C13.4908 17.3324 13.4986 17.3405 13.5064 17.3487C13.5449 17.3884 13.5837 17.4278 13.623 17.4669C15.1813 19.0553 17.2901 20.1004 19.6473 20.3035C19.2975 20.327 18.9483 20.3248 18.5997 20.3065C18.1354 20.268 17.6725 20.2188 17.2118 20.1564Z" fill="#212121"/>
<path d="M21.2084 14.4835C21.2597 14.4727 21.3105 14.4612 21.3608 14.4484C21.3912 14.4408 21.421 14.4323 21.4511 14.4241C21.4723 14.4181 21.4937 14.4125 21.5148 14.406C23.0138 13.9644 24.0344 12.6627 24.1451 11.0939C24.1553 10.9958 24.1635 10.8968 24.1675 10.796C24.1627 10.6605 24.1519 10.5271 24.1355 10.396C23.9475 8.48259 22.4676 7.10575 20.5773 7.02004C20.5733 7.01984 20.5693 7.01984 20.5655 7.01984C20.509 7.01743 20.4524 7.01562 20.3951 7.01562C20.3923 7.01562 20.3895 7.01583 20.3865 7.01583C20.3837 7.01583 20.3809 7.01562 20.3779 7.01562C20.3206 7.01562 20.264 7.01743 20.2075 7.01984C20.2035 7.02004 20.1995 7.02004 20.1957 7.02004C18.3052 7.10575 16.8255 8.48259 16.6375 10.396C16.6211 10.5271 16.6103 10.6605 16.6055 10.796C16.6093 10.8968 16.6175 10.9958 16.6279 11.0939C16.7388 12.6627 17.7592 13.9644 19.2584 14.406C19.2795 14.4125 19.3007 14.4181 19.3219 14.4241C19.3519 14.4323 19.382 14.4408 19.4124 14.4484C19.4627 14.4612 19.5135 14.4727 19.5648 14.4835C19.5694 14.4845 19.5738 14.4855 19.5782 14.4865C19.8189 14.5363 20.0691 14.5636 20.3274 14.5666C20.3416 14.5668 20.3557 14.5678 20.3699 14.568C20.3755 14.568 20.3811 14.5676 20.3867 14.5678C20.3923 14.5678 20.3977 14.5682 20.4035 14.568C20.4177 14.568 20.4317 14.567 20.446 14.5666C20.7042 14.5636 20.9545 14.5363 21.1952 14.4865C21.1994 14.4855 21.2038 14.4845 21.2084 14.4835ZM20.8752 13.3112C20.8402 13.3179 20.8048 13.3239 20.7691 13.3291C20.7577 13.3307 20.7461 13.3321 20.7345 13.3337C20.7046 13.3377 20.6748 13.3413 20.6448 13.3444C20.628 13.346 20.6111 13.3472 20.5941 13.3486C20.5685 13.3506 20.5429 13.3526 20.517 13.3538C20.4966 13.3548 20.476 13.3552 20.4554 13.3558C20.4323 13.3564 20.4095 13.357 20.3865 13.357C20.3635 13.357 20.3404 13.3564 20.3176 13.3558C20.297 13.3552 20.2764 13.3548 20.2559 13.3538C20.2301 13.3526 20.2045 13.3506 20.1789 13.3486C20.162 13.3472 20.145 13.346 20.1282 13.3444C20.0982 13.3413 20.0683 13.3377 20.0385 13.3337C20.0269 13.3321 20.0155 13.3309 20.0039 13.3291C19.9682 13.3239 19.9328 13.3179 19.8977 13.3112C19.8927 13.3102 19.8875 13.3094 19.8825 13.3084C18.7108 13.0784 17.8392 12.0599 17.8304 10.8091C17.8208 9.42623 18.8708 8.31317 20.2303 8.23147C20.2343 8.23127 20.2383 8.23087 20.2423 8.23067C20.273 8.22906 20.3038 8.22846 20.3346 8.22765C20.3519 8.22725 20.3691 8.22665 20.3865 8.22665C20.4039 8.22665 20.4211 8.22725 20.4383 8.22765C20.4692 8.22826 20.5 8.22886 20.5307 8.23067C20.5347 8.23087 20.5387 8.23127 20.5427 8.23147C21.9022 8.31297 22.9524 9.42623 22.9425 10.8091C22.9337 12.0599 22.0622 13.0784 20.8905 13.3084C20.8852 13.3094 20.8802 13.3102 20.8752 13.3112Z" fill="#212121"/>
</svg>
