<svg width="34" height="34" viewBox="0 0 34 34" fill="none" xmlns="http://www.w3.org/2000/svg">
<path d="M14.0764 0C14.4338 0.104436 14.8079 0.0918319 15.1714 0.156397C18.3735 0.725134 21.0501 2.23045 23.1423 4.72713C24.7405 6.63424 25.7214 8.83794 26.0585 11.313C26.4893 14.4759 25.8553 17.4156 24.1629 20.1203C24.0362 20.3228 24.0744 20.4262 24.2304 20.5821C27.0361 23.3849 29.8366 26.193 32.6356 29.0025C33.6047 29.9754 33.7895 31.1859 33.1529 32.3203C32.416 33.6332 30.5676 34.0206 29.373 33.1074C29.1916 32.9688 29.022 32.8119 28.8603 32.6501C26.0965 29.8825 23.3331 27.1147 20.5767 24.3397C20.3884 24.1501 20.2635 24.1018 20.0143 24.2594C17.6856 25.7326 15.1306 26.3855 12.3901 26.2411C9.86156 26.1079 7.55492 25.285 5.49332 23.8023C3.14025 22.1103 1.52535 19.8685 0.620662 17.1179C0.334322 16.2477 0.134188 15.351 0.0633731 14.4314C0.0551626 14.3244 0.0218091 14.2192 0 14.1132C0 13.4568 0 12.8003 0 12.1439C0.0667101 11.703 0.121618 11.2598 0.20244 10.8214C0.622201 8.54161 1.55871 6.49482 3.04865 4.72379C5.14489 2.23199 7.8174 0.725134 11.0182 0.156654C11.3815 0.0920889 11.7554 0.104693 12.1128 0.00025758C12.767 3.49316e-07 13.4218 0 14.0764 0ZM24.8631 13.5301C25.084 7.33417 20.2912 1.49811 13.2979 1.32834C7.26961 1.18198 1.49816 5.91271 1.32497 12.9248C1.17589 18.9685 5.89769 24.7492 12.892 24.9288C19.0096 25.0859 24.6094 20.2384 24.8631 13.5301ZM32.2107 31.0076C32.1976 30.5832 32.026 30.256 31.744 29.9738C29.8928 28.1212 28.0413 26.2687 26.1989 24.4073C26.0282 24.235 25.9482 24.2895 25.8225 24.4359C25.3881 24.9414 24.9255 25.4214 24.4136 25.8481C24.206 26.021 24.1953 26.119 24.3969 26.3193C26.2094 28.1182 28.009 29.9296 29.8135 31.7366C29.9059 31.8292 29.9993 31.9226 30.1024 32.0018C30.5196 32.3229 30.9774 32.3854 31.452 32.1598C31.938 31.9293 32.1756 31.5198 32.2107 31.0076ZM23.2608 21.4837C23.1764 21.4747 23.1482 21.5289 23.1153 21.5675C22.6265 22.1411 22.1006 22.6782 21.5217 23.1603C21.3814 23.2771 21.4396 23.346 21.5366 23.4422C22.0546 23.9572 22.5727 24.4719 23.0809 24.9964C23.2043 25.1237 23.2795 25.1057 23.3986 24.9974C23.9315 24.5133 24.439 24.0048 24.9227 23.4713C25.0404 23.3414 25.0589 23.2619 24.9214 23.1284C24.4051 22.6276 23.9015 22.1136 23.3927 21.6048C23.3473 21.5595 23.298 21.5179 23.2608 21.4837Z" fill="#212121"/>
<path d="M23.5699 13.1298C23.5676 18.9216 18.8509 23.6398 13.0756 23.6274C7.31031 23.6151 2.61879 18.901 2.62109 13.1226C2.6234 7.33081 7.34007 2.61268 13.1154 2.62502C18.8809 2.63763 23.5722 7.35164 23.5699 13.1298ZM22.2431 13.4699C22.4461 8.72885 18.7962 4.18924 13.4381 3.95568C8.70942 3.74964 4.18108 7.41106 3.94811 12.7826C3.74259 17.5233 7.39472 22.0632 12.7526 22.2965C17.4815 22.5028 22.0081 18.8416 22.2431 13.4699Z" fill="#212121"/>
<path d="M13.3916 5.25804C16.3708 5.29688 19.3037 7.3681 20.3903 10.1976C20.5525 10.6203 20.435 10.9863 20.0868 11.1427C19.7153 11.3094 19.3668 11.1543 19.178 10.7052C18.4757 9.03599 17.3011 7.83395 15.6511 7.10161C14.9057 6.77081 14.1183 6.61313 13.3065 6.5712C13.2085 6.56606 13.1092 6.56863 13.0124 6.55474C12.6779 6.50586 12.4405 6.22806 12.4454 5.89829C12.4503 5.56877 12.6966 5.29559 13.0322 5.2601C13.1507 5.24749 13.2716 5.25804 13.3916 5.25804Z" fill="#212121"/>
</svg>
