<svg width="48" height="48" viewBox="0 0 48 48" fill="none" xmlns="http://www.w3.org/2000/svg">
<path d="M47.1975 24.967C46.7544 33.7037 42.2626 40.8568 33.6366 45.1885C29.8026 47.1137 25.6994 47.6948 21.4516 47.3461C12.0245 46.5724 3.6776 39.8708 1.04686 30.605C-1.4261 21.8951 0.50554 14.1266 6.5949 7.5575C10.3055 3.5545 14.9409 1.26471 20.2805 0.488095C31.42 -1.13172 42.2742 5.4445 45.9668 16.3615C46.7516 18.6806 47.1981 21.4268 47.1975 24.967ZM23.5615 45.5097C24.7156 45.4542 25.8521 45.3982 26.9763 45.2127C31.8161 44.4138 35.948 42.2119 39.3736 38.6107C45.3943 32.281 46.9144 22.5776 43.1361 14.6285C39.0716 6.07633 30.0064 1.07985 20.5015 2.44984C16.1186 3.08168 12.2843 4.95196 8.96773 7.96698C2.01174 14.2898 -0.0641256 24.7427 4.18177 33.2196C8.20817 41.2582 14.8899 45.0967 23.5615 45.5097Z" fill="#475569"/>
<path d="M23.6228 37.2806C18.7234 37.184 14.4231 35.5629 10.9141 31.9713C9.56657 30.5922 8.52517 28.987 7.76372 27.1926C7.46928 26.4984 7.59714 25.9597 8.13846 25.693C8.68577 25.4235 9.24 25.6701 9.54389 26.3491C11.5398 30.8127 14.9329 33.605 19.5195 34.7404C25.345 36.1821 30.5498 34.8654 34.904 30.5137C36.1057 29.3127 36.994 27.8723 37.6909 26.3094C37.8572 25.9364 38.0994 25.6649 38.5103 25.6051C39.2966 25.4911 39.8323 26.2257 39.5237 27.0171C39.0085 28.339 38.2782 29.5351 37.4063 30.6362C34.4524 34.3664 30.6131 36.4597 25.9959 37.1045C25.2093 37.2147 24.4198 37.2793 23.6228 37.2806Z" fill="#475569"/>
<path d="M16.3838 14.2502C18.0519 14.2411 19.3622 14.637 20.4559 15.6302C21.4022 16.4895 21.9804 17.579 22.2191 18.8504C22.3012 19.2893 22.2669 19.7178 21.8597 20.0045C21.5244 20.2408 21.1698 20.2734 20.801 20.0824C20.4568 19.904 20.3457 19.5776 20.2717 19.2237C20.0519 18.1749 19.559 17.3263 18.6442 16.7455C16.4396 15.3461 13.6759 16.528 13.1412 19.1138C12.9724 19.9292 12.5095 20.3277 11.9033 20.179C11.3132 20.0342 11.0282 19.5178 11.1545 18.8213C11.6693 15.9786 13.7336 14.2492 16.3838 14.2502Z" fill="#475569"/>
<path d="M30.525 14.3457C33.3803 14.3463 35.5292 16.0676 36.1146 18.827C36.1754 19.113 36.2204 19.4071 36.1023 19.6873C35.9301 20.0968 35.601 20.3059 35.1803 20.2962C34.764 20.2865 34.4286 20.091 34.2875 19.655C34.1981 19.3794 34.1338 19.0949 34.0494 18.8177C33.6149 17.3905 32.4614 16.448 31.0131 16.3521C30.4601 16.3152 29.9034 16.3084 29.3633 16.4684C28.1238 16.8352 27.4121 17.7146 27.089 18.9631C27.0506 19.1111 27.0298 19.2636 26.9987 19.4136C26.8702 20.0277 26.4186 20.3835 25.8842 20.2933C25.3208 20.1983 24.9615 19.7048 25.0588 19.0714C25.2894 17.5708 25.9503 16.3123 27.1505 15.3906C28.149 14.6243 29.2978 14.3454 30.525 14.3457Z" fill="#475569"/>
</svg>
