<svg width="72" height="72" viewBox="0 0 72 72" fill="none" xmlns="http://www.w3.org/2000/svg">
<rect width="72" height="72" rx="10" fill="#0392FA" fill-opacity="0.05"/>
<path d="M48.3596 27.3136C45.4599 27.3092 42.5579 27.3092 39.6582 27.3136C39.4859 27.3136 39.4232 27.3515 39.421 27.5587C39.4165 28.0844 39.4188 28.608 39.421 29.1337C39.421 29.4099 39.4658 29.4322 39.7096 29.4322C39.996 29.4322 40.2802 29.4322 40.5666 29.4322L45.225 29.3498L43.2717 31.0986L41.9023 32.4619C40.0475 34.3087 38.1949 36.1533 36.3423 38.0023C36.1566 38.1872 35.9485 38.283 35.7247 38.283C35.3869 38.283 35.1765 38.0714 35.0982 37.9912C34.2346 37.1246 33.3664 36.2602 32.4983 35.3981L32.1694 35.0706C31.5586 34.4625 30.9903 34.4625 30.3794 35.0706L28.001 37.4387C26.229 39.2031 24.4547 40.9697 22.6826 42.734C22.5506 42.8655 22.432 42.9835 22.3447 43.1038V43.184C22.3492 43.193 22.3537 43.2041 22.3582 43.213C22.3671 43.2308 22.3738 43.2486 22.3828 43.2642L22.7833 43.663C23.0786 43.9593 23.374 44.2534 23.6738 44.5474C23.6805 44.5541 23.7029 44.5786 23.8125 44.5719C23.8572 44.5697 23.9266 44.5162 24.0586 44.3848L25.9918 42.46C27.5312 40.9273 29.0705 39.3924 30.6077 37.8575C30.6949 37.7706 30.9231 37.5412 31.2811 37.5412H31.2834C31.6414 37.5412 31.8696 37.7729 31.9546 37.8598C32.5833 38.4969 33.2188 39.1296 33.8542 39.76C34.2033 40.1075 34.5523 40.4528 34.8991 40.8004C35.0915 40.9942 35.2616 41.0989 35.4428 41.1434C35.8813 41.2481 36.2259 41.1368 36.5929 40.7692C38.8527 38.5147 41.1148 36.2647 43.3768 34.0124L45.0348 32.3639C45.0907 32.3082 45.1489 32.2548 45.2093 32.1991L45.2451 32.1657L46.6413 30.6218L46.4578 36.1778C46.4623 36.3939 46.5026 36.4496 46.7778 36.4496H46.8337C47.3327 36.4518 47.8316 36.4541 48.3306 36.4474C48.5565 36.4451 48.5968 36.3627 48.5968 36.1934C48.5991 33.3152 48.5991 30.4347 48.5968 27.5565C48.5946 27.3471 48.5252 27.3136 48.3596 27.3136Z" fill="#0392FA"/>
</svg>
