<svg width="47" height="44" viewBox="0 0 47 44" fill="none" xmlns="http://www.w3.org/2000/svg">
<path d="M46.7726 12.0826C46.2854 8.95638 45.0905 6.15767 42.9021 3.87178C39.7699 0.600436 35.9456 -0.595093 31.5537 0.338132C28.1207 1.06777 25.4857 3.0531 23.5742 6.02869C23.3677 6.35019 23.3694 6.35067 23.1754 6.0347C22.4069 4.78286 21.4886 3.65495 20.3352 2.75494C16.4924 -0.243028 12.2997 -0.814081 7.85771 1.13948C4.96601 2.4113 2.97483 4.68829 1.60305 7.53176C0.55131 9.71153 0.0627134 12.0415 0.00336006 14.4498C-0.0348635 15.9953 0.257154 17.5164 0.669066 19.0077C1.72152 22.8169 3.67947 26.08 6.50659 28.7919C8.42014 30.6273 10.3916 32.4006 12.3398 34.1985C13.5749 35.3382 14.8161 36.4711 16.0511 37.6111C16.1717 37.7225 16.2814 37.8041 16.4162 37.7189C16.2937 37.8426 16.4167 37.9374 16.5235 38.036C17.6776 39.1002 18.8312 40.1648 19.9855 41.2287C20.8677 42.0418 21.749 42.8564 22.6341 43.6664C23.1243 44.1152 23.6039 44.1073 24.0904 43.6659C25.5709 42.3224 27.054 40.982 28.5367 39.6409C30.709 37.6763 32.882 35.7128 35.0544 33.7482C36.589 32.3602 38.1144 30.9613 39.6588 29.5846C41.9268 27.5629 43.7594 25.207 45.0642 22.4398C45.9521 20.5565 46.5547 18.5837 46.841 16.5146C46.85 16.4494 46.9018 16.3695 46.8296 16.3189C46.8002 16.2983 46.7738 16.298 46.7491 16.3072C46.9367 16.1332 46.9193 15.875 46.9454 15.6345C47.0751 14.4409 46.9561 13.2603 46.7726 12.0826ZM44.723 17.9938C43.8154 21.7239 41.9448 24.8922 39.2027 27.5217C37.7018 28.9608 36.1308 30.325 34.5895 31.721C33.3965 32.8013 32.2004 33.8782 31.0062 34.9567C29.0255 36.7457 27.0445 38.5342 25.0647 40.3241C24.5678 40.7734 24.0704 41.2222 23.5833 41.6821C23.4299 41.8269 23.3314 41.8409 23.1656 41.6871C21.4499 40.0964 19.726 38.5144 18.0038 36.931C17.9193 36.8535 17.8466 36.7327 17.7009 36.8157C17.7719 36.7005 17.6992 36.636 17.622 36.565C15.2728 34.4059 12.9213 32.2495 10.5778 30.0841C9.27032 28.8763 7.89997 27.7354 6.71314 26.3982C4.16142 23.5239 2.55199 20.1876 1.94849 16.3637C1.81625 15.5263 1.74218 14.6753 1.81957 13.8331C2.19421 9.75244 3.62249 6.20604 7.01726 3.72787C10.8221 0.950576 16.1487 1.31058 19.594 4.5196C20.7538 5.59985 21.6595 6.85699 22.3297 8.29485C22.5223 8.70804 22.8079 8.97756 23.2815 9.00331C23.8022 9.0317 24.1545 8.78986 24.3748 8.32757C25.0937 6.81945 26.0547 5.49902 27.3301 4.42502C29.0509 2.97585 31.0136 2.08474 33.2531 1.91557C37.57 1.58973 40.7734 3.49156 43.0768 7.09162C44.2893 8.9867 44.884 11.1039 45.1233 13.3378C45.2696 14.7045 45.1437 16.0482 44.8626 17.3819C44.8187 17.59 44.8838 17.5756 45.0224 17.5354C44.8524 17.6415 44.7717 17.7939 44.723 17.9938Z" fill="#475569"/>
</svg>
