<svg width="411" height="355" viewBox="0 0 411 355" fill="none" xmlns="http://www.w3.org/2000/svg">
<path d="M338.732 111.893C326.922 86.4827 309.252 63.8226 292.692 41.1626C268.362 7.88264 201.802 -14.5174 148.032 11.0826C94.2623 36.6826 99.3823 78.2926 82.7423 111.583C66.1023 144.863 18.0923 177.503 11.0523 211.433C0.212346 263.673 8.40234 300.353 69.3023 322.163C115.512 338.713 165.542 307.443 210.762 299.763C240.752 294.663 273.582 298.563 302.402 286.533C337.832 271.743 349.832 226.503 352.642 191.583C353.912 175.773 353.012 159.763 349.722 144.233C347.322 132.883 343.502 122.163 338.732 111.893Z" fill="#637FE5" fill-opacity="0.03"/>
<g opacity="0.1">
<path d="M0 307.556H22.8208V284.684H29.4215V307.556H52.3958V314.157H29.4215V337.08H22.8208V314.157H0V307.556Z" fill="#637FE5"/>
<path d="M369.126 142.993L381.537 155.404L393.976 142.965L397.566 146.555L385.127 158.994L397.622 171.489L394.032 175.078L381.537 162.584L369.07 175.05L365.48 171.461L377.947 158.994L365.536 146.583L369.126 142.993Z" fill="#637FE5"/>
<circle cx="64.9583" cy="44.2254" r="18.5377" stroke="#637FE5" stroke-width="3.37049"/>
<circle cx="307.634" cy="340.829" r="11.7967" stroke="#637FE5" stroke-width="3.37049"/>
<circle cx="329.258" cy="50.8037" r="13.482" fill="#637FE5"/>
</g>
<path d="M353.4 303.15L282.93 233.74L285.91 229.57C298.61 211.79 305.32 190.9 305.32 169.17C305.32 111.73 258.59 65 201.16 65C143.72 65 97 111.73 97 169.17C97 226.6 143.73 273.33 201.16 273.33C221.75 273.33 241.68 267.31 258.78 255.92L262.84 253.22L335.06 324.35L342.59 331.88C343.35 332.65 345.14 332.81 347.25 332.3C350.45 331.54 353.98 329.41 356.94 326.45C363.07 320.31 363.94 313.67 362.37 312.1L353.4 303.15ZM202.66 252.62C156.64 252.62 119.2 215.18 119.2 169.16C119.2 123.14 156.64 85.7 202.66 85.7C248.68 85.7 286.12 123.14 286.12 169.16C286.12 215.19 248.68 252.62 202.66 252.62Z" fill="#B1BFF2"/>
<path d="M177.95 172.373C177.75 168.023 175.28 164.573 172.42 164.673C169.56 164.773 167.41 168.393 167.6 172.743C167.8 177.093 170.27 180.543 173.13 180.443C175.99 180.343 178.14 176.733 177.95 172.373Z" fill="#637FE5"/>
<path d="M238.32 172.373C238.12 168.023 235.65 164.573 232.79 164.673C229.93 164.773 227.78 168.393 227.97 172.743C228.17 177.093 230.64 180.543 233.5 180.443C236.36 180.343 238.51 176.733 238.32 172.373Z" fill="#637FE5"/>
<path d="M193.041 197.74C208.963 192.352 221.081 199.194 221.646 199.513C222.26 199.873 222.467 200.647 222.107 201.261C221.747 201.865 220.964 202.072 220.349 201.722C220.211 201.64 206.09 193.725 188.927 202.212C188.292 202.522 187.516 202.269 187.196 201.643C186.877 201.008 187.129 200.242 187.764 199.933C189.559 199.042 191.322 198.321 193.041 197.74Z" fill="#637FE5"/>
<path d="M229.72 137.773C230.54 137.613 231.42 137.853 232.05 138.483C240.08 146.513 249.19 144.873 249.57 144.803C250.96 144.533 252.32 145.433 252.6 146.813C252.88 148.193 252 149.533 250.62 149.813C250.12 149.903 238.47 152.133 228.41 142.073C227.41 141.073 227.41 139.453 228.41 138.463C228.78 138.093 229.24 137.863 229.72 137.773Z" fill="#637FE5"/>
<path d="M176.7 137.773C175.88 137.613 175 137.853 174.37 138.483C166.34 146.513 157.23 144.873 156.85 144.803C155.46 144.533 154.1 145.433 153.82 146.813C153.54 148.193 154.42 149.533 155.8 149.813C156.3 149.903 167.95 152.133 178.01 142.073C179.01 141.073 179.01 139.453 178.01 138.463C177.63 138.093 177.18 137.863 176.7 137.773Z" fill="#637FE5"/>
</svg>
