<svg width="52" height="53" viewBox="0 0 52 53" fill="none" xmlns="http://www.w3.org/2000/svg">
<path d="M50.8717 38.7254C50.6515 36.7614 50.4335 34.7994 50.2175 32.8375C49.9402 30.3172 48.5451 28.7261 45.9518 27.978C44.9546 27.6891 43.9343 27.4347 42.9435 27.1889C42.4841 27.0747 42.0226 26.9604 41.5632 26.8397C41.5315 26.8332 41.5018 26.8267 41.4679 26.8203C41.3282 26.7944 41.1546 26.7642 41.053 26.568L41.0234 26.5141L41.0551 26.4624C41.1864 26.236 41.4002 26.264 41.5357 26.2813C41.5717 26.2856 41.6077 26.292 41.6415 26.292C41.6437 26.292 41.6458 26.292 41.6458 26.292C42.4121 26.2877 43.1806 26.2856 43.947 26.2877C44.4381 26.2877 44.9314 26.2877 45.4225 26.2877C46.8324 26.2834 47.5565 25.5676 47.6348 24.0994C47.7682 21.6503 47.9142 19.1623 48.0582 16.7563L48.2085 14.1971C48.2148 14.1152 48.2212 14.0333 48.217 13.9514C48.1916 13.5331 47.9206 13.2377 47.5586 13.2356H47.5565C47.2093 13.2356 46.9446 13.5094 46.9108 13.9018C46.8409 14.8094 46.7859 15.6934 46.7456 16.4372C46.5974 18.9769 46.4514 21.5166 46.3117 24.0585C46.2693 24.7699 46.0915 24.9424 45.4056 24.9446C43.8835 24.9489 42.7149 24.951 41.6331 24.9424C41.6309 24.9424 41.6309 24.9424 41.6309 24.9424C41.595 24.9424 41.5569 24.9489 41.5166 24.9532C41.3833 24.9748 41.1461 25.0093 41.0763 24.7678C41.0043 24.522 41.2224 24.4228 41.3536 24.3625C41.3896 24.3474 41.4235 24.3301 41.451 24.3129C43.2716 23.1875 44.5037 21.6848 45.2172 19.7229C45.7697 18.2029 45.7443 16.6355 45.6617 14.8935C45.6279 14.1928 45.0182 13.6883 44.1438 13.6366C42.1412 13.5223 40.2591 12.992 38.5486 12.0606C37.325 11.3966 36.2389 10.5342 35.3244 9.49501C34.8841 8.99914 34.503 8.75767 34.1283 8.74042C34.1135 8.74042 34.0986 8.74042 34.0838 8.74042C33.7282 8.74042 33.3535 8.93661 32.9131 9.35487C32.0981 10.1245 31.2047 10.6312 30.1843 10.8985C29.4222 11.0969 28.9734 11.5992 28.9522 12.2719C28.9416 12.6147 28.9289 12.9596 28.9141 13.3046C28.8485 15.0574 28.7786 16.8662 29.0983 18.619C29.5132 20.8871 30.7389 22.711 32.7459 24.0434C32.8115 24.0865 32.8962 24.1296 32.9872 24.1749C33.2476 24.3021 33.5694 24.4616 33.4805 24.7441C33.3789 25.0524 33.0295 25.0071 32.748 24.9683C32.6506 24.9554 32.5596 24.9424 32.4812 24.9424C32.4749 24.9424 32.4707 24.9424 32.4664 24.9424C31.5709 24.9618 30.6648 24.9597 29.7863 24.951L29.2507 24.9489C28.5859 24.9467 28.4018 24.7699 28.3637 24.0908C28.3065 23.0754 28.2472 22.0599 28.188 21.0445C28.0292 18.2697 27.8619 15.4023 27.7264 12.5802C27.6269 10.4911 27.8619 8.80726 28.4716 7.28084C29.0623 5.7803 29.9811 4.87049 31.2767 4.49966C31.5519 4.42205 31.7424 4.29053 31.8737 4.08787C32.8115 2.66063 34.196 1.81334 36.0992 1.49857C41.1779 0.657751 44.8954 3.94342 46.21 7.34983C46.5318 8.1885 46.7287 8.9862 46.807 9.7839C46.8113 9.81624 46.8134 9.85074 46.8176 9.88523C46.8197 9.91973 46.824 9.95423 46.8282 9.98656C46.9637 10.9956 47.4527 10.9481 47.603 10.9266C47.9036 10.8921 48.2339 10.739 48.1492 9.84858C47.7195 5.35773 44.6392 1.56972 40.4814 0.420596C37.5367 -0.394354 34.8671 -0.0235301 32.5321 1.52013C32.5194 1.52876 32.5067 1.53522 32.4918 1.54169C32.4897 1.54385 32.4728 1.55247 32.4685 1.55678C31.4122 2.60458 30.2266 3.43893 29.1025 4.18274C27.7349 5.08824 27.1866 6.66639 26.8331 8.08932C26.4287 9.70198 26.3081 11.4418 26.4457 13.7293C26.6383 16.9546 26.8267 20.1821 27.0151 23.4074L27.0321 23.679C27.0384 23.7631 27.0405 23.845 27.0448 23.9291C27.0511 24.0671 27.0554 24.2072 27.0723 24.3452C27.212 25.6194 27.9149 26.2705 29.1639 26.2791C29.7545 26.2813 30.3494 26.2791 30.9464 26.2813C31.5942 26.2813 32.2399 26.2791 32.8877 26.2856C32.8898 26.2856 32.8919 26.2856 32.8919 26.2856C32.9322 26.2856 32.9766 26.2791 33.0253 26.2726C33.1566 26.2554 33.3048 26.2317 33.4106 26.3158C33.4657 26.3589 33.4995 26.4214 33.5122 26.5033C33.5228 26.5874 33.4953 26.6456 33.4699 26.6801C33.3937 26.7814 33.2434 26.803 33.11 26.8203C33.0634 26.8267 33.0168 26.8332 32.9766 26.844C32.4474 26.9841 31.916 27.1156 31.3846 27.2471C30.2859 27.5188 29.1491 27.7991 28.0609 28.1591C27.4174 28.3704 26.8437 28.6808 26.3483 29.084L26.3038 29.1228C26.181 29.2285 25.9969 29.3837 25.7407 29.1595C24.8134 28.3402 23.6554 28.0147 22.5482 27.7516C21.3966 27.4757 20.0904 27.1652 18.9176 26.4969C18.6 26.3158 18.4772 26.1282 18.4391 25.7574C18.3439 24.8389 18.7292 24.3776 19.3812 23.9334C21.6295 22.4027 22.8594 20.2338 23.0373 17.4828C23.0711 16.9826 23.2363 16.7563 23.6935 16.5881C24.4662 16.3078 25.0865 15.6934 25.3533 14.9453C25.5925 14.2726 25.5226 13.5568 25.1585 12.9294C25.0061 12.6686 25.0124 12.3991 25.0167 12.1404C25.0357 10.5579 25.004 8.74473 24.4133 6.98548C23.0288 2.88485 19.0615 0.0433044 14.836 0.0433044C14.6391 0.0433044 14.4401 0.0497723 14.2432 0.062708C10.0706 0.32789 7.03905 2.45797 5.22689 6.3969C4.65318 7.64304 4.37586 9.08106 4.37586 10.7972V10.8856C4.37586 11.7631 4.37797 12.5931 4.02655 13.4663C3.81485 13.9945 3.82967 14.5615 4.07312 15.107C4.38221 15.8033 5.01096 16.3639 5.80484 16.642C6.17955 16.7735 6.3108 16.9503 6.33409 17.3427C6.5098 20.2748 7.8414 22.5687 10.2908 24.1598C10.3437 24.1965 10.4136 24.2266 10.4855 24.259C10.6803 24.3452 10.9195 24.453 10.9555 24.729C11.0106 25.186 10.9809 25.6496 10.9513 26.0959C10.9407 26.2856 10.7798 26.3481 10.6612 26.3955C10.621 26.4106 10.5829 26.4257 10.5512 26.4451C9.50748 27.0919 8.33678 27.3851 7.20418 27.6675C6.82311 27.7624 6.43146 27.8616 6.0504 27.9715C5.15491 28.2302 4.41819 28.5838 3.80002 29.0538C2.6018 29.9658 1.94764 31.2615 1.74018 33.1415C1.20457 38.0075 0.66686 42.8735 0.127023 47.7395C0.118555 47.8149 0.116437 47.8925 0.11432 47.9702C0.107969 48.1664 0.101616 48.3712 0 48.5652V49.9774C0.218052 50.7794 0.518667 51.6029 1.23422 52.2088C1.68514 52.5904 2.21227 52.7564 2.76904 52.9353L2.97228 53H9.86102C10.2654 52.724 10.3924 52.461 10.2781 52.1182C10.1532 51.7409 9.86313 51.6525 9.4609 51.6525C9.336 51.6482 9.21957 51.6568 9.0989 51.6568C8.83427 51.6568 8.57812 51.6504 8.31772 51.6504C8.14836 51.6504 7.97688 51.6525 7.80964 51.6612C7.62123 51.6719 7.44763 51.6655 7.33332 51.5447C7.24017 51.4499 7.20418 51.3054 7.219 51.0704C7.32273 49.3241 7.41164 47.5497 7.49844 45.8315L7.5937 43.9666C7.71225 41.6834 7.8287 39.4046 7.94937 37.1236C7.97477 36.6449 7.83928 36.3927 7.49844 36.272C7.29732 36.2051 7.10891 36.2245 6.95649 36.3302C6.76807 36.4595 6.64952 36.7053 6.63258 37.0071C6.57542 38.0053 6.5352 38.8117 6.51192 39.5468C6.50768 39.674 6.49075 39.8293 6.38066 39.9263C6.27269 40.0212 6.12027 40.0168 5.99325 40.0018C5.21843 39.9069 4.43937 39.825 3.65819 39.7409L2.85373 39.6546C2.7013 39.6374 2.55523 39.6223 2.4642 39.508C2.40069 39.424 2.37952 39.3075 2.39857 39.1437C2.4896 38.3826 2.56793 37.6086 2.64414 36.8584C2.78175 35.5109 2.92782 34.116 3.13529 32.7491C3.38933 31.102 4.32716 29.983 5.91703 29.4225C6.4611 29.2306 7.02423 29.0905 7.57042 28.9546C7.90067 28.8727 8.24151 28.7865 8.57599 28.6916C8.85967 28.6097 9.05233 28.683 9.24286 28.9396C9.87796 29.7933 10.5427 30.6471 11.1842 31.475C11.5652 31.9665 11.9378 32.2231 12.3295 32.2619C12.7317 32.2878 13.153 32.1153 13.6314 31.6949C13.6674 31.6647 13.7034 31.641 13.7669 31.6022L14.0379 31.4275V32.4926C14.0379 33.0445 14.0379 33.577 14.0379 34.1095V34.3575C14.0358 34.683 14.0358 35.0215 14.0548 35.347C14.0781 35.7157 14.275 35.927 14.6306 35.955C14.6582 35.9572 14.6836 35.9593 14.7111 35.9593C15.0392 35.9593 15.2446 35.7739 15.3165 35.4117C15.3504 35.2328 15.3547 35.0366 15.3547 34.8663C15.3568 34.0772 15.3568 33.286 15.3568 32.4969V31.6259L15.4372 31.6043C15.6595 31.5526 15.7696 31.6798 15.8373 31.766C15.8543 31.7854 15.8712 31.807 15.8881 31.8221C16.2099 32.111 16.5635 32.2597 16.917 32.2597C16.9551 32.2597 16.9911 32.2576 17.0271 32.2554C17.4124 32.2209 17.7681 32.0096 18.056 31.6431C18.4709 31.1149 18.8795 30.5824 19.288 30.0477C19.5675 29.679 19.8491 29.3125 20.1306 28.946C20.1454 28.9266 20.1603 28.9072 20.173 28.8878C20.2598 28.7628 20.3974 28.5774 20.6832 28.6593C21.0367 28.7606 21.4029 28.8468 21.7544 28.9331C22.4932 29.1077 23.2553 29.291 23.9709 29.6144C24.0513 29.6532 24.1297 29.6898 24.2059 29.7329C25.0802 30.218 25.1014 30.2719 24.7394 31.1947C24.4154 32.0226 24.3223 32.9151 24.2291 33.7797C24.2122 33.9414 24.1953 34.1031 24.1783 34.2669C24.0407 35.485 23.9095 36.7053 23.7803 37.9234L23.6279 39.3744C23.6195 39.4434 23.6068 39.5145 23.5919 39.5857L23.5813 39.646C23.5602 39.7797 23.5284 39.9996 23.2447 39.9996C23.1431 39.9996 23.0669 39.9716 23.0161 39.9177C22.9378 39.8357 22.942 39.7215 22.9462 39.6309C22.9462 39.6051 22.9484 39.5835 22.9462 39.5598C22.9187 39.0833 22.8975 38.609 22.8721 38.1347L22.8298 37.2809C22.8277 37.2357 22.8277 37.1947 22.8256 37.1494C22.8235 37.0546 22.8235 36.964 22.8086 36.8778C22.7388 36.4487 22.4551 36.203 22.0889 36.2396C21.7141 36.2763 21.4982 36.5436 21.5109 36.9532C21.5406 37.9428 21.5892 38.9475 21.64 39.9198L21.7141 41.3708C21.8772 44.5443 22.0444 47.8279 22.2222 51.0532C22.2328 51.23 22.2265 51.4089 22.1164 51.5275C22.0084 51.6439 21.839 51.6612 21.6697 51.6612C21.6633 51.6612 21.6591 51.6612 21.6549 51.6612C19.1759 51.6439 16.6587 51.6482 14.2178 51.6525H13.534C13.3604 51.6547 13.1763 51.6504 13.0281 51.7021C12.8037 51.7754 12.6597 51.9156 12.6174 52.1053C12.5581 52.3683 12.6936 52.6982 12.9836 52.9957H32.5829L32.6019 52.9741C32.6442 52.9289 32.6845 52.8814 32.7311 52.8426C32.9682 52.6335 33.0401 52.405 32.9533 52.1247C32.8602 51.8228 32.6485 51.6655 32.3288 51.6568C31.7255 51.6417 31.0163 51.6288 30.2944 51.6547C30.2732 51.6568 30.252 51.6568 30.2351 51.6568C30.1038 51.6568 29.9684 51.6353 29.8752 51.5404C29.7694 51.4283 29.763 51.258 29.7736 51.1071C29.907 48.7937 30.0276 46.4437 30.1462 44.1692L30.2647 41.8731C30.3473 40.2863 30.4299 38.6996 30.5018 37.1128C30.5167 36.8023 30.4532 36.563 30.3198 36.4164C30.2161 36.3021 30.0721 36.2418 29.8879 36.2353C29.8773 36.2353 29.8667 36.2353 29.8562 36.2353C29.3502 36.2353 29.2126 36.6837 29.1893 37.0653C29.1364 37.9169 29.0961 38.7513 29.0665 39.5512C29.0623 39.6999 29.0475 39.8444 28.9458 39.9349C28.8717 39.9996 28.768 40.0212 28.6092 40.0039C27.6312 39.8832 26.5875 39.7689 25.421 39.6503C25.2771 39.6352 25.1289 39.6072 25.0378 39.4951C24.9701 39.4089 24.9489 39.2903 24.968 39.1243C25.0611 38.3611 25.1416 37.5828 25.2178 36.8325C25.3681 35.3859 25.5248 33.8896 25.7682 32.4257C26.1556 30.1124 28.3933 29.3643 29.3396 29.1487C29.4666 29.1163 29.5619 29.1336 29.6318 29.1896C29.727 29.2694 29.727 29.3988 29.7249 29.4915C29.7249 29.5173 29.7249 29.5389 29.727 29.5583C29.7948 30.3991 29.9133 31.089 30.0975 31.7315C30.6225 33.5533 31.7191 34.3769 33.364 34.1785C34.0309 34.0988 34.7168 33.8357 35.4493 33.3765L35.5276 33.3291C35.9976 33.038 36.4824 32.7362 36.8889 32.3503C37.1916 32.0592 37.4181 32.1368 37.67 32.3503C38.6968 33.2234 39.5753 33.743 40.5216 34.0319C42.2131 34.558 43.5405 33.9327 44.2476 32.277C44.6223 31.393 44.7514 30.4358 44.8361 29.5368L44.8382 29.5044C44.8509 29.3837 44.8615 29.2716 44.9546 29.2004C45.0266 29.1487 45.1325 29.1357 45.2807 29.1659C47.4083 29.6036 48.6255 30.895 48.9008 33.0035C49.049 34.1613 49.176 35.3384 49.2988 36.4768C49.3898 37.3305 49.4829 38.1821 49.5846 39.0359C49.61 39.2536 49.5867 39.3959 49.5062 39.4951C49.4067 39.6202 49.2374 39.6503 49.0871 39.6654C48.0328 39.7646 46.9933 39.8789 46.0005 40.0018C45.8501 40.0212 45.7337 39.9996 45.6554 39.9328C45.5474 39.8401 45.5305 39.6935 45.5241 39.5598C45.4903 38.8871 45.4564 38.2166 45.4183 37.5461L45.3908 37.0718C45.359 36.5156 45.1388 36.2331 44.7366 36.2331C44.726 36.2331 44.7175 36.2331 44.7091 36.2331C44.527 36.2396 44.3746 36.3064 44.2645 36.4272C44.1269 36.5803 44.0592 36.8174 44.074 37.1063C44.1841 39.2515 44.2963 41.3967 44.4085 43.5418C44.4783 44.8505 44.5461 46.1635 44.6159 47.4721C44.6371 47.8645 44.6562 48.2569 44.671 48.6493C44.707 49.4168 44.7408 50.2145 44.8022 50.995C44.8213 51.2213 44.8086 51.4003 44.7006 51.5167C44.6096 51.618 44.4699 51.6568 44.22 51.6568C44.2137 51.6568 44.2052 51.6568 44.1989 51.6568C42.3148 51.6396 40.4031 51.6417 38.5486 51.6439L36.4464 51.6482C36.3638 51.6504 36.2728 51.6525 36.1881 51.6439C35.6949 51.6159 35.4175 51.7603 35.299 52.1117C35.1868 52.4502 35.3074 52.7068 35.7203 52.9914H48.9473C49.6925 52.7995 50.3721 52.5947 50.914 52.0514C51.7545 51.2062 52.1101 50.1196 51.9704 48.8174C51.619 45.4563 51.2401 42.0327 50.8717 38.7254ZM2.79868 40.987C3.77039 41.1293 4.77385 41.2393 5.77731 41.3104C5.99748 41.3255 6.14356 41.3816 6.23247 41.4894C6.34679 41.6252 6.34678 41.8171 6.32985 42.0068C6.29809 42.3431 6.2854 42.6859 6.27481 43.0222C6.26846 43.1645 6.2621 43.309 6.25575 43.4513L6.24517 43.5548C6.2113 44.2684 6.17743 44.9799 6.14144 45.6935C6.05676 47.4204 5.97208 49.2077 5.9001 50.9648C5.88951 51.258 5.83447 51.4283 5.71168 51.5383C5.61642 51.6245 5.48729 51.6655 5.30311 51.6655C5.26077 51.6655 5.21631 51.6633 5.16973 51.659C4.83948 51.631 4.49864 51.6396 4.17051 51.6439C3.97998 51.6504 3.79791 51.6482 3.5968 51.6504C2.85796 51.6417 2.26096 51.4154 1.86932 50.9885C1.49037 50.581 1.30831 49.9924 1.34218 49.2961C1.39087 48.2504 1.51366 47.194 1.63221 46.1742C1.67667 45.7689 1.72536 45.3615 1.76558 44.9583C1.81004 44.54 1.85661 44.1239 1.90319 43.7078C1.98363 43.0028 2.06408 42.2741 2.12971 41.5562C2.15088 41.3255 2.18898 41.1595 2.31389 41.0603C2.41974 40.9762 2.55734 40.9525 2.79868 40.987ZM23.8587 13.3563L23.8947 13.3994C24.1191 13.6711 24.2101 14.0247 24.1466 14.3632C24.081 14.7167 23.8544 15.0207 23.5284 15.1953C23.4586 15.2342 23.3802 15.2708 23.3061 15.2708C23.2701 15.2708 23.2363 15.2622 23.2024 15.2428C23.1008 15.1803 23.0902 15.0487 23.0923 14.9539L23.0902 14.126C23.0902 14.0786 23.0881 14.0311 23.0881 13.9815C23.086 13.8716 23.0839 13.7595 23.0923 13.6517C23.0966 13.6064 23.0902 13.546 23.0839 13.49C23.0669 13.3391 23.0415 13.1084 23.2511 13.0372C23.5072 12.9402 23.7147 13.1795 23.8587 13.3563ZM6.16049 15.2406C6.11603 15.2579 6.07158 15.2665 6.02924 15.2665C5.83024 15.2665 5.67781 15.0854 5.56138 14.9453L5.51692 14.8892C5.27981 14.6132 5.18455 14.251 5.25653 13.891C5.3285 13.5266 5.55926 13.2227 5.88952 13.061C5.98055 13.0157 6.10333 12.9639 6.20283 13.0308C6.30021 13.0954 6.3108 13.2248 6.30657 13.3326C6.30233 13.5266 6.30233 13.7228 6.30445 13.919V14.1562C6.30445 14.2036 6.30656 14.2532 6.30868 14.3006C6.3108 14.4084 6.31504 14.5205 6.30233 14.6326C6.2981 14.6779 6.30656 14.7383 6.31291 14.7965C6.33197 14.9453 6.35949 15.1652 6.16049 15.2406ZM6.33197 11.485C6.21765 11.5022 6.10757 11.5194 5.99537 11.5432C5.96573 11.5496 5.9382 11.5539 5.9128 11.5539C5.85564 11.5539 5.80907 11.5389 5.77308 11.5065C5.68628 11.4332 5.69263 11.3103 5.69686 11.2198C5.69898 11.1982 5.69899 11.1767 5.69899 11.1594C5.60372 8.61322 6.32562 6.40768 7.84563 4.6053C10.6337 1.29807 15.3229 0.416284 18.9896 2.51403C22.1884 4.34443 23.774 7.23557 23.7041 11.1077C23.702 11.2435 23.6872 11.3922 23.5856 11.4742C23.4882 11.5518 23.3591 11.5432 23.1833 11.5065C21.9555 11.2435 21.4495 10.6226 21.3161 9.21473C21.259 8.60029 21.0261 8.1152 20.6493 7.80905C20.2746 7.50506 19.7623 7.38648 19.1759 7.4641C18.7016 7.52446 18.2295 7.57836 17.7553 7.63011C16.4618 7.7724 15.3102 7.81983 14.2305 7.78749C12.9391 7.75515 11.6181 7.64951 10.3077 7.47488C9.65144 7.38217 9.12854 7.49859 8.74747 7.80905C8.3643 8.12166 8.13777 8.61753 8.07638 9.29019C8.01499 9.94345 7.81176 10.4738 7.44128 10.9611C7.13008 11.3685 6.72362 11.4267 6.33197 11.485ZM8.30925 20.0074C7.85198 18.9834 7.62335 17.9205 7.62546 16.8447V16.4178C7.62758 15.2988 7.62969 14.1411 7.61911 13.0027C7.61699 12.6664 7.71437 12.4508 7.95994 12.2589C8.80463 11.6014 9.26826 10.6916 9.37411 9.47776C9.40163 9.17593 9.44185 8.98189 9.57734 8.87194C9.71071 8.75983 9.9076 8.76198 10.1997 8.80726C13.4197 9.26648 16.4026 9.26432 19.3113 8.80079C19.4511 8.77492 19.6331 8.76414 19.7602 8.86116C19.8597 8.93661 19.9126 9.05735 19.9401 9.2557C20.1264 10.7325 20.6535 11.735 21.5977 12.4163C21.784 12.5521 21.7755 12.7505 21.7713 12.8949C21.7713 12.923 21.7692 12.951 21.7692 12.979C21.7734 13.4878 21.7713 13.9966 21.7713 14.5054L21.7692 15.702C21.7713 16.9244 21.7755 18.19 21.3331 19.4059C20.3529 22.1009 17.7934 23.9852 14.963 24.0951C14.872 24.0994 14.7831 24.0994 14.692 24.0994C11.9611 24.0994 9.42068 22.4803 8.30925 20.0074ZM13.4345 30.0003C13.2292 30.1965 13.0408 30.4056 12.8608 30.604C12.7952 30.6773 12.7274 30.7484 12.6661 30.8174L12.6364 30.8497L12.592 30.8519C12.5835 30.8519 12.575 30.8519 12.5666 30.8519C12.3633 30.8519 12.2829 30.7355 12.2363 30.6665C12.2299 30.6535 12.2215 30.6428 12.213 30.632C12.0013 30.3582 11.7938 30.0865 11.5843 29.8127C11.2413 29.3643 10.9005 28.9158 10.549 28.4739C10.4813 28.3876 10.4051 28.2755 10.4241 28.1569C10.4453 28.0254 10.566 27.9457 10.6867 27.8702C11.0868 27.6158 11.5673 27.4347 12.0754 28.0491C12.4035 28.4437 12.8015 28.7994 13.1826 29.1401L13.4239 29.36C13.5086 29.4354 13.6081 29.5411 13.6102 29.6747C13.6187 29.8062 13.5256 29.914 13.4345 30.0003ZM15.0392 28.4135C14.9186 28.5364 14.8127 28.5968 14.7005 28.5968C14.5904 28.5968 14.4782 28.5342 14.3533 28.4113C13.6399 27.702 13.0768 27.1652 12.5369 26.6758C12.2998 26.4581 12.2977 26.2036 12.2956 25.932C12.2956 25.8738 12.2956 25.8134 12.2935 25.7487C12.2596 25.6259 12.2278 25.4167 12.3527 25.2895C12.4861 25.1494 12.7507 25.1839 13.0111 25.2464C14.1755 25.5245 15.3589 25.5116 16.5423 25.2119C16.7011 25.1709 16.8725 25.1408 16.9911 25.2335C17.1033 25.3176 17.1308 25.4685 17.1414 25.6884C17.1647 26.2101 17.0102 26.5702 16.6333 26.8936C16.0617 27.3765 15.5198 27.9284 15.0392 28.4135ZM18.4349 28.9891C18.003 29.5518 17.5733 30.1102 17.152 30.6665C17.0991 30.7355 17.0229 30.8174 16.9234 30.8282C16.9149 30.8303 16.9064 30.8303 16.898 30.8303C16.8006 30.8303 16.7159 30.7656 16.6439 30.701C16.1104 30.2396 15.85 30.0132 15.8437 29.7437C15.8373 29.4764 16.0871 29.2371 16.5846 28.7628C16.7688 28.5838 16.9551 28.407 17.1414 28.2302C17.9416 27.4714 17.9903 27.467 19.015 28.0362L19.1229 28.0966L18.4349 28.9891ZM25.7936 41.0129C25.9079 41.0366 26.0223 41.0582 26.1281 41.069C26.4118 41.1013 26.6955 41.1336 26.977 41.1681C27.4766 41.2263 27.9953 41.2889 28.5055 41.332C28.8908 41.3643 28.9564 41.5605 28.9374 41.871C28.8696 43.0287 28.8103 44.1843 28.7532 45.3442L28.6368 47.6554C28.5775 48.8002 28.5161 49.9817 28.4695 51.1459C28.4632 51.299 28.442 51.4563 28.3361 51.5555C28.262 51.6245 28.1583 51.6568 28.0059 51.6568C27.989 51.6568 27.9678 51.6568 27.9508 51.6547C27.6248 51.6374 27.2882 51.6396 26.9728 51.6461C26.723 51.6461 26.4711 51.6482 26.2213 51.6439C25.4295 51.6267 24.7965 51.3744 24.3943 50.9109C23.9963 50.456 23.829 49.8027 23.9074 49.0223C24.0619 47.4808 24.2355 45.9155 24.4027 44.4021C24.4811 43.7078 24.5573 43.0115 24.6335 42.3151L24.6398 42.2828C24.6652 42.1383 24.6631 41.9939 24.6631 41.8559C24.6631 41.5303 24.661 41.1918 24.9235 41.0237C25.1437 40.8835 25.4761 40.9482 25.7936 41.0129ZM31.4841 20.969C30.6289 19.7768 30.216 18.3646 30.2203 16.6506C30.2203 16.2453 30.2203 15.8421 30.2203 15.439V14.8331C30.2203 14.6305 30.2203 14.4278 30.2224 14.2252C30.2245 13.7616 30.2266 13.2809 30.216 12.8109C30.2033 12.4185 30.3536 12.2137 30.7241 12.1188C31.8694 11.8256 32.8856 11.2456 33.7472 10.3897C33.8615 10.2776 33.9589 10.2259 34.0563 10.2259C34.0605 10.2259 34.0626 10.2259 34.0669 10.2259C34.2066 10.2302 34.304 10.3401 34.4077 10.4544C35.951 12.1727 37.8754 13.4361 40.1321 14.2209C41.3092 14.6283 42.5582 14.8763 43.8453 14.9539C44.2518 14.9776 44.3979 15.1414 44.3831 15.5597C44.3725 15.8314 44.3725 16.1052 44.3704 16.379C44.3704 17.0667 44.3704 17.7782 44.1925 18.4746C43.4325 21.4562 41.6204 23.2802 38.8111 23.8946C38.2099 24.0261 37.6298 24.0908 37.073 24.0908C34.8459 24.0908 32.9724 23.0473 31.4841 20.969ZM35.5043 31.725C34.7697 32.2834 34.1431 32.6133 33.4699 32.7987C33.2751 32.8526 33.0909 32.8806 32.9216 32.8806C32.3246 32.8806 31.8758 32.5486 31.5604 31.876C31.2026 31.1106 31.1306 30.2827 31.0629 29.4829C31.0501 29.3427 31.0396 29.2004 31.0247 29.0603C31.0163 28.9762 30.9951 28.7757 31.2068 28.6959C31.4926 28.586 31.645 28.7994 31.7128 28.8878C32.0811 29.3858 32.5024 29.8321 32.9639 30.2073C33.6752 30.7915 34.4712 31.2141 35.4705 31.5353L35.6674 31.5978L35.5043 31.725ZM37.2657 30.3927C37.2487 30.3927 37.2339 30.3927 37.2191 30.3927C35.5128 30.3797 33.9716 29.6251 33.0952 28.3704L33.0084 28.2453L33.7811 28.0276C34.5369 27.8206 34.8311 27.4476 34.8671 26.6542C34.8819 26.305 34.8819 25.9428 34.8692 25.5741C34.8629 25.4534 34.8713 25.3046 34.9751 25.2184C35.083 25.1343 35.2207 25.158 35.3202 25.1839C36.5861 25.5159 37.9092 25.5159 39.2472 25.186C39.353 25.1623 39.4949 25.1408 39.5965 25.2248C39.7024 25.3111 39.7108 25.4642 39.7087 25.572V25.6172C39.7002 25.9924 39.6918 26.3804 39.732 26.7491C39.8188 27.5447 40.0792 27.8486 40.8477 28.0513L41.5802 28.241L41.487 28.3704C40.5682 29.6381 38.991 30.3927 37.2657 30.3927ZM43.5468 29.1293C43.5405 29.1573 43.5341 29.181 43.532 29.2047L43.513 29.4268C43.4495 30.2073 43.3838 31.0136 43.0557 31.7703C42.7297 32.5206 42.2851 32.8785 41.6585 32.8785C41.4468 32.8785 41.2181 32.8375 40.9662 32.7599C40.3459 32.568 39.7447 32.2446 39.0694 31.7337L38.9148 31.6172L39.3001 31.4663C39.8167 31.2637 40.3036 31.0739 40.7439 30.798C41.5632 30.2935 42.2512 29.6683 42.789 28.9396C42.9139 28.7714 43.0726 28.558 43.369 28.6938C43.6167 28.7973 43.5722 29.0129 43.5468 29.1293ZM50.1858 50.9303C49.7962 51.3744 49.2077 51.6288 48.5239 51.6461C48.2657 51.6568 48.0095 51.6482 47.7576 51.6482C47.421 51.6439 47.0801 51.6396 46.7456 51.659C46.7139 51.6611 46.6864 51.6612 46.6567 51.6612C46.4831 51.6612 46.3625 51.6245 46.2757 51.5447C46.1762 51.452 46.1275 51.3076 46.119 51.0747C46.0746 49.8803 46.0089 48.6708 45.9496 47.498L45.8332 45.2558C45.7845 44.1908 45.7295 43.0891 45.6638 42.0068C45.6363 41.595 45.7168 41.3471 46.2122 41.3104C47.2664 41.2285 48.3249 41.0948 49.3474 40.9676C49.502 40.9504 49.6227 40.9719 49.7031 41.0366C49.8111 41.1228 49.8386 41.2673 49.8513 41.3859C49.9402 42.2396 50.0312 43.0955 50.1244 43.9493C50.3128 45.6956 50.5076 47.498 50.6685 49.2788C50.7256 49.9299 50.5584 50.5012 50.1858 50.9303Z" fill="#D3AF37"/>
</svg>
