<svg width="35" height="35" viewBox="0 0 35 35" fill="none" xmlns="http://www.w3.org/2000/svg">
<path d="M32.0918 14.2529L31.9851 14.2186L31.954 14.111C31.4647 12.408 30.7404 10.9071 29.9734 9.31821L29.8975 9.16014L29.9602 9.06122C30.901 7.57756 30.8455 6.19893 29.7994 5.07434C28.7117 3.90577 27.3296 3.80158 25.449 4.74663L25.3509 4.79588L25.2541 4.74284C23.9464 4.02511 22.5154 3.42525 20.6142 2.79781L20.5136 2.76498L20.4804 2.66395C19.9102 0.928979 18.9928 0.0845417 17.5931 0.00645435C15.9219 -0.085735 14.8101 0.808796 14.1897 2.74498L14.1532 2.85927L14.036 2.88579C12.3554 3.26676 10.8526 4.01732 9.39921 4.74326L9.30348 4.79104L9.2088 4.74179C7.53576 3.86915 6.24187 3.9144 5.13694 4.88575C3.59554 6.24018 4.13299 7.91264 4.77332 9.21844L4.82413 9.32137L4.76513 9.41987C3.95958 10.7602 3.44249 12.1679 2.9422 13.529C2.87061 13.7241 2.79923 13.9182 2.72785 14.1108L2.6951 14.1981L2.60901 14.2327C1.31786 14.7488 0.109013 15.4541 0.00740087 17.1053C-0.113107 19.0678 1.25867 19.8979 2.61679 20.451L2.70706 20.4876L2.7375 20.5807C3.30644 22.3331 3.95685 23.8871 4.72567 25.3314L4.77647 25.4274L4.72818 25.5244C3.88106 27.2284 3.95454 28.5214 4.95975 29.5935C6.27715 31 7.86074 30.5769 9.23587 29.9779L9.33791 29.9335L9.43176 29.993C10.9318 30.9444 12.616 31.5078 14.1019 32.005L14.1973 32.0368L14.2325 32.1304C14.9171 33.9424 15.8747 34.7635 17.3374 34.7921L17.4153 34.793C19.0831 34.793 19.8779 33.6916 20.5585 32.0374L20.6012 31.933L20.7118 31.9111C21.9559 31.664 23.1331 31.1023 24.2714 30.559L24.2905 30.55C24.6539 30.3765 25.0297 30.1974 25.4042 30.0301L25.4916 29.9909L25.5783 30.0316C27.2068 30.7914 28.4576 30.7019 29.5141 29.7508C30.673 28.7074 30.8111 27.4035 29.9617 25.5227L29.914 25.4183L29.9764 25.3217C30.6759 24.2363 31.1136 23.0325 31.5369 21.8686C31.7101 21.3921 31.8892 20.8995 32.0851 20.4176L32.126 20.3169L32.2312 20.2919C33.8297 19.9172 34.7291 18.8769 34.7637 17.3629C34.7979 15.8811 33.899 14.8344 32.0918 14.2529ZM25.6597 7.05831C25.7255 5.81796 26.3815 5.11917 27.5077 5.09013C28.1514 5.07582 28.6787 5.25051 29.04 5.59801C29.3938 5.93814 29.5779 6.41909 29.5874 7.028C29.5968 7.62744 29.4217 8.12985 29.0808 8.48177C28.7279 8.84569 28.2078 9.04227 27.5765 9.05048L27.5421 9.05069C26.4313 9.05069 25.7628 8.35317 25.6602 7.08609L25.6593 7.06441L25.7645 7.06357L25.6597 7.05831ZM26.2766 9.82694L26.4069 9.88734C26.8344 10.0858 27.5089 10.0547 28.2225 10.022C28.4394 10.0119 28.6588 10.0018 28.8792 9.99742L28.9785 9.99532L29.0432 10.0707C29.9441 11.1226 30.3119 12.3781 30.6675 13.5924L30.8201 14.1074L30.7393 14.1958C30.5279 14.4259 30.3016 14.6343 30.0826 14.8359C29.503 15.369 28.9594 15.8691 28.7782 16.6683L28.7413 16.8323H22.1806L22.1182 16.7649C21.6666 16.2758 21.4632 15.669 21.2837 15.1335C21.2539 15.0447 21.2289 14.9702 21.2035 14.8969L21.1594 14.7696L26.2766 9.82694ZM20.2718 4.06889L20.337 3.95544L20.467 3.96365C22.0502 4.06363 23.2561 4.74305 24.5573 5.55402L24.6493 5.61106L24.6562 5.71925C24.6764 6.03391 24.6749 6.34542 24.6734 6.64661C24.6701 7.36561 24.6671 8.03745 24.9413 8.64552L25.002 8.78107L20.0221 13.5894L19.9142 13.5675C19.5466 13.4937 18.8126 13.2912 18.0296 12.7614L17.937 12.6991V6.10442L18.0512 6.0457C19.0864 5.5155 19.8128 4.86892 20.2718 4.06889ZM20.7983 17.3578C20.8038 19.2982 19.268 20.8873 17.3745 20.9H17.3527C15.489 20.9 13.952 19.3168 13.9264 17.3705C13.9021 15.5101 15.4065 13.9717 17.2803 13.9405C18.2256 13.9106 19.116 14.2668 19.7855 14.9256C20.4359 15.5652 20.7958 16.4292 20.7983 17.3578ZM15.3881 2.82602C15.4949 1.65071 16.2184 0.948975 17.3235 0.948975L17.3519 0.949185C17.9613 0.95592 18.4671 1.15019 18.8139 1.51095C19.1639 1.87487 19.3402 2.39833 19.3243 3.02408C19.2934 4.22022 18.5555 4.96321 17.3983 4.96321C16.1523 4.95479 15.4261 4.18486 15.3874 2.85106L15.3872 2.84433L15.3881 2.82602ZM9.83317 8.64215C9.83317 8.39737 9.91063 8.13385 9.99293 7.85476C10.163 7.27636 10.3387 6.6784 9.94338 6.07138L9.84828 5.92509L9.97425 5.80428C11.155 4.66938 12.4799 4.32525 13.8823 3.96049L14.1691 3.88556L14.2544 3.97354C14.3948 4.11835 14.5317 4.26716 14.6692 4.41618C15.2268 5.02214 15.8023 5.64768 16.6244 5.97414L16.7569 6.02676V12.7989L14.7547 13.689L9.83337 8.72929L9.83317 8.64215ZM5.1529 6.93455C5.21693 5.76429 5.99141 5.05898 7.18347 5.09308C7.78118 5.11202 8.27307 5.31197 8.60667 5.67168C8.95392 6.04591 9.12355 6.58073 9.09752 7.21827C9.05049 8.34622 8.33039 9.00986 7.06905 9.08647L7.06024 9.08711L7.04218 9.08668C5.77076 8.93746 5.08613 8.15343 5.1529 6.93455ZM3.97029 14.2074C4.15168 12.8391 4.66059 11.5449 5.57195 10.1338L5.62968 10.0441L5.73592 10.038C6.06427 10.0183 6.39597 10.0212 6.71655 10.0244C7.41671 10.0311 8.07426 10.0383 8.63859 9.82041L8.76602 9.77116L13.5685 14.6098L13.5517 14.7157C13.4478 15.3625 13.137 16.067 12.6279 16.8089L12.5652 16.9003H6.25174L6.19107 16.7954C5.74872 16.0289 5.10756 15.0657 4.06729 14.4135L3.95265 14.3417L3.97029 14.2074ZM2.81476 19.3363C1.72684 19.2932 1.07538 18.586 0.980067 17.3446L0.979222 17.3181C1.09868 16.0327 1.78813 15.3295 2.9212 15.3295C3.54662 15.333 4.05426 15.5265 4.40445 15.8891C4.7561 16.2533 4.9335 16.7729 4.91671 17.3924C4.90033 17.9964 4.6988 18.4967 4.33412 18.8392C3.98583 19.1658 3.50002 19.3384 2.9296 19.3384C2.89202 19.3384 2.8536 19.3378 2.81476 19.3363ZM7.21434 29.5898L7.19523 29.5919L7.1757 29.5902C5.89484 29.4833 5.17914 28.7931 5.16046 27.6466C5.15038 27.0154 5.3303 26.4926 5.68028 26.1346C6.02857 25.7784 6.51942 25.5966 7.13917 25.5943C7.7501 25.5943 8.22877 25.7717 8.57329 26.1213C8.9325 26.4856 9.11684 27.0188 9.10655 27.6626C9.08934 28.7512 8.38204 29.4715 7.21434 29.5898ZM8.79835 24.962L8.66693 24.9037C7.93801 24.5816 7.06296 24.5202 5.8285 24.7044L5.70925 24.7225L5.63367 24.628C4.62301 23.3596 4.2069 21.8882 3.93334 20.6162L3.90919 20.5049L3.98939 20.4237C4.17519 20.2359 4.37212 20.056 4.56275 19.8817C5.12456 19.3685 5.70358 18.8398 6.00128 18.0947L6.05377 17.9623H12.5393L12.6013 18.0257C13.0422 18.4772 13.2223 19.0059 13.3814 19.4725C13.445 19.6592 13.5049 19.835 13.5767 19.9897L13.639 20.1233L8.79835 24.962ZM14.3906 30.7663L14.3171 30.8876L14.1779 30.8655C12.6015 30.6139 11.3042 30.0878 10.095 29.2101L9.98222 29.1282L10.0133 28.9922C10.2117 28.1248 10.1783 27.1869 9.90812 26.0409L9.88062 25.9249L14.7824 21.134L16.7577 21.989V28.6687L16.6528 28.7295C15.5573 29.3631 14.8594 29.9911 14.3906 30.7663ZM19.3226 31.8503L19.2174 31.8476L19.322 31.8562C19.2185 33.1285 18.5383 33.8292 17.4069 33.8292C17.3779 33.8292 17.3489 33.8288 17.3193 33.8279C16.709 33.8084 16.2108 33.6044 15.8783 33.2384C15.5403 32.8661 15.3822 32.3365 15.4212 31.7068C15.4599 31.0852 15.6673 30.606 16.038 30.282C16.4138 29.9535 16.9313 29.8108 17.5729 29.8575C18.6615 29.94 19.2663 30.6215 19.3224 31.8288L19.3228 31.836L19.3226 31.8503ZM24.7341 29.089C23.373 30.0375 22.1054 30.5895 20.6245 30.8794L20.4977 30.9038L20.4183 30.8019C19.6482 29.8066 18.9216 29.1877 18.0619 28.7954L17.9389 28.739V22.1498L18.0256 22.0866C18.7152 21.5855 19.419 21.3573 20.0244 21.1829L20.1445 21.1483L24.7627 25.862L24.7708 25.9338C24.8063 26.2364 24.7268 26.558 24.6426 26.8986C24.4977 27.4839 24.3335 28.1467 24.7864 28.796L24.9069 28.9691L24.7341 29.089ZM27.6586 29.5896L27.6374 29.5921L27.6177 29.5908C26.323 29.4986 25.5926 28.8171 25.5592 27.6723C25.5409 27.0419 25.7137 26.517 26.0591 26.1539C26.4017 25.7938 26.8885 25.6056 27.5062 25.594C28.0888 25.5774 28.5866 25.7511 28.9367 26.0965C29.3014 26.4555 29.4939 26.9883 29.4933 27.6372C29.4927 28.7076 28.8066 29.4374 27.6586 29.5896ZM30.7908 20.5548C30.5987 22.0077 30.061 23.3053 29.0988 24.6381L29.0184 24.749L28.8849 24.7206C27.9763 24.5261 27.0004 24.5793 25.9845 24.878L25.8653 24.9134L21.1959 20.2262L21.2029 20.1305C21.2446 19.5516 21.485 18.9246 21.9815 18.0972L22.043 17.9954H28.6271L28.6867 18.105C29.1374 18.9349 29.7988 19.672 30.7087 20.359L30.8067 20.4331L30.7908 20.5548ZM31.8633 19.3365L31.7815 19.3376C31.2022 19.3376 30.7114 19.1606 30.3616 18.8255C30.001 18.4801 29.8049 17.9819 29.7942 17.3844C29.7738 16.2244 30.4429 15.4379 31.5833 15.2802L31.6183 15.2779C33.0197 15.3962 33.7476 16.1118 33.7346 17.3488C33.722 18.5428 33.0048 19.3043 31.8633 19.3365Z" fill="#212121"/>
</svg>
