<svg width="65" height="56" viewBox="0 0 65 56" fill="none" xmlns="http://www.w3.org/2000/svg">
<path d="M60.0356 22.7108C59.4763 22.4647 58.8316 22.3277 58.0545 22.2956C53.7763 22.1072 50.2005 21.8054 46.6524 20.9556C46.0333 20.808 45.7387 20.7373 45.6149 20.489C45.4889 20.2386 45.6085 19.9582 45.8689 19.3503C46.6844 17.4453 46.4411 16.4714 44.8335 15.17C43.764 14.3074 42.4639 13.646 40.8542 13.1516L40.756 13.1216C40.2778 12.976 39.7847 12.8241 39.4517 12.2868C39.3044 12.0492 38.95 11.9657 38.6362 11.893L37.7267 11.6789C37.0585 11.5205 36.3882 11.3643 35.7157 11.2166C35.5535 11.1802 35.3336 11.1331 35.2183 10.9512C35.1116 10.7821 35.1415 10.5723 35.1735 10.4289C35.4958 9.01619 35.5748 7.56925 35.6047 6.46477C35.6474 5.01569 35.4873 3.86626 35.1009 2.84741C34.6739 1.72153 33.9695 1.07725 32.949 0.878188C31.7172 0.642738 30.6242 0.582805 29.6208 0.70267C27.0505 1.0109 25.4814 2.57557 25.2039 5.10987C25.1206 5.86973 25.1975 6.68524 25.4473 7.67627C25.4942 7.86891 25.5348 8.08724 25.4046 8.24563C25.2786 8.3976 25.0694 8.41045 24.8687 8.39546C24.2197 8.36122 23.5643 8.36122 22.9175 8.40402C19.8839 8.60095 17.004 9.51492 14.2224 10.3989C13.9406 10.4867 13.7548 10.6001 13.6396 10.7521C13.3983 11.0775 13.0696 11.1481 12.7814 11.1738C10.8536 11.3429 9.04543 12.0128 7.25432 13.2243C5.78556 14.2175 4.05209 15.3263 2.09019 15.9427C1.76356 16.0454 1.44547 16.2402 1.17222 16.4136C0.410086 16.9016 0.0279531 17.5673 0.00233529 18.4535C-0.0339566 19.6799 0.352446 20.8465 1.18289 22.0195C1.51165 22.4818 1.98985 22.6659 2.59828 22.5546C3.6358 22.3748 4.40433 22.15 5.08961 21.829C6.16983 21.3238 6.8423 20.6324 7.14758 19.7185C7.28848 19.2947 7.60656 19.1662 7.89049 19.0549C8.49465 18.8131 9.08172 18.5904 9.66666 18.3657C10.9689 17.8713 12.316 17.3597 13.5862 16.7539C14.7774 16.1867 16.0113 16.1375 17.2047 16.0904C17.7598 16.069 18.334 16.0454 18.8976 15.9705L19.2008 15.9299L19.1346 16.2295C18.8891 17.3297 18.5987 18.3036 18.2422 19.2112C18.0992 19.5772 17.8601 19.8383 17.5143 20.0096C16.2291 20.6431 16.0007 22.2421 16.4383 23.4236C16.56 23.7468 16.5643 24.0037 16.4533 24.3311C15.8299 26.2169 15.879 28.0577 16.607 29.8021C17.6488 32.3065 18.3981 35.0291 18.8934 38.1285C18.9553 38.5181 19.0748 38.7599 19.2477 38.8477C19.4164 38.9312 19.6726 38.8884 20.012 38.7107C20.1721 38.6294 20.36 38.5609 20.5329 38.6379C20.7015 38.7236 20.7549 38.9119 20.7827 39.066C20.8638 39.5434 21.0218 39.995 21.2566 40.4102C21.2929 40.4744 21.406 40.6778 21.3249 40.8704C21.2438 41.0631 21.0175 41.1187 20.9236 41.1423C20.2127 41.3199 19.4975 41.549 18.8058 41.7716C17.2325 42.2767 15.5929 42.8182 13.8573 42.7647C13.4432 42.7583 13.0866 42.754 12.6874 42.4629C12.1174 42.0477 11.462 41.8401 10.8067 41.8401C10.1555 41.8401 9.50442 42.0434 8.93229 42.4501C8.69532 42.6213 8.45836 42.6684 8.22993 42.7112C7.98229 42.7626 7.7987 42.906 7.72825 43.1029C7.66207 43.287 7.7069 43.4861 7.8542 43.6659C8.11465 43.9869 8.16802 44.3037 8.16802 44.6783C8.16802 45.5002 8.07409 46.2066 7.87769 46.8359C7.70477 47.386 7.52544 47.9361 7.34612 48.484C7.15825 49.0619 6.97039 49.6377 6.78893 50.2178C6.7014 50.4939 6.60533 50.8064 6.19118 51.0098C6.01399 51.0954 5.90511 51.2195 5.86882 51.3694C5.82612 51.5449 5.88803 51.7504 6.04174 51.9494C6.49005 52.5359 6.4623 53.3193 5.97556 53.8951C5.81972 54.0813 5.75994 54.2932 5.80904 54.4773C5.85601 54.6571 6.00118 54.7962 6.21466 54.8754C6.45376 54.9632 6.66511 55.0552 6.85511 55.2992C7.29061 55.8579 7.78162 55.9927 8.49678 55.7551C9.28026 55.4897 9.93779 54.976 10.5676 54.1348C11.1013 53.4221 11.4962 52.6023 11.8762 51.8103L12.0641 51.4207C12.4206 50.6951 12.7536 50.1086 13.2275 49.5906C13.7463 49.0256 14.3227 48.7537 15.04 48.7366C16.8717 48.6852 18.7525 48.7537 20.7891 48.9228C22.3731 49.0577 24.0148 49.1925 25.6202 48.8543C28.8117 48.1844 30.558 45.8106 30.178 42.6577C30.0883 41.9257 29.9304 41.1851 29.7767 40.4659L29.6614 39.9265C29.5248 39.2565 29.4031 38.5844 29.2835 37.9123C28.8993 35.7569 28.5022 33.5287 27.4689 31.5252C27.3963 31.3839 27.3067 31.1699 27.3878 30.9623C27.4689 30.7525 27.676 30.6498 27.8703 30.5791C29.038 30.1468 30.2698 29.7572 31.5272 29.4233C31.9029 29.3248 32.1122 29.2092 32.189 29.0658C32.2616 28.9288 32.2402 28.7084 32.1228 28.3787C32.0695 28.2311 32.0268 28.0577 32.1015 27.8993C32.1783 27.743 32.3342 27.6745 32.4922 27.621C33.2543 27.3663 33.8883 27.1501 34.5096 26.8633C34.9493 26.6621 35.466 26.4802 36.0829 26.9082C36.4458 27.1608 36.9134 27.3021 37.5965 27.3684C39.5883 27.5654 41.6206 27.4006 43.5847 27.2422C44.1419 27.1972 44.6969 27.1523 45.252 27.1159C45.9757 27.0624 46.456 27.1073 46.6802 28.0534C47.0217 29.4982 47.7924 30.196 49.052 30.1254C49.0626 30.1254 49.0712 30.1254 49.0818 30.1254C49.3337 30.1254 49.4811 30.2666 49.5878 30.3694C49.6198 30.4015 49.6518 30.4336 49.6903 30.4593C49.9059 30.6112 50.1514 30.6476 50.3542 30.5556C50.5228 30.4807 50.6274 30.3201 50.6509 30.1082C50.7128 29.571 51.0074 29.3783 51.3191 29.2499L51.5625 29.1472C51.776 29.0573 51.9959 28.9631 52.2286 28.8946C53.0334 28.6549 53.8681 28.5264 54.6751 28.4023C55.3497 28.2995 56.0499 28.1904 56.7181 28.0191C56.9551 27.9571 57.128 28.0513 57.2646 28.1262C57.54 28.2717 57.7172 28.3081 57.8602 28.2632C58.0246 28.2096 58.174 28.0341 58.3342 27.7066C58.7419 26.8633 59.3973 26.3475 60.2256 26.2105C60.4925 26.1677 60.7017 26.0435 60.7977 25.8744C60.8725 25.7374 60.8746 25.5705 60.802 25.3928C60.6291 24.9669 60.7017 24.6222 60.7977 24.2776C61.0005 23.5199 60.7678 23.0383 60.0356 22.7108ZM12.4078 48.6595C11.6905 49.3873 11.2422 50.3013 10.8109 51.1831L10.6337 51.547C10.2473 52.3518 9.84812 53.1845 9.18846 53.8523L9.07532 53.97C8.84689 54.2119 8.54802 54.5308 8.19364 54.5308C8.11892 54.5308 8.0442 54.5158 7.96521 54.4859C7.57881 54.3339 7.56173 53.8459 7.54679 53.4542C7.54465 53.3835 7.54252 53.315 7.53825 53.2487C7.53184 53.1631 7.53398 53.0796 7.53611 52.9961V52.8912C7.52544 51.8231 7.82431 50.8086 8.12105 49.9588L8.20004 49.7319C8.84049 47.889 9.44678 46.1488 9.38273 44.2074C9.36992 43.8221 9.5279 43.4925 9.82464 43.2763C10.2367 42.9788 10.8558 42.9424 11.4834 43.1757C12.0235 43.379 12.5465 43.7023 12.3288 44.582C12.1025 45.4981 12.1964 46.487 12.6213 47.6C12.7899 48.0388 12.7301 48.3363 12.4078 48.6595ZM38.7088 16.4371C39.7271 16.8802 40.8244 17.0429 41.9558 17.182C42.2333 17.2141 42.4468 17.182 42.5792 17.0771C42.6838 16.9937 42.7457 16.8631 42.767 16.6769C42.7905 16.48 42.7585 16.3237 42.6731 16.2188C42.5706 16.0904 42.3849 16.0133 42.1202 15.9877C41.3111 15.9085 40.5746 15.7693 39.8744 15.5617C39.6865 15.5082 39.4752 15.444 39.3769 15.2492C39.3108 15.1186 39.3108 14.9667 39.3769 14.7826C39.4752 14.5107 39.6353 14.0505 40.2544 14.2368C42.0028 14.7505 43.4096 15.5146 44.5539 16.5677C45.1217 17.0921 45.2477 17.715 44.9403 18.4706C44.4578 19.6628 44.2379 20.0952 43.6146 20.0952C43.2943 20.0952 42.8674 19.9817 42.244 19.7998C40.2437 19.2176 37.9125 18.6118 35.4873 18.873C35.2354 18.8987 35.0454 18.8537 34.9216 18.736C34.7423 18.5669 34.7529 18.3229 34.7615 18.126C34.7636 18.0489 34.7679 17.9312 34.7508 17.8991L34.7252 17.7985C34.723 16.7497 34.8575 16.5934 35.8374 16.5056C36.1918 16.4735 36.5462 16.4457 36.9006 16.42C37.272 16.3922 37.6413 16.3644 38.0107 16.3301C38.254 16.3087 38.4825 16.3387 38.7088 16.4371ZM35.0774 12.3168C35.4617 12.4045 35.8438 12.4944 36.2281 12.5822C36.8152 12.7192 37.4044 12.8562 37.9957 12.9846C38.1708 13.0231 38.3437 13.0788 38.4398 13.2372C38.538 13.402 38.5017 13.601 38.4568 13.7573C38.0939 15.0523 38.0107 15.1186 36.6764 15.2C36.1363 15.2342 35.594 15.2792 35.0539 15.3327C34.7124 15.3648 34.4135 15.4825 34.1637 15.6794C33.7389 16.0155 33.5339 16.1632 33.2436 16.1632C33.0259 16.1632 32.759 16.0797 32.315 15.9341L31.999 15.8314L32.2253 15.5874C32.8593 14.9003 33.2436 14.179 33.4315 13.3206C33.4998 13.0081 33.7069 12.7277 34.0164 12.5308C34.343 12.3168 34.7423 12.2419 35.0774 12.3168ZM32.3086 17.6829C32.4943 17.3233 32.8167 17.3575 33.0301 17.3747C33.4977 17.4218 33.5062 17.8199 33.5105 17.9719C33.5809 18.5797 33.5062 18.9586 33.2756 19.2112C33.075 19.4295 32.7654 19.5365 32.3278 19.5365C32.2936 19.5365 32.2595 19.5365 32.2232 19.5344H32.221C32.0118 19.5237 31.73 19.5087 31.619 19.2989C31.5251 19.1213 31.619 18.9329 31.6959 18.8045C31.92 18.4342 32.1228 18.0468 32.3086 17.6829ZM30.1076 15.2535C30.0222 15.262 29.9368 15.2663 29.8535 15.2663C29.1981 15.2663 28.6068 14.9902 28.2375 14.4979C27.6803 13.7573 27.1145 12.9332 26.8626 11.7025L26.7495 11.1481L27.1999 11.4884C28.4275 12.4174 29.8023 13.2885 31.5315 13.3849C31.6574 13.3913 31.8346 13.4191 31.9222 13.5647C32.0225 13.7295 31.9371 13.9157 31.8795 14.0377C31.5742 14.7034 30.8953 15.17 30.1076 15.2535ZM34.3857 6.78798C34.3708 6.93567 34.3537 7.08765 34.3537 7.24176V7.2653C34.3324 7.46865 34.3153 7.67413 34.2982 7.88603C34.2278 8.71225 34.1552 9.56843 33.8947 10.4053C33.5211 11.6061 32.8636 12.1734 31.8047 12.1734C31.555 12.1734 31.2817 12.1413 30.985 12.0792C30.321 11.9401 29.7297 11.6425 29.1554 11.3536L29.0487 11.3001C28.0325 10.7928 27.6098 9.94515 27.7934 8.78288C27.8745 8.26704 27.945 7.74905 28.0154 7.2332C28.0304 7.11333 28.0795 6.74731 28.3591 6.63815C28.6473 6.52899 28.9377 6.77942 29.0337 6.86076C29.0935 6.90999 29.1512 6.9635 29.2067 7.01701C29.2643 7.07266 29.3219 7.12617 29.3839 7.1754C29.5909 7.3445 29.8023 7.40657 29.9837 7.36376C30.1673 7.31881 30.321 7.1647 30.4278 6.91855C30.4513 6.86504 30.4662 6.80725 30.4812 6.75159C30.4961 6.7045 30.5089 6.65527 30.526 6.60818C31.0447 5.17194 31.4632 4.94505 32.9042 5.35816C32.9383 5.36672 32.9682 5.37956 33.0002 5.39241C33.0259 5.40097 33.0515 5.41381 33.0792 5.41809C33.1817 5.43736 33.3013 5.44378 33.4187 5.45234C33.7325 5.47374 34.0591 5.49515 34.2299 5.71347C34.4669 6.01956 34.4263 6.41126 34.3857 6.78798ZM27.0548 3.33115C27.6611 2.51349 28.6473 2.00835 29.8322 1.90561C30.6989 1.82855 31.6062 1.87992 32.5989 2.05544C33.3931 2.19671 33.9823 2.87309 34.0997 3.7785C34.1168 3.90907 34.1232 4.09529 33.9908 4.21516C33.8478 4.34358 33.6471 4.29863 33.5425 4.27295C33.2756 4.20873 33.0088 4.14238 32.7441 4.07174C31.4803 3.72713 30.6092 4.04392 29.9154 5.09916C29.6827 5.45876 29.4479 5.63642 28.9313 5.46946C28.088 5.20191 27.4348 5.52083 26.8861 6.48832L26.6086 6.97848L26.4933 6.42624C26.2478 5.25114 26.4485 4.15094 27.0548 3.33115ZM14.2245 15.0501C14.0046 15.459 13.4432 15.6281 12.9031 15.7886C12.7002 15.8507 12.4996 15.9106 12.3202 15.9834L11.7054 16.2338C10.2495 16.8267 8.79352 17.4196 7.33117 17.9933C6.62668 18.2672 6.21893 18.6675 6.01399 19.2904C5.63826 20.4312 4.65838 20.7973 3.68703 21.0734C3.20883 21.2104 2.85232 21.2917 2.57693 21.2917C1.96637 21.2917 1.74435 20.8957 1.41772 19.8383C1.3366 19.5751 1.28323 19.3054 1.23413 19.0464C1.21064 18.9286 1.18716 18.8088 1.16154 18.691L1.15514 18.6654V18.6375C1.17435 18.0639 1.41986 17.6379 1.88525 17.3747C2.14996 17.2248 2.42322 17.0707 2.72423 16.9765C4.39793 16.4521 5.88163 15.5724 7.59162 14.4144C9.33577 13.2329 11.0265 12.5608 12.7622 12.3617C13.2702 12.2954 13.5627 12.4859 13.6759 12.9611C13.7292 13.1858 13.853 13.4298 13.9769 13.6674C14.2138 14.1297 14.4636 14.6135 14.2245 15.0501ZM18.1291 21.0712C18.7823 20.7673 19.2093 20.2365 19.4783 19.3995C19.7793 18.4663 20.0803 17.5309 20.3173 16.602C20.4283 16.1674 20.6183 15.8763 21.1861 15.8678C21.4893 15.8635 21.7199 15.7822 21.8544 15.6388C21.9461 15.5382 21.9888 15.4054 21.9803 15.2449C21.9568 14.8618 21.6473 14.637 21.1157 14.6691C19.6939 14.7333 18.0821 14.8083 16.4874 14.9131C16.0989 14.9367 15.6634 14.8832 15.4627 14.2624C15.2727 13.6717 15.04 13.0788 14.8137 12.5051L14.7048 12.229C14.6493 12.0877 14.5853 11.8758 14.6771 11.6853C14.7454 11.5462 14.8778 11.4456 15.0848 11.3814C18.0288 10.4674 21.0794 9.5085 24.3414 9.57271C25.4579 9.58984 25.5625 9.69258 25.5711 10.7735C25.586 12.5522 26.2841 14.1683 27.7059 15.7158C28.3378 16.405 29.1725 16.6619 30.1908 16.48C30.4107 16.4393 30.6285 16.3922 30.8697 16.3408L31.6297 16.1782L31.4867 16.5463C31.1856 17.3126 30.7864 17.974 30.4 18.6119C30.257 18.8494 30.114 19.0849 29.9773 19.3246C29.845 19.5558 29.6166 19.5686 29.4799 19.5772C27.2768 19.7463 25.3469 20.0288 23.5515 20.4462C21.596 20.8979 19.7259 21.4929 17.8302 22.2656L17.5506 22.379L17.5356 22.0772C17.5143 21.5978 17.7085 21.266 18.1291 21.0712ZM24.3371 47.7884C23.987 47.8183 23.6369 47.8312 23.2889 47.8312C22.4734 47.8312 21.6622 47.767 20.8702 47.7006C20.3835 47.6621 19.8967 47.6236 19.4078 47.5979L16.8119 47.4716L16.6262 47.5486L16.0199 47.5465C15.5289 47.5401 15.0187 47.5379 14.5234 47.5594C14.2373 47.5872 13.8595 47.5251 13.7079 47.0157C13.4389 46.1145 13.3919 45.3055 13.5648 44.5477C13.6097 44.3615 13.71 43.9249 14.2565 43.9249C14.2587 43.9249 14.2629 43.9249 14.2651 43.9249C16.2419 43.9249 18.0928 43.3234 20.1337 42.5978C20.3322 42.5293 20.5372 42.4736 20.7421 42.4201C20.8702 42.3837 20.9983 42.3516 21.1242 42.3131C22.7723 41.8079 23.5857 42.5293 24.3521 43.8435C24.9648 44.8923 25.0438 46.0931 25.0395 47.127C25.0395 47.7306 24.6168 47.7648 24.3371 47.7884ZM27.8318 37.0219C27.992 37.8824 28.167 38.7428 28.3442 39.599C28.5449 40.5729 28.752 41.5811 28.9291 42.5785C29.2878 44.5905 28.6431 46.076 27.0121 46.9921C26.9288 47.0371 26.8413 47.0756 26.7367 47.1227L26.3033 47.3132L26.282 47.0071C26.2286 46.243 26.1667 45.496 25.9916 44.7725C25.6202 43.2485 24.873 42.1376 23.7095 41.3713C22.7061 40.712 22.0956 39.7146 21.8885 38.4025C21.8052 37.8674 21.9888 37.542 22.4841 37.3451C24.0191 36.7308 25.4686 36.4054 26.916 36.3519C27.296 36.3262 27.7123 36.3755 27.8318 37.0219ZM30.9636 21.0884C30.4256 22.3084 30.1801 23.5006 30.21 24.7378C30.2357 25.7438 30.3872 26.7456 30.6583 27.7152C30.7053 27.88 30.7395 28.0705 30.6477 28.2332C30.5559 28.3959 30.3723 28.4622 30.2228 28.5029C28.6537 28.9203 27.1274 29.5539 25.6501 30.166C25.2487 30.333 24.8474 30.4978 24.446 30.6605C23.5024 31.0415 22.245 31.4781 20.8723 31.491C20.6845 31.4931 20.4283 31.5316 20.2746 31.6879C20.1807 31.7885 20.1337 31.9298 20.1401 32.1138C20.1486 32.39 20.2426 32.7067 20.8958 32.7067C20.898 32.7067 20.9001 32.7067 20.9022 32.7067C22.2301 32.696 23.5622 32.3685 25.2188 31.6408C25.4665 31.5316 25.7547 31.4396 25.998 31.5552C26.2457 31.6708 26.3567 31.9512 26.425 32.1802C26.6107 32.8031 26.869 33.4238 27.121 34.0253L27.2448 34.3249C27.328 34.5261 27.4049 34.7551 27.2832 34.9457C27.1658 35.1297 26.9267 35.1618 26.7345 35.1683C24.5143 35.2539 22.482 35.8425 20.6887 36.9213C20.5713 36.9898 20.4304 37.0604 20.2874 37.0604C20.2319 37.0604 20.1764 37.0497 20.1209 37.024C19.9309 36.9341 19.8732 36.7158 19.8412 36.5189C19.4954 34.3356 18.8272 32.0453 17.7406 29.3098C17.0403 27.5504 17.098 25.7524 17.9113 23.963C18.0416 23.6804 18.2166 23.3958 18.6158 23.2416C22.4606 21.7326 26.4101 20.8979 30.3573 20.763C30.4321 20.7673 30.5153 20.7651 30.6178 20.7758L31.0874 20.808L30.9636 21.0884ZM34.5032 22.897C34.3494 23.4771 34.2192 24.1642 34.4284 24.8641C34.4775 25.0311 34.6312 25.5384 34.0057 25.7503C33.5062 25.9194 32.9661 26.1227 32.3043 26.3924C32.2488 26.4138 32.1228 26.4673 31.9819 26.4673C31.9051 26.4673 31.824 26.4523 31.7492 26.4074C31.5571 26.2939 31.5101 26.0628 31.4909 25.9001C31.2881 24.1535 31.4781 22.7836 32.0865 21.5914C32.4409 20.8979 32.8999 20.5468 33.5702 20.4526C33.8093 20.4184 34.0442 20.367 34.2875 20.3157C34.7124 20.2236 35.15 20.1273 35.673 20.0995L36.1406 20.0759L35.8524 20.4419C35.1116 21.388 34.7081 22.1222 34.5032 22.897ZM44.0501 25.9879C43.2303 26.0371 42.4105 26.0778 41.5032 26.127L40.154 26.1976C39.9021 26.2254 39.5264 26.2533 39.0823 26.2533C38.6383 26.2533 38.1281 26.2233 37.6029 26.1355C36.7469 25.99 36.1235 25.6218 35.8011 25.0717C35.4788 24.5195 35.4638 23.7939 35.7563 22.9698C35.9399 22.4497 36.2238 21.9702 36.6209 21.4993C37.5624 20.3799 38.602 20.0331 39.8957 20.4056L40.8884 20.6967C42.767 21.2467 44.7097 21.8161 46.6567 22.2164C47.6899 22.4283 48.6271 22.6166 49.5942 22.7665C49.7735 22.7943 50.0297 22.8564 50.1642 23.064C50.2944 23.2716 50.2432 23.5178 50.1791 23.734C49.923 24.5837 49.2334 24.9476 48.6591 25.1702C47.1242 25.7652 45.474 25.9044 44.0501 25.9879ZM59.3845 24.5045C58.8166 25.594 57.9179 26.3239 56.6327 26.7392C55.8193 27.0024 54.9739 27.1202 54.1542 27.2336C53.7229 27.2935 53.2917 27.3535 52.8647 27.4348C51.7931 27.6381 50.8303 28.0898 49.9486 28.5478C49.5237 28.7704 49.1736 28.8775 48.8812 28.8775C48.7253 28.8775 48.5844 28.8475 48.4606 28.7854C48.0849 28.6035 47.8522 28.1797 47.7027 27.4091C47.6494 27.1159 47.643 26.7135 48.2215 26.5872C48.9153 26.4352 49.5515 26.1505 50.1172 25.7396C50.8986 25.1659 51.3255 24.5045 51.4216 23.7126C51.4451 23.5285 51.4963 23.2973 51.682 23.1689C51.8165 23.079 51.9831 23.0597 52.1965 23.1089C53.3771 23.2759 54.5875 23.3294 55.7617 23.3808C56.6114 23.4193 57.4909 23.4578 58.3555 23.5392C58.4665 23.5499 58.5775 23.5734 58.6843 23.597C58.7761 23.6184 58.8657 23.6376 58.9597 23.6462C59.0514 23.6548 59.3396 23.6847 59.4571 23.9052C59.5659 24.1085 59.4677 24.344 59.3845 24.5045Z" fill="#D3AF37"/>
<path d="M57.9157 7.0957C57.905 7.0957 57.8922 7.0957 57.8815 7.0957C56.2398 7.10426 54.6878 7.76567 53.5051 8.9579C52.3203 10.1501 51.6777 11.7084 51.6841 13.3415C51.7055 16.8583 54.5277 19.7137 57.9818 19.7137C57.9861 19.7137 57.9904 19.7137 57.9968 19.7137C59.6726 19.7094 61.2609 19.0352 62.4714 17.813C63.6647 16.6079 64.3137 15.0453 64.3052 13.4058C64.2881 9.86117 61.483 7.0957 57.9157 7.0957ZM62.5183 13.1981C62.5077 13.2024 62.4842 13.2195 62.4692 13.2302C60.8105 14.3818 60.8105 14.3818 60.5607 16.2997L60.5543 16.3617C60.5201 16.6164 60.5693 16.6293 60.8361 16.6956C60.9706 16.7299 61.1286 16.7706 61.2716 16.869L61.4851 17.0146L61.3015 17.1965C60.6397 17.8558 59.8285 18.2517 58.7397 18.4487C58.6991 18.4551 58.6308 18.4679 58.5518 18.4679C58.4408 18.4679 58.3149 18.4422 58.2252 18.3395C58.1292 18.2282 58.1142 18.0698 58.1804 17.8665C58.2466 17.6695 58.2231 17.5304 57.9007 17.3656C57.762 17.295 57.6253 17.2222 57.5079 17.113C56.686 16.3682 55.7744 16.1926 54.7284 16.5865C54.216 16.7813 53.9321 16.5051 53.7485 16.2376C52.6213 14.6023 52.5957 12.3569 53.6866 10.6531C54.8287 8.87228 56.8781 7.97115 58.8956 8.35215C60.8233 8.71389 62.5205 10.3449 62.9346 12.2264C62.9795 12.4276 63.0947 12.9541 62.5183 13.1981Z" fill="#D3AF37"/>
<path d="M58.8014 10.6863C58.7822 10.4829 58.7309 10.3973 58.4705 10.3288C57.702 10.119 57.2045 9.98633 56.831 9.98633C56.1628 9.98633 55.8938 10.4187 55.138 11.6323L55.0911 11.7137C55.0441 11.7907 54.9971 11.8678 54.9438 11.9384C54.8264 12.0861 54.8157 12.1782 54.9886 12.3922C56.404 14.1559 56.404 14.1538 58.4406 13.2569L58.5089 13.2206C58.5687 13.1884 58.6391 13.1542 58.716 13.1328C59.1109 13.0236 59.049 12.7946 59.0277 12.7197L59.0213 12.6876L58.9402 11.9705C58.8889 11.5253 58.8398 11.1058 58.8014 10.6863Z" fill="#D3AF37"/>
</svg>
