<svg width="65" height="56" viewBox="0 0 65 56" fill="none" xmlns="http://www.w3.org/2000/svg">
<path d="M60.0356 22.7116C59.4763 22.4654 58.8316 22.3284 58.0545 22.2963C53.7763 22.1079 50.2005 21.8061 46.6524 20.9564C46.0333 20.8087 45.7387 20.7381 45.6149 20.4898C45.4889 20.2393 45.6085 19.9589 45.8689 19.351C46.6844 17.446 46.4411 16.4721 44.8335 15.1707C43.764 14.3081 42.4639 13.6467 40.8542 13.1523L40.756 13.1223C40.2778 12.9768 39.7847 12.8248 39.4517 12.2875C39.3044 12.0499 38.95 11.9665 38.6362 11.8937L37.7267 11.6797C37.0585 11.5213 36.3882 11.365 35.7157 11.2173C35.5535 11.1809 35.3336 11.1338 35.2183 10.9519C35.1116 10.7828 35.1415 10.573 35.1735 10.4296C35.4958 9.01693 35.5748 7.56998 35.6047 6.46551C35.6474 5.01642 35.4873 3.86699 35.1009 2.84814C34.6739 1.72226 33.9695 1.07798 32.949 0.87892C31.7172 0.64347 30.6242 0.583537 29.6208 0.703403C27.0505 1.01163 25.4814 2.5763 25.2039 5.1106C25.1206 5.87046 25.1975 6.68597 25.4473 7.677C25.4942 7.86964 25.5348 8.08797 25.4046 8.24636C25.2786 8.39834 25.0694 8.41118 24.8687 8.39619C24.2197 8.36195 23.5643 8.36195 22.9175 8.40476C19.8839 8.60168 17.004 9.51565 14.2224 10.3997C13.9406 10.4874 13.7548 10.6009 13.6396 10.7528C13.3983 11.0782 13.0696 11.1488 12.7814 11.1745C10.8536 11.3436 9.04543 12.0136 7.25432 13.2251C5.78556 14.2182 4.05209 15.327 2.09019 15.9434C1.76356 16.0462 1.44547 16.241 1.17222 16.4143C0.410086 16.9024 0.0279531 17.568 0.00233529 18.4542C-0.0339566 19.6807 0.352446 20.8472 1.18289 22.0202C1.51165 22.4825 1.98985 22.6666 2.59828 22.5553C3.6358 22.3755 4.40433 22.1508 5.08961 21.8297C6.16983 21.3245 6.8423 20.6332 7.14758 19.7192C7.28848 19.2954 7.60656 19.167 7.89049 19.0557C8.49465 18.8138 9.08172 18.5912 9.66666 18.3664C10.9689 17.872 12.316 17.3604 13.5862 16.7547C14.7774 16.1874 16.0113 16.1382 17.2047 16.0911C17.7598 16.0697 18.334 16.0462 18.8976 15.9713L19.2008 15.9306L19.1346 16.2303C18.8891 17.3305 18.5987 18.3044 18.2422 19.2119C18.0992 19.5779 17.8601 19.8391 17.5143 20.0103C16.2291 20.6439 16.0007 22.2428 16.4383 23.4243C16.56 23.7475 16.5643 24.0044 16.4533 24.3319C15.8299 26.2176 15.879 28.0584 16.607 29.8029C17.6488 32.3072 18.3981 35.0299 18.8934 38.1292C18.9553 38.5188 19.0748 38.7607 19.2477 38.8484C19.4164 38.9319 19.6726 38.8891 20.012 38.7114C20.1721 38.6301 20.36 38.5616 20.5329 38.6387C20.7015 38.7243 20.7549 38.9126 20.7827 39.0668C20.8638 39.5441 21.0218 39.9957 21.2566 40.411C21.2929 40.4752 21.406 40.6785 21.3249 40.8712C21.2438 41.0638 21.0175 41.1195 20.9236 41.143C20.2127 41.3207 19.4975 41.5497 18.8058 41.7723C17.2325 42.2774 15.5929 42.819 13.8573 42.7655C13.4432 42.759 13.0866 42.7548 12.6874 42.4637C12.1174 42.0484 11.462 41.8408 10.8067 41.8408C10.1555 41.8408 9.50442 42.0441 8.93229 42.4508C8.69532 42.6221 8.45836 42.6691 8.22993 42.712C7.98229 42.7633 7.7987 42.9067 7.72825 43.1037C7.66207 43.2877 7.7069 43.4868 7.8542 43.6666C8.11465 43.9877 8.16802 44.3045 8.16802 44.679C8.16802 45.501 8.07409 46.2073 7.87769 46.8366C7.70477 47.3867 7.52544 47.9368 7.34612 48.4848C7.15825 49.0627 6.97039 49.6385 6.78893 50.2185C6.7014 50.4946 6.60533 50.8072 6.19118 51.0105C6.01399 51.0961 5.90511 51.2203 5.86882 51.3701C5.82612 51.5456 5.88803 51.7511 6.04174 51.9502C6.49005 52.5366 6.4623 53.32 5.97556 53.8958C5.81972 54.082 5.75994 54.2939 5.80904 54.478C5.85601 54.6578 6.00118 54.797 6.21466 54.8762C6.45376 54.9639 6.66511 55.056 6.85511 55.3C7.29061 55.8586 7.78162 55.9935 8.49678 55.7559C9.28026 55.4905 9.93779 54.9768 10.5676 54.1356C11.1013 53.4228 11.4962 52.603 11.8762 51.811L12.0641 51.4215C12.4206 50.6958 12.7536 50.1094 13.2275 49.5914C13.7463 49.0263 14.3227 48.7545 15.04 48.7373C16.8717 48.686 18.7525 48.7545 20.7891 48.9235C22.3731 49.0584 24.0148 49.1932 25.6202 48.8551C28.8117 48.1851 30.558 45.8113 30.178 42.6584C30.0883 41.9264 29.9304 41.1858 29.7767 40.4666L29.6614 39.9272C29.5248 39.2573 29.4031 38.5852 29.2835 37.9131C28.8993 35.7576 28.5022 33.5294 27.4689 31.5259C27.3963 31.3847 27.3067 31.1706 27.3878 30.963C27.4689 30.7532 27.676 30.6505 27.8703 30.5799C29.038 30.1475 30.2698 29.7579 31.5272 29.424C31.9029 29.3256 32.1122 29.21 32.189 29.0666C32.2616 28.9296 32.2402 28.7091 32.1228 28.3795C32.0695 28.2318 32.0268 28.0584 32.1015 27.9C32.1783 27.7438 32.3342 27.6753 32.4922 27.6218C33.2543 27.367 33.8883 27.1509 34.5096 26.864C34.9493 26.6628 35.466 26.4809 36.0829 26.909C36.4458 27.1616 36.9134 27.3028 37.5965 27.3692C39.5883 27.5661 41.6206 27.4013 43.5847 27.2429C44.1419 27.1979 44.6969 27.153 45.252 27.1166C45.9757 27.0631 46.456 27.108 46.6802 28.0541C47.0217 29.4989 47.7924 30.1967 49.052 30.1261C49.0626 30.1261 49.0712 30.1261 49.0818 30.1261C49.3337 30.1261 49.4811 30.2674 49.5878 30.3701C49.6198 30.4022 49.6518 30.4343 49.6903 30.46C49.9059 30.612 50.1514 30.6484 50.3542 30.5563C50.5228 30.4814 50.6274 30.3209 50.6509 30.109C50.7128 29.5717 51.0074 29.3791 51.3191 29.2506L51.5625 29.1479C51.776 29.058 51.9959 28.9638 52.2286 28.8953C53.0334 28.6556 53.8681 28.5272 54.6751 28.403C55.3497 28.3003 56.0499 28.1911 56.7181 28.0199C56.9551 27.9578 57.128 28.052 57.2646 28.1269C57.54 28.2725 57.7172 28.3088 57.8602 28.2639C58.0246 28.2104 58.174 28.0349 58.3342 27.7074C58.7419 26.864 59.3973 26.3482 60.2256 26.2112C60.4925 26.1684 60.7017 26.0442 60.7977 25.8751C60.8725 25.7382 60.8746 25.5712 60.802 25.3935C60.6291 24.9676 60.7017 24.623 60.7977 24.2784C61.0005 23.5206 60.7678 23.039 60.0356 22.7116ZM12.4078 48.6603C11.6905 49.388 11.2422 50.302 10.8109 51.1839L10.6337 51.5477C10.2473 52.3526 9.84812 53.1852 9.18846 53.853L9.07532 53.9707C8.84689 54.2126 8.54802 54.5315 8.19364 54.5315C8.11892 54.5315 8.0442 54.5166 7.96521 54.4866C7.57881 54.3346 7.56173 53.8466 7.54679 53.4549C7.54465 53.3843 7.54252 53.3158 7.53825 53.2494C7.53184 53.1638 7.53398 53.0803 7.53611 52.9968V52.892C7.52544 51.8239 7.82431 50.8093 8.12105 49.9595L8.20004 49.7326C8.84049 47.8897 9.44678 46.1495 9.38273 44.2081C9.36992 43.8228 9.5279 43.4932 9.82464 43.277C10.2367 42.9795 10.8558 42.9431 11.4834 43.1764C12.0235 43.3798 12.5465 43.703 12.3288 44.5827C12.1025 45.4988 12.1964 46.4877 12.6213 47.6007C12.7899 48.0395 12.7301 48.3371 12.4078 48.6603ZM38.7088 16.4379C39.7271 16.881 40.8244 17.0436 41.9558 17.1828C42.2333 17.2149 42.4468 17.1828 42.5792 17.0779C42.6838 16.9944 42.7457 16.8638 42.767 16.6776C42.7905 16.4807 42.7585 16.3244 42.6731 16.2196C42.5706 16.0911 42.3849 16.0141 42.1202 15.9884C41.3111 15.9092 40.5746 15.7701 39.8744 15.5624C39.6865 15.5089 39.4752 15.4447 39.3769 15.2499C39.3108 15.1194 39.3108 14.9674 39.3769 14.7833C39.4752 14.5115 39.6353 14.0513 40.2544 14.2375C42.0028 14.7512 43.4096 15.5153 44.5539 16.5684C45.1217 17.0929 45.2477 17.7157 44.9403 18.4713C44.4578 19.6635 44.2379 20.0959 43.6146 20.0959C43.2943 20.0959 42.8674 19.9825 42.244 19.8005C40.2437 19.2183 37.9125 18.6126 35.4873 18.8737C35.2354 18.8994 35.0454 18.8545 34.9216 18.7367C34.7423 18.5676 34.7529 18.3236 34.7615 18.1267C34.7636 18.0496 34.7679 17.9319 34.7508 17.8998L34.7252 17.7992C34.723 16.7504 34.8575 16.5941 35.8374 16.5064C36.1918 16.4743 36.5462 16.4464 36.9006 16.4208C37.272 16.3929 37.6413 16.3651 38.0107 16.3309C38.254 16.3095 38.4825 16.3394 38.7088 16.4379ZM35.0774 12.3175C35.4617 12.4053 35.8438 12.4952 36.2281 12.5829C36.8152 12.7199 37.4044 12.8569 37.9957 12.9853C38.1708 13.0239 38.3437 13.0795 38.4398 13.2379C38.538 13.4027 38.5017 13.6018 38.4568 13.758C38.0939 15.053 38.0107 15.1194 36.6764 15.2007C36.1363 15.2349 35.594 15.2799 35.0539 15.3334C34.7124 15.3655 34.4135 15.4832 34.1637 15.6802C33.7389 16.0162 33.5339 16.1639 33.2436 16.1639C33.0259 16.1639 32.759 16.0804 32.315 15.9349L31.999 15.8321L32.2253 15.5881C32.8593 14.901 33.2436 14.1797 33.4315 13.3214C33.4998 13.0089 33.7069 12.7285 34.0164 12.5316C34.343 12.3175 34.7423 12.2426 35.0774 12.3175ZM32.3086 17.6836C32.4943 17.324 32.8167 17.3583 33.0301 17.3754C33.4977 17.4225 33.5062 17.8206 33.5105 17.9726C33.5809 18.5805 33.5062 18.9593 33.2756 19.2119C33.075 19.4302 32.7654 19.5373 32.3278 19.5373C32.2936 19.5373 32.2595 19.5373 32.2232 19.5351H32.221C32.0118 19.5244 31.73 19.5094 31.619 19.2997C31.5251 19.122 31.619 18.9336 31.6959 18.8052C31.92 18.4349 32.1228 18.0475 32.3086 17.6836ZM30.1076 15.2542C30.0222 15.2628 29.9368 15.2671 29.8535 15.2671C29.1981 15.2671 28.6068 14.9909 28.2375 14.4986C27.6803 13.758 27.1145 12.934 26.8626 11.7032L26.7495 11.1488L27.1999 11.4892C28.4275 12.4181 29.8023 13.2893 31.5315 13.3856C31.6574 13.392 31.8346 13.4198 31.9222 13.5654C32.0225 13.7302 31.9371 13.9164 31.8795 14.0384C31.5742 14.7041 30.8953 15.1707 30.1076 15.2542ZM34.3857 6.78871C34.3708 6.93641 34.3537 7.08838 34.3537 7.24249V7.26604C34.3324 7.46938 34.3153 7.67486 34.2982 7.88677C34.2278 8.71298 34.1552 9.56916 33.8947 10.4061C33.5211 11.6069 32.8636 12.1741 31.8047 12.1741C31.555 12.1741 31.2817 12.142 30.985 12.0799C30.321 11.9408 29.7297 11.6433 29.1554 11.3543L29.0487 11.3008C28.0325 10.7935 27.6098 9.94588 27.7934 8.78362C27.8745 8.26777 27.945 7.74978 28.0154 7.23393C28.0304 7.11406 28.0795 6.74805 28.3591 6.63888C28.6473 6.52972 28.9377 6.78015 29.0337 6.86149C29.0935 6.91072 29.1512 6.96423 29.2067 7.01774C29.2643 7.07339 29.3219 7.12691 29.3839 7.17614C29.5909 7.34523 29.8023 7.40731 29.9837 7.3645C30.1673 7.31955 30.321 7.16543 30.4278 6.91928C30.4513 6.86577 30.4662 6.80798 30.4812 6.75233C30.4961 6.70524 30.5089 6.65601 30.526 6.60892C31.0447 5.17267 31.4632 4.94578 32.9042 5.35889C32.9383 5.36745 32.9682 5.3803 33.0002 5.39314C33.0259 5.4017 33.0515 5.41454 33.0792 5.41882C33.1817 5.43809 33.3013 5.44451 33.4187 5.45307C33.7325 5.47447 34.0591 5.49588 34.2299 5.71421C34.4669 6.02029 34.4263 6.41199 34.3857 6.78871ZM27.0548 3.33188C27.6611 2.51423 28.6473 2.00908 29.8322 1.90634C30.6989 1.82928 31.6062 1.88065 32.5989 2.05617C33.3931 2.19744 33.9823 2.87382 34.0997 3.77924C34.1168 3.9098 34.1232 4.09602 33.9908 4.21589C33.8478 4.34432 33.6471 4.29937 33.5425 4.27368C33.2756 4.20947 33.0088 4.14311 32.7441 4.07248C31.4803 3.72786 30.6092 4.04465 29.9154 5.0999C29.6827 5.45949 29.4479 5.63715 28.9313 5.47019C28.088 5.20264 27.4348 5.52156 26.8861 6.48905L26.6086 6.97921L26.4933 6.42698C26.2478 5.25187 26.4485 4.15167 27.0548 3.33188ZM14.2245 15.0509C14.0046 15.4597 13.4432 15.6288 12.9031 15.7893C12.7002 15.8514 12.4996 15.9113 12.3202 15.9841L11.7054 16.2345C10.2495 16.8274 8.79352 17.4203 7.33117 17.994C6.62668 18.268 6.21893 18.6682 6.01399 19.2911C5.63826 20.432 4.65838 20.798 3.68703 21.0741C3.20883 21.2111 2.85232 21.2924 2.57693 21.2924C1.96637 21.2924 1.74435 20.8964 1.41772 19.8391C1.3366 19.5758 1.28323 19.3061 1.23413 19.0471C1.21064 18.9294 1.18716 18.8095 1.16154 18.6918L1.15514 18.6661V18.6383C1.17435 18.0646 1.41986 17.6387 1.88525 17.3754C2.14996 17.2256 2.42322 17.0715 2.72423 16.9773C4.39793 16.4529 5.88163 15.5731 7.59162 14.4152C9.33577 13.2336 11.0265 12.5615 12.7622 12.3625C13.2702 12.2961 13.5627 12.4866 13.6759 12.9618C13.7292 13.1865 13.853 13.4305 13.9769 13.6681C14.2138 14.1305 14.4636 14.6142 14.2245 15.0509ZM18.1291 21.072C18.7823 20.768 19.2093 20.2372 19.4783 19.4003C19.7793 18.467 20.0803 17.5317 20.3173 16.6027C20.4283 16.1682 20.6183 15.8771 21.1861 15.8685C21.4893 15.8642 21.7199 15.7829 21.8544 15.6395C21.9461 15.5389 21.9888 15.4062 21.9803 15.2456C21.9568 14.8625 21.6473 14.6378 21.1157 14.6699C19.6939 14.7341 18.0821 14.809 16.4874 14.9139C16.0989 14.9374 15.6634 14.8839 15.4627 14.2632C15.2727 13.6724 15.04 13.0795 14.8137 12.5059L14.7048 12.2297C14.6493 12.0885 14.5853 11.8766 14.6771 11.6861C14.7454 11.5469 14.8778 11.4463 15.0848 11.3821C18.0288 10.4682 21.0794 9.50923 24.3414 9.57344C25.4579 9.59057 25.5625 9.69331 25.5711 10.7742C25.586 12.553 26.2841 14.169 27.7059 15.7165C28.3378 16.4058 29.1725 16.6626 30.1908 16.4807C30.4107 16.44 30.6285 16.3929 30.8697 16.3416L31.6297 16.1789L31.4867 16.547C31.1856 17.3133 30.7864 17.9747 30.4 18.6126C30.257 18.8502 30.114 19.0856 29.9773 19.3254C29.845 19.5565 29.6166 19.5694 29.4799 19.5779C27.2768 19.747 25.3469 20.0296 23.5515 20.447C21.596 20.8986 19.7259 21.4936 17.8302 22.2663L17.5506 22.3798L17.5356 22.078C17.5143 21.5985 17.7085 21.2667 18.1291 21.072ZM24.3371 47.7891C23.987 47.8191 23.6369 47.8319 23.2889 47.8319C22.4734 47.8319 21.6622 47.7677 20.8702 47.7014C20.3835 47.6628 19.8967 47.6243 19.4078 47.5986L16.8119 47.4723L16.6262 47.5494L16.0199 47.5472C15.5289 47.5408 15.0187 47.5387 14.5234 47.5601C14.2373 47.5879 13.8595 47.5258 13.7079 47.0164C13.4389 46.1153 13.3919 45.3062 13.5648 44.5485C13.6097 44.3622 13.71 43.9256 14.2565 43.9256C14.2587 43.9256 14.2629 43.9256 14.2651 43.9256C16.2419 43.9256 18.0928 43.3241 20.1337 42.5985C20.3322 42.53 20.5372 42.4744 20.7421 42.4209C20.8702 42.3845 20.9983 42.3524 21.1242 42.3138C22.7723 41.8087 23.5857 42.53 24.3521 43.8443C24.9648 44.8931 25.0438 46.0939 25.0395 47.1277C25.0395 47.7313 24.6168 47.7656 24.3371 47.7891ZM27.8318 37.0226C27.992 37.8831 28.167 38.7436 28.3442 39.5997C28.5449 40.5736 28.752 41.5818 28.9291 42.5792C29.2878 44.5913 28.6431 46.0767 27.0121 46.9929C26.9288 47.0378 26.8413 47.0763 26.7367 47.1234L26.3033 47.3139L26.282 47.0078C26.2286 46.2437 26.1667 45.4967 25.9916 44.7732C25.6202 43.2492 24.873 42.1383 23.7095 41.372C22.7061 40.7128 22.0956 39.7153 21.8885 38.4032C21.8052 37.8681 21.9888 37.5428 22.4841 37.3458C24.0191 36.7315 25.4686 36.4062 26.916 36.3527C27.296 36.327 27.7123 36.3762 27.8318 37.0226ZM30.9636 21.0891C30.4256 22.3091 30.1801 23.5014 30.21 24.7386C30.2357 25.7446 30.3872 26.7463 30.6583 27.7159C30.7053 27.8807 30.7395 28.0712 30.6477 28.2339C30.5559 28.3966 30.3723 28.4629 30.2228 28.5036C28.6537 28.921 27.1274 29.5546 25.6501 30.1668C25.2487 30.3337 24.8474 30.4985 24.446 30.6612C23.5024 31.0422 22.245 31.4788 20.8723 31.4917C20.6845 31.4938 20.4283 31.5324 20.2746 31.6886C20.1807 31.7892 20.1337 31.9305 20.1401 32.1146C20.1486 32.3907 20.2426 32.7075 20.8958 32.7075C20.898 32.7075 20.9001 32.7075 20.9022 32.7075C22.2301 32.6968 23.5622 32.3693 25.2188 31.6415C25.4665 31.5324 25.7547 31.4403 25.998 31.5559C26.2457 31.6715 26.3567 31.9519 26.425 32.1809C26.6107 32.8038 26.869 33.4245 27.121 34.026L27.2448 34.3257C27.328 34.5269 27.4049 34.7559 27.2832 34.9464C27.1658 35.1305 26.9267 35.1626 26.7345 35.169C24.5143 35.2546 22.482 35.8432 20.6887 36.922C20.5713 36.9905 20.4304 37.0612 20.2874 37.0612C20.2319 37.0612 20.1764 37.0505 20.1209 37.0248C19.9309 36.9349 19.8732 36.7165 19.8412 36.5196C19.4954 34.3364 18.8272 32.0461 17.7406 29.3106C17.0403 27.5511 17.098 25.7531 17.9113 23.9637C18.0416 23.6812 18.2166 23.3965 18.6158 23.2424C22.4606 21.7334 26.4101 20.8986 30.3573 20.7637C30.4321 20.768 30.5153 20.7659 30.6178 20.7766L31.0874 20.8087L30.9636 21.0891ZM34.5032 22.8978C34.3494 23.4778 34.2192 24.1649 34.4284 24.8648C34.4775 25.0318 34.6312 25.5391 34.0057 25.751C33.5062 25.9201 32.9661 26.1234 32.3043 26.3931C32.2488 26.4145 32.1228 26.468 31.9819 26.468C31.9051 26.468 31.824 26.4531 31.7492 26.4081C31.5571 26.2947 31.5101 26.0635 31.4909 25.9008C31.2881 24.1542 31.4781 22.7843 32.0865 21.5921C32.4409 20.8986 32.8999 20.5476 33.5702 20.4534C33.8093 20.4191 34.0442 20.3678 34.2875 20.3164C34.7124 20.2243 35.15 20.128 35.673 20.1002L36.1406 20.0767L35.8524 20.4427C35.1116 21.3888 34.7081 22.1229 34.5032 22.8978ZM44.0501 25.9886C43.2303 26.0378 42.4105 26.0785 41.5032 26.1277L40.154 26.1984C39.9021 26.2262 39.5264 26.254 39.0823 26.254C38.6383 26.254 38.1281 26.224 37.6029 26.1363C36.7469 25.9907 36.1235 25.6226 35.8011 25.0725C35.4788 24.5202 35.4638 23.7946 35.7563 22.9705C35.9399 22.4504 36.2238 21.971 36.6209 21.5001C37.5624 20.3806 38.602 20.0338 39.8957 20.4063L40.8884 20.6974C42.767 21.2475 44.7097 21.8168 46.6567 22.2171C47.6899 22.429 48.6271 22.6174 49.5942 22.7672C49.7735 22.795 50.0297 22.8571 50.1642 23.0647C50.2944 23.2724 50.2432 23.5185 50.1791 23.7347C49.923 24.5844 49.2334 24.9483 48.6591 25.1709C47.1242 25.766 45.474 25.9051 44.0501 25.9886ZM59.3845 24.5053C58.8166 25.5947 57.9179 26.3246 56.6327 26.7399C55.8193 27.0032 54.9739 27.1209 54.1542 27.2343C53.7229 27.2943 53.2917 27.3542 52.8647 27.4355C51.7931 27.6389 50.8303 28.0905 49.9486 28.5486C49.5237 28.7712 49.1736 28.8782 48.8812 28.8782C48.7253 28.8782 48.5844 28.8482 48.4606 28.7862C48.0849 28.6042 47.8522 28.1804 47.7027 27.4098C47.6494 27.1166 47.643 26.7142 48.2215 26.5879C48.9153 26.4359 49.5515 26.1513 50.1172 25.7403C50.8986 25.1667 51.3255 24.5053 51.4216 23.7133C51.4451 23.5292 51.4963 23.298 51.682 23.1696C51.8165 23.0797 51.9831 23.0604 52.1965 23.1097C53.3771 23.2766 54.5875 23.3301 55.7617 23.3815C56.6114 23.42 57.4909 23.4586 58.3555 23.5399C58.4665 23.5506 58.5775 23.5742 58.6843 23.5977C58.7761 23.6191 58.8657 23.6384 58.9597 23.6469C59.0514 23.6555 59.3396 23.6855 59.4571 23.9059C59.5659 24.1093 59.4677 24.3447 59.3845 24.5053Z" fill="#637FE5"/>
<path d="M57.9155 7.09692C57.9048 7.09692 57.892 7.09692 57.8814 7.09692C56.2397 7.10549 54.6877 7.76689 53.505 8.95912C52.3202 10.1514 51.6776 11.7096 51.684 13.3428C51.7053 16.8595 54.5276 19.7149 57.9817 19.7149C57.986 19.7149 57.9902 19.7149 57.9966 19.7149C59.6725 19.7106 61.2608 19.0364 62.4712 17.8142C63.6646 16.6091 64.3136 15.0466 64.305 13.407C64.288 9.86239 61.4828 7.09692 57.9155 7.09692ZM62.5182 13.1994C62.5075 13.2036 62.484 13.2208 62.4691 13.2315C60.8103 14.383 60.8103 14.383 60.5606 16.3009L60.5542 16.3629C60.52 16.6177 60.5691 16.6305 60.8359 16.6969C60.9704 16.7311 61.1284 16.7718 61.2715 16.8702L61.4849 17.0158L61.3013 17.1977C60.6395 17.857 59.8283 18.253 58.7396 18.4499C58.699 18.4563 58.6307 18.4692 58.5517 18.4692C58.4407 18.4692 58.3147 18.4435 58.2251 18.3407C58.129 18.2294 58.1141 18.071 58.1802 17.8677C58.2464 17.6708 58.2229 17.5316 57.9006 17.3668C57.7618 17.2962 57.6252 17.2234 57.5078 17.1142C56.6859 16.3694 55.7743 16.1939 54.7282 16.5877C54.2159 16.7825 53.9319 16.5064 53.7483 16.2388C52.6212 14.6035 52.5955 12.3582 53.6864 10.6544C54.8286 8.8735 56.878 7.97237 58.8954 8.35337C60.8231 8.71511 62.5203 10.3461 62.9345 12.2276C62.9793 12.4288 63.0946 12.9553 62.5182 13.1994Z" fill="#637FE5"/>
<path d="M58.8015 10.6865C58.7823 10.4832 58.731 10.3975 58.4706 10.329C57.7021 10.1193 57.2046 9.98657 56.831 9.98657C56.1628 9.98657 55.8939 10.4189 55.1381 11.6326L55.0912 11.7139C55.0442 11.791 54.9972 11.868 54.9439 11.9387C54.8264 12.0864 54.8158 12.1784 54.9887 12.3924C56.4041 14.1562 56.4041 14.154 58.4407 13.2572L58.509 13.2208C58.5688 13.1887 58.6392 13.1544 58.7161 13.133C59.111 13.0239 59.0491 12.7948 59.0278 12.7199L59.0214 12.6878L58.9402 11.9708C58.889 11.5256 58.8399 11.106 58.8015 10.6865Z" fill="#637FE5"/>
</svg>
