<svg width="50" height="48" viewBox="0 0 50 48" fill="none" xmlns="http://www.w3.org/2000/svg">
<path d="M9.45556 17.9866C12.3859 17.9866 15.3157 17.983 18.2456 17.993C18.5051 17.9939 18.6072 17.9132 18.6907 17.6693C20.2001 13.2683 21.7199 8.87102 23.2389 4.47326C23.6064 3.40848 23.9808 2.34598 24.3479 1.28119C24.4314 1.03951 24.5718 0.865312 24.8418 0.871241C25.109 0.877169 25.2321 1.04817 25.3137 1.29852C27.1145 6.79024 28.924 12.2792 30.7234 17.7719C30.7973 17.9976 30.898 18.0637 31.1301 18.0632C37.046 18.0569 42.9618 18.0582 48.8776 18.0569C49.0668 18.0569 49.2497 18.0642 49.3947 18.206C49.6241 18.4303 49.5944 18.7363 49.314 18.9392C48.2351 19.7218 47.1539 20.5011 46.0727 21.2804C42.3261 23.9813 38.58 26.6837 34.8279 29.3773C34.6387 29.5132 34.6204 29.6272 34.6893 29.8324C35.827 33.2365 36.9575 36.6429 38.0888 40.0488C38.7624 42.0758 39.4354 44.1028 40.1076 46.1302C40.1482 46.2524 40.1974 46.3723 40.1942 46.5064C40.1897 46.6906 40.1117 46.8242 39.9475 46.9086C39.7629 47.0034 39.5923 46.9761 39.4263 46.8593C38.7747 46.402 38.1212 45.9482 37.4696 45.4909C34.8717 43.6664 32.2743 41.841 29.6764 40.0165C28.1013 38.9102 26.5213 37.8098 24.9549 36.6908C24.7574 36.5499 24.6544 36.6137 24.5034 36.7204C21.823 38.6206 19.1407 40.5181 16.459 42.4155C14.4343 43.8483 12.4087 45.2802 10.3835 46.712C10.2704 46.7918 10.1555 46.8694 10.0397 46.9455C9.85092 47.07 9.65301 47.0842 9.47015 46.9469C9.28957 46.8119 9.23577 46.6327 9.31101 46.4061C9.8833 44.6814 10.4483 42.9541 11.0188 41.229C12.2878 37.3894 13.5574 33.5498 14.8333 29.712C14.9044 29.4986 14.8625 29.3905 14.6792 29.2583C9.88467 25.8109 5.09611 22.3557 0.305273 18.9037C0.0955086 18.7527 -0.0681964 18.5845 0.0284776 18.304C0.122872 18.0304 0.348142 17.9834 0.608523 17.9839C3.55845 17.988 6.50701 17.9866 9.45556 17.9866ZM24.8272 5.50612C24.7114 5.57179 24.7127 5.66663 24.6872 5.74142C23.1181 10.2783 21.5489 14.8151 19.9926 19.356C19.895 19.641 19.7673 19.7245 19.4704 19.7236C14.6121 19.7131 9.75333 19.7163 4.89501 19.7172C4.79013 19.7172 4.67932 19.6944 4.56759 19.7491C4.60909 19.849 4.68434 19.8873 4.75 19.9347C7.47511 21.8997 10.2002 23.8651 12.9258 25.8296C14.2022 26.7493 15.4767 27.6723 16.7599 28.5825C16.9615 28.7252 17.0094 28.8543 16.9163 29.0818C16.7978 29.3718 16.7152 29.6769 16.6167 29.9751C15.1935 34.278 13.7703 38.5809 12.348 42.8843C12.317 42.9773 12.2591 43.0672 12.2846 43.1743C12.3727 43.1784 12.4201 43.115 12.4784 43.0735C16.5064 40.2253 20.5348 37.378 24.5586 34.5238C24.7104 34.4162 24.803 34.4281 24.9416 34.5293C25.3671 34.8407 25.803 35.1385 26.2344 35.4418C29.4525 37.7036 32.6701 39.9658 35.8886 42.2272C36.315 42.5268 36.7432 42.8227 37.1777 43.1251C37.2306 42.9928 37.1645 42.9112 37.1372 42.8278C35.6301 38.2804 34.1216 33.7331 32.6044 29.189C32.5283 28.961 32.5547 28.8369 32.7567 28.6924C36.3597 26.1086 39.9567 23.5171 43.5546 20.927C44.0389 20.5781 44.5213 20.2266 45.0042 19.8763C44.9988 19.8554 44.9937 19.8344 44.9883 19.8134C44.8729 19.8134 44.7575 19.8134 44.6422 19.8134C39.7004 19.8134 34.7582 19.813 29.8164 19.8125C29.665 19.8125 29.5309 19.8444 29.458 19.621C28.4433 16.4941 27.4159 13.3718 26.3904 10.2486C25.8728 8.67219 25.3511 7.09531 24.8272 5.50612Z" fill="#475569"/>
</svg>
