<svg width="31" height="35" viewBox="0 0 31 35" fill="none" xmlns="http://www.w3.org/2000/svg">
<path d="M27.7118 4.0914C26.8353 3.27449 25.7969 2.5256 24.5375 1.80222C23.2072 1.0382 21.828 0.513706 20.4383 0.243476C20.1973 0.196606 19.9482 0.166534 19.7075 0.1375C19.417 0.102451 19.1169 0.0663649 18.8229 0H16.9152C16.8288 0.0597284 16.7342 0.0624245 16.6562 0.0649132C16.6372 0.0655353 16.618 0.0659501 16.5991 0.0676092C14.39 0.246172 12.2345 0.613875 10.1924 1.16035C6.90737 2.03948 4.66538 4.21127 3.52866 7.61517C3.38179 8.05504 3.24753 8.50777 3.11783 8.94578C2.86173 9.80977 2.59695 10.7032 2.21963 11.5508C1.89506 12.2804 2.05766 12.9262 2.71714 13.525C2.75955 13.5633 2.8003 13.604 2.84106 13.6446C2.90477 13.7081 2.96517 13.768 3.03095 13.8192C3.35573 14.0712 3.40972 14.3639 3.20576 14.7681C2.48691 16.1947 1.72937 17.4307 0.889501 18.5469L0.809036 18.6537C0.623272 18.8997 0.431091 19.1542 0.266221 19.4169C-0.191154 20.1471 -0.0573191 20.7954 0.653257 21.2915C0.891357 21.4578 1.15304 21.6036 1.40583 21.7449L1.60008 21.8538C2.19253 22.1893 2.279 22.4763 1.97077 23.083C1.93085 23.1614 1.88927 23.2387 1.84748 23.3161C1.71778 23.5562 1.59532 23.7831 1.5283 24.0386C1.46189 24.291 1.51671 24.5009 1.69544 24.6803C1.79949 24.7848 1.91286 24.8924 2.03635 24.9706C2.3121 25.145 2.27735 25.3589 2.20702 25.5447C2.01505 26.0515 2.12034 26.3626 2.58248 26.6546L2.78231 26.7795C3.42524 27.1826 3.47488 27.3006 3.31539 28.0429C3.19665 28.595 3.19003 29.106 3.29553 29.6054C3.45067 30.3393 3.79427 30.8908 4.2895 31.2002C4.78515 31.5101 5.43077 31.5766 6.15707 31.3929C7.44335 31.0677 8.81506 30.6969 10.1338 30.1927C10.2945 30.1313 10.4354 30.105 10.5608 30.105C10.8876 30.105 11.1088 30.2846 11.2983 30.4914L11.3671 30.5666C12.2676 31.565 12.7235 32.7867 13.0508 33.8502C13.2084 34.3625 13.2728 34.4096 13.8141 34.4096L27.9417 34.4102C27.9956 34.4108 28.0498 34.4114 28.1038 34.4077C28.2894 34.3944 28.4354 34.3169 28.5149 34.1897C28.596 34.0603 28.6018 33.8911 28.5312 33.7127C28.415 33.4185 28.2532 33.1306 28.0505 32.8571C27.6566 32.3261 27.3401 31.7243 27.0832 31.0175C26.608 29.7101 26.3089 28.3254 26.1682 26.7838C25.9911 24.8418 26.325 23.0388 27.1603 21.4247C27.6169 20.5424 28.2164 19.7448 28.7962 18.9733L28.9191 18.8095C30.1371 17.1858 30.7867 15.569 30.905 13.8667C31.015 12.2825 30.8764 10.6702 30.4811 8.93728C30.0465 7.02887 29.1146 5.39837 27.7118 4.0914ZM29.9526 13.7498C29.8582 15.0599 29.4263 16.3183 28.6688 17.4901C28.3854 17.9287 28.0705 18.3536 27.766 18.7647C27.3734 19.2946 26.9675 19.8427 26.6285 20.4211C25.5085 22.332 25.0311 24.4227 25.2094 26.6355C25.3817 28.77 25.8232 30.604 26.559 32.2428C26.7133 32.586 26.9235 32.906 27.1672 33.2764L27.2946 33.4703L24.3195 33.4701C21.056 33.4695 17.6816 33.4691 14.3627 33.4774C14.3617 33.4774 14.3605 33.4774 14.3592 33.4774C14.0396 33.4774 13.8861 33.3647 13.7938 33.0632C13.4471 31.9308 12.8841 30.9076 12.1201 30.0212C12.0113 29.8951 11.9449 29.7889 11.9737 29.6805C12.0047 29.5641 12.124 29.5139 12.2893 29.4559C12.5036 29.3806 12.7194 29.3088 12.9352 29.2368C13.7636 28.9608 14.6203 28.6754 15.3728 28.1941C16.3331 27.5798 16.7979 26.9265 16.8796 26.0758C16.9146 25.7123 16.7675 25.4632 16.4955 25.4256C16.3459 25.4049 16.2243 25.4298 16.1347 25.4993C16.0319 25.5789 15.9682 25.7178 15.9454 25.9122C15.8323 26.8738 15.1378 27.2855 14.3747 27.6553C13.5841 28.0383 12.7409 28.3158 11.9257 28.5844C11.5444 28.7099 11.1501 28.8395 10.7674 28.9782C8.96482 29.6311 7.32068 30.1324 5.74107 30.5104C5.06235 30.6726 4.51416 30.3613 4.31267 29.6977C4.14925 29.1593 4.13208 28.6725 4.26034 28.2103C4.52781 27.2471 4.20159 26.4489 3.36503 26.0206C3.29366 25.9841 3.20823 25.93 3.1801 25.8348C3.15176 25.7388 3.19541 25.6436 3.24154 25.5631C3.55163 25.0239 3.53281 24.9287 3.0382 24.5446C2.5289 24.1494 2.5169 24.0911 2.82285 23.5071C2.99868 23.1715 3.08412 22.8277 3.08412 22.4562C3.08391 21.9398 2.88428 21.5576 2.47345 21.2876C2.28231 21.1619 2.07959 21.0443 1.88328 20.9305C1.69751 20.8226 1.50554 20.711 1.32122 20.5918C1.11498 20.4584 0.987348 20.3695 0.962731 20.2332C0.938321 20.0974 1.02396 19.9738 1.17766 19.7672C2.00408 18.6556 2.79927 17.5581 3.44324 16.3529C3.69003 15.8915 3.91115 15.4738 4.1176 15.0372C4.44052 14.3549 4.3071 13.6747 3.75146 13.1705L3.66747 13.0944C2.87395 12.3758 2.86194 12.3323 3.23574 11.5392C3.2736 11.4587 3.31559 11.3698 3.36131 11.27C3.66622 10.6037 3.8613 9.8892 4.04996 9.19838C4.1625 8.78609 4.27896 8.3597 4.41777 7.94595C5.44857 4.87699 7.42142 2.92068 10.2813 2.13197C12.9074 1.40777 15.3795 1.02637 17.8389 0.966024C20.0159 0.912517 22.1575 1.5013 24.2055 2.71495C25.6062 3.54534 26.5925 4.28489 27.403 5.11279C28.6452 6.3814 29.4071 7.97727 29.7323 9.99124C29.9642 11.4255 30.0341 12.6199 29.9526 13.7498Z" fill="#212121"/>
<path d="M27.3965 9.33709C27.0755 9.32901 26.7859 9.32382 26.4944 9.33917C26.2035 9.35472 26.1111 9.18902 26.055 9.02497C25.9661 8.76573 25.8519 8.49343 25.6953 8.16803C25.604 7.97786 25.6301 7.83662 25.7822 7.6956C25.9766 7.51579 26.1795 7.31255 26.4214 7.05601C26.657 6.80569 26.6729 6.61219 26.4797 6.34176C25.9443 5.59308 25.3064 4.95266 24.5838 4.43833C24.3169 4.24815 24.1022 4.2608 23.8666 4.48043C23.6289 4.70151 23.4285 4.90288 23.2541 5.09596C23.1413 5.22123 22.9787 5.34628 22.7183 5.19738C22.4581 5.04826 22.1846 4.93503 21.906 4.86016C21.613 4.78177 21.5872 4.56649 21.5932 4.41116C21.6037 4.13595 21.6023 3.84021 21.5892 3.50694C21.5777 3.21908 21.4266 3.04383 21.1523 2.99987C20.2403 2.85407 19.315 2.85428 18.4015 3.00008C18.1354 3.0428 17.9861 3.20747 17.9691 3.47666L17.9683 3.49159C17.9528 3.73818 17.9367 3.99327 17.9617 4.2355C18.0024 4.62954 17.8448 4.85228 17.4797 4.91615C17.3636 4.93669 17.2435 5.00782 17.1274 5.07647C16.9319 5.1924 16.7302 5.31227 16.5043 5.22911C16.277 5.14532 16.1051 4.94394 15.939 4.749C15.8697 4.6677 15.8043 4.59097 15.7352 4.52253C15.6245 4.41282 15.4963 4.30332 15.3535 4.3085L15.3494 4.30871C15.1912 4.31037 15.1039 4.34251 14.9435 4.45886C14.2392 4.97008 13.6233 5.58582 13.114 6.28929C12.8753 6.61904 12.8853 6.79615 13.1573 7.08006C13.3714 7.30322 13.5656 7.50356 13.7739 7.69518C13.9266 7.83579 13.9527 7.97703 13.8612 8.16741C13.7379 8.4252 13.5973 8.73234 13.4889 9.05525C13.4024 9.312 13.2322 9.34083 13.0632 9.33709C12.7698 9.32755 12.4709 9.33066 12.1916 9.33564C11.8631 9.34124 11.7117 9.4719 11.6526 9.80123C11.4912 10.6972 11.4908 11.6003 11.6515 12.4857C11.7134 12.8266 11.8716 12.9623 12.2156 12.9699C12.4837 12.976 12.7688 12.9807 13.0516 12.9683C13.2901 12.9588 13.4264 13.0481 13.4998 13.2711C13.601 13.5786 13.7384 13.8762 13.8592 14.1268C13.9514 14.3178 13.926 14.459 13.7744 14.599C13.5722 14.7857 13.3631 14.9947 13.1354 15.238C12.8917 15.4985 12.8805 15.6855 13.0917 15.9794C13.6072 16.6965 14.2295 17.3218 14.9413 17.8374C15.2449 18.0576 15.446 18.0462 15.71 17.7945C15.891 17.6215 16.1026 17.4158 16.2989 17.2003C16.3775 17.1138 16.4737 17.0344 16.609 17.0344C16.6729 17.0344 16.7457 17.052 16.8295 17.0954C17.0746 17.2212 17.3438 17.333 17.652 17.4371C17.875 17.5122 17.9695 17.6505 17.9586 17.8857C17.9462 18.1562 17.9462 18.4374 17.9588 18.7209C17.9758 19.0987 18.1088 19.2524 18.4677 19.3078C19.3359 19.442 20.2169 19.442 21.0862 19.3076C21.444 19.2522 21.5764 19.0985 21.5921 18.7203C21.6037 18.4415 21.6037 18.1487 21.5928 17.8498C21.5849 17.6356 21.6774 17.5045 21.8753 17.4483C22.178 17.3625 22.4624 17.2449 22.7208 17.0989C22.9771 16.9539 23.1345 17.069 23.2547 17.2009C23.458 17.4243 23.6761 17.6356 23.8434 17.7951C24.1045 18.0438 24.313 18.0552 24.613 17.8384C25.3206 17.3266 25.9425 16.7013 26.4611 15.9796C26.6721 15.6859 26.6613 15.4989 26.4176 15.2384C26.1798 14.9839 25.9768 14.7807 25.7795 14.599C25.6291 14.4605 25.6042 14.319 25.6967 14.1264C25.8258 13.8563 25.9584 13.5658 26.0544 13.2703C26.1444 12.9934 26.3221 12.9614 26.5031 12.9685C26.7687 12.9789 27.0531 12.9791 27.3723 12.9691C27.6795 12.9596 27.8473 12.8165 27.9002 12.5197C28.063 11.6084 28.0624 10.6824 27.8988 9.76722C27.8493 9.48496 27.6847 9.34414 27.3965 9.33709ZM27.0415 11.7009C27.043 11.7712 27.0364 11.8733 26.9634 11.9459C26.8901 12.0187 26.7871 12.024 26.7149 12.0228C26.5145 12.0174 26.3095 12.0193 26.1113 12.0207C26.0211 12.0216 25.9311 12.0222 25.8411 12.0224C25.5585 12.023 25.3899 12.1491 25.3256 12.4083C25.175 13.0172 24.9322 13.6048 24.583 14.2043C24.451 14.4308 24.4853 14.6399 24.6874 14.8441L24.8457 15.0055C24.9868 15.1496 25.1326 15.2987 25.2813 15.4381C25.3523 15.5047 25.4185 15.5798 25.4216 15.6785C25.4247 15.7791 25.3606 15.8593 25.312 15.9107C25.0153 16.2262 24.7631 16.4777 24.5188 16.7021C24.3567 16.8506 24.2181 16.8446 24.0685 16.6831C23.9558 16.5609 23.8343 16.4412 23.7172 16.3253C23.6366 16.2457 23.5559 16.166 23.4771 16.085C23.2628 15.8645 23.0365 15.8321 22.7862 15.9852C22.2584 16.3073 21.6757 16.5495 21.0547 16.7046C20.7717 16.7754 20.6385 16.9554 20.635 17.2718L20.6331 17.4257C20.63 17.6398 20.6269 17.8612 20.6373 18.0767C20.6513 18.3723 20.4596 18.4231 20.3139 18.4357C20.1366 18.4511 19.9587 18.4585 19.7808 18.4585C19.5926 18.4585 19.4046 18.45 19.2182 18.4328C19.0063 18.4131 18.9112 18.3038 18.9184 18.089C18.9269 17.8457 18.9271 17.5823 18.9192 17.2841C18.9099 16.9311 18.8018 16.7895 18.4745 16.7009C17.8285 16.5265 17.2732 16.2936 16.7774 15.9893C16.5199 15.8309 16.2995 15.8591 16.0848 16.0777C16.0147 16.1492 15.9431 16.2193 15.8715 16.2899C15.7449 16.4139 15.6142 16.5422 15.4946 16.6746C15.4462 16.7285 15.3699 16.8004 15.2683 16.8052C15.1667 16.8108 15.085 16.7478 15.0182 16.6866C14.7609 16.4502 14.5019 16.1901 14.2272 15.8915C14.09 15.7421 14.0942 15.6084 14.2406 15.4702C14.457 15.2664 14.662 15.0565 14.8341 14.8777C15.0838 14.6185 15.1121 14.436 14.9466 14.1546C14.6153 13.59 14.3854 13.0324 14.245 12.4498C14.174 12.1568 13.994 12.0151 13.6929 12.022C13.6118 12.0232 13.5307 12.0226 13.4498 12.022L13.3201 12.0211C12.5741 12.0209 12.5276 11.9774 12.4918 11.2457C12.4692 10.7847 12.4581 10.5534 12.5909 10.4137C12.7229 10.2747 12.9488 10.2747 13.3991 10.2745C14.1117 10.2743 14.1291 10.2612 14.3199 9.57621C14.4438 9.13198 14.6233 8.70932 14.8689 8.28438C15.1345 7.8248 15.1179 7.70784 14.7334 7.32043L14.5429 7.12922C14.0667 6.6518 14.0658 6.58295 14.529 6.07505C14.8486 5.72477 15.0091 5.5489 15.2071 5.54455C15.2098 5.54434 15.2123 5.54434 15.2147 5.54434C15.4088 5.54434 15.5751 5.71108 15.9026 6.03897C16.3711 6.50829 16.4222 6.51493 16.9942 6.18435C17.4034 5.94771 17.8669 5.76397 18.4536 5.60573C18.8009 5.51219 18.9097 5.37158 18.9195 5.00367C18.9207 4.95722 18.9224 4.91076 18.9242 4.86431C18.9306 4.69134 18.937 4.51237 18.9164 4.34396C18.8953 4.17245 18.9224 4.04823 18.9989 3.96423C19.1027 3.85038 19.2707 3.84125 19.405 3.84561C19.5082 3.84955 19.6242 3.83835 19.7366 3.82798C20.0051 3.80268 20.2825 3.77717 20.4862 3.92566C20.7243 4.09904 20.6855 4.39643 20.6513 4.65878C20.6364 4.77181 20.6213 4.88899 20.629 4.98729C20.6598 5.38797 20.7568 5.51012 21.123 5.61008C21.726 5.77454 22.2506 5.99375 22.7272 6.28016C23.07 6.48651 23.2193 6.46474 23.5259 6.16485C23.5838 6.10803 23.6411 6.05037 23.6984 5.99251L23.7634 5.92697C24.2721 5.41762 24.3442 5.417 24.8701 5.91785C24.9932 6.03523 25.1059 6.16402 25.2147 6.28866C25.2536 6.33305 25.2925 6.37743 25.3318 6.42139C25.3593 6.45209 25.3827 6.48631 25.4067 6.52239C25.4162 6.53649 25.4259 6.55122 25.4363 6.56574L25.4859 6.63563L25.3777 6.75384C25.344 6.79096 25.313 6.82539 25.2803 6.85857C25.0825 7.05891 24.884 7.25842 24.6852 7.45772C24.4837 7.65993 24.4508 7.86898 24.5844 8.09649C24.9206 8.66888 25.1711 9.2728 25.3289 9.89145C25.3957 10.1532 25.5676 10.2838 25.8415 10.2745C25.9667 10.2726 26.092 10.2735 26.2172 10.2745C26.3812 10.2759 26.5509 10.277 26.7161 10.2714C26.7879 10.2704 26.8914 10.2743 26.9638 10.3463C27.036 10.4178 27.0424 10.5203 27.0411 10.591C27.0339 10.9527 27.0339 11.326 27.0415 11.7009Z" fill="#212121"/>
<path d="M12.1473 16.7642C11.9903 16.7095 11.8372 16.6947 11.704 16.7221C11.3509 16.7941 11.2417 16.562 11.1623 16.3924C11.1457 16.3571 11.1289 16.321 11.1097 16.2864C10.9657 16.0249 11.1196 15.8807 11.2216 15.7855C11.2373 15.771 11.2531 15.7563 11.268 15.741L11.3226 15.6862C11.4771 15.5319 11.6231 15.3861 11.6391 15.1698C11.6409 15.0062 11.5555 14.8564 11.4105 14.7683C11.2682 14.6822 11.0994 14.6766 10.9591 14.7534C10.8352 14.8212 10.7173 14.9216 10.6358 15.0282C10.4126 15.3202 10.1755 15.2644 9.91094 15.1681C9.60685 15.0574 9.6114 14.8405 9.61471 14.682C9.61512 14.6615 9.61553 14.6405 9.61533 14.6196L9.61554 14.5485C9.61616 14.4097 9.61678 14.2786 9.56672 14.1606C9.47197 13.9379 9.31993 13.8433 9.09114 13.8616C8.86938 13.8798 8.73761 13.9927 8.68858 14.2061C8.6619 14.3224 8.63521 14.4558 8.65404 14.5644C8.72954 14.9943 8.43786 15.1254 8.20348 15.2308C7.93166 15.3527 7.79721 15.2003 7.70825 15.0991C7.68095 15.0682 7.6553 15.0387 7.62882 15.0186C7.58187 14.9827 7.54236 14.9421 7.50429 14.9027C7.4714 14.8685 7.43996 14.8363 7.40686 14.8106C7.18676 14.6393 6.93789 14.6507 6.75689 14.8407C6.58416 15.0221 6.57795 15.2631 6.74117 15.4697C6.8324 15.5852 6.93769 15.6949 7.05415 15.7955C7.22813 15.9461 7.25461 16.1201 7.13276 16.3127C7.11394 16.3424 7.09987 16.3826 7.08497 16.4253C7.04215 16.5479 6.971 16.753 6.67704 16.7238C6.46025 16.702 6.29744 16.7117 6.14933 16.7555C5.90151 16.8293 5.78835 16.9762 5.79311 17.2178C5.79766 17.4455 5.90896 17.5844 6.14375 17.655C6.26538 17.6917 6.39116 17.6906 6.52624 17.6904C6.57982 17.6902 6.63298 17.6898 6.68635 17.6919L6.72214 17.6925C6.81109 17.6939 6.94555 17.6958 7.03636 17.841C7.27302 18.2197 7.25295 18.4094 6.94327 18.7234L6.89817 18.7686C6.84191 18.8246 6.78896 18.8775 6.74428 18.9354C6.58209 19.1455 6.5852 19.3879 6.75234 19.5679C6.93045 19.7596 7.18448 19.7739 7.40003 19.6046C7.52932 19.5028 7.64867 19.3757 7.75045 19.2645C7.83464 19.1724 7.91863 19.143 8.00303 19.143C8.06219 19.143 8.12157 19.1575 8.18156 19.1747C8.55992 19.2848 8.70988 19.5063 8.65279 19.8722C8.64058 19.9501 8.65775 20.0437 8.6743 20.1343L8.68113 20.1714C8.72478 20.4155 8.86649 20.5389 9.1141 20.5491C9.35489 20.559 9.50177 20.4481 9.58162 20.2005C9.62857 20.0551 9.62112 19.9035 9.61305 19.7428L9.6112 19.7015C9.60065 19.481 9.68049 19.3549 9.89646 19.2519C10.135 19.1374 10.4122 19.0669 10.6567 19.407C10.726 19.5036 10.84 19.5843 10.9316 19.6438C11.1718 19.7996 11.3627 19.6984 11.4804 19.5858C11.6095 19.4622 11.7289 19.2633 11.5648 19.0175C11.463 18.8645 11.3238 18.7255 11.2011 18.6073C11.1252 18.5341 10.9475 18.3626 11.1198 18.1235C11.1416 18.0934 11.1563 18.0469 11.1718 17.9982C11.2125 17.8704 11.2804 17.655 11.5841 17.6873C11.7529 17.7043 11.9514 17.7128 12.1411 17.6487C12.3573 17.5759 12.4609 17.4407 12.4671 17.2228C12.4744 16.9915 12.3695 16.8416 12.1473 16.7642ZM9.14203 18.4607C9.1381 18.4607 9.13416 18.4607 9.13044 18.4607C8.80711 18.4607 8.48565 18.3223 8.24611 18.0797C8.00552 17.836 7.87147 17.5102 7.8783 17.1863C7.89257 16.5091 8.47055 15.9461 9.14161 15.9494C9.81185 15.9558 10.3782 16.5307 10.3787 17.2049C10.3787 17.8787 9.81248 18.4538 9.14203 18.4607Z" fill="#212121"/>
<path d="M5.9618 10.7493C6.17011 10.7397 6.24127 10.8986 6.27851 10.9834C6.30726 11.0492 6.38338 11.2232 6.21603 11.3766C6.14446 11.4424 6.06213 11.5212 5.99448 11.6073C5.83437 11.8115 5.84058 12.0585 6.01042 12.2361C6.18067 12.4138 6.45456 12.4265 6.66163 12.2649C6.932 12.0546 7.071 11.9466 7.19057 11.9466C7.21539 11.9466 7.23918 11.9513 7.26318 11.9604C7.40447 12.015 7.43509 12.1873 7.50914 12.6042C7.56045 12.8923 7.71207 13.0422 7.95969 13.0503C8.29398 13.0636 8.40962 12.8188 8.45017 12.6135C8.52733 12.2218 8.56208 12.0442 8.70233 11.9889C8.84279 11.9339 8.98739 12.0388 9.30472 12.2686C9.5242 12.4275 9.7232 12.4223 9.91848 12.2551C10.1055 12.095 10.1286 11.8526 9.97723 11.6375C9.91186 11.5448 9.82539 11.4592 9.74161 11.3806C9.58688 11.2352 9.63053 11.0873 9.67687 10.9886C9.72651 10.8826 9.79312 10.7449 9.98716 10.7501C10.0879 10.7536 10.1862 10.752 10.2793 10.7453C10.5496 10.7259 10.7453 10.5407 10.7548 10.2947C10.7637 10.0653 10.5699 9.85502 10.3043 9.80546C10.2644 9.7982 10.2124 9.804 10.1574 9.81085C10.0091 9.82848 9.78568 9.85523 9.67356 9.56758C9.56496 9.28926 9.73954 9.15404 9.85497 9.06466C9.90027 9.02961 9.94289 8.99643 9.96585 8.96158C10.0753 8.79422 10.1603 8.54784 9.94392 8.32407C9.76788 8.14219 9.50082 8.13161 9.29478 8.29773C9.25465 8.33029 9.21722 8.36845 9.1775 8.4091C9.13695 8.45057 9.0964 8.49205 9.05214 8.52897C8.94601 8.61711 8.8097 8.64054 8.68723 8.59139C8.56539 8.54245 8.48306 8.4317 8.46692 8.29482C8.4603 8.238 8.45886 8.18097 8.4572 8.12393C8.45513 8.03704 8.45306 7.95491 8.43051 7.87673C8.35873 7.62806 8.21661 7.51172 7.98409 7.51172C7.98099 7.51172 7.97811 7.51193 7.975 7.51193C7.72697 7.51524 7.58196 7.63553 7.53128 7.87942C7.51142 7.97524 7.49984 8.07022 7.49673 8.16147L7.4957 8.19383C7.4928 8.31992 7.48866 8.49226 7.27352 8.58579C7.04762 8.68389 6.92247 8.55489 6.83166 8.46074L6.81552 8.44415C6.66162 8.28611 6.53584 8.17495 6.34967 8.18325C6.1248 8.19486 5.986 8.29669 5.91277 8.50346C5.82754 8.74382 5.94009 8.91824 6.13537 9.10614C6.24749 9.21398 6.3867 9.34775 6.27458 9.59952C6.1819 9.80794 6.0191 9.80546 5.91257 9.80628C5.8923 9.80628 5.87161 9.80608 5.85093 9.80732C5.81742 9.8094 5.78348 9.80981 5.74955 9.81002C5.69453 9.81064 5.64261 9.81106 5.59566 9.81997C5.37059 9.86332 5.19826 10.0695 5.20323 10.2891C5.2084 10.5232 5.39604 10.7182 5.63972 10.7424C5.7386 10.7518 5.84409 10.7541 5.9618 10.7493ZM7.9781 9.38487C7.98285 9.38487 7.98721 9.38508 7.99176 9.38508C8.22944 9.38881 8.45367 9.48649 8.62351 9.65987C8.79355 9.83366 8.88499 10.0593 8.88127 10.2955C8.87299 10.7881 8.47416 11.1719 7.9721 11.1719C7.97024 11.1719 7.96817 11.1719 7.9661 11.1719C7.72552 11.1705 7.4899 11.0685 7.32027 10.8922C7.15395 10.7196 7.06604 10.4973 7.07245 10.2665C7.08631 9.78555 7.49941 9.38487 7.9781 9.38487Z" fill="#212121"/>
<path d="M16.133 11.1629C16.1528 13.1648 17.784 14.7957 19.769 14.7984C19.7707 14.7984 19.7723 14.7984 19.774 14.7984C20.7423 14.7984 21.6564 14.4183 22.3484 13.7279C23.0414 13.036 23.4237 12.1208 23.4249 11.1506C23.426 10.1813 23.0488 9.26876 22.3633 8.58126C21.6728 7.889 20.7537 7.50781 19.775 7.50781C19.774 7.50781 19.773 7.50781 19.7719 7.50781C18.7922 7.50864 17.8711 7.89563 17.1787 8.59744C16.4948 9.29012 16.1235 10.2014 16.133 11.1629ZM19.7744 8.44874C19.7779 8.44874 19.7814 8.44874 19.7852 8.44874C20.4891 8.44874 21.1552 8.7283 21.6622 9.23682C22.1715 9.74763 22.4535 10.4225 22.456 11.1371C22.4585 11.8686 22.1711 12.5571 21.6469 13.076C21.1447 13.5731 20.492 13.8455 19.8048 13.8455C19.791 13.8455 19.7771 13.8455 19.7632 13.8452C18.268 13.8212 17.0982 12.6351 17.1003 11.1448C17.1021 9.66426 18.3015 8.45476 19.7744 8.44874Z" fill="#212121"/>
</svg>
