<svg width="44" height="48" viewBox="0 0 44 48" fill="none" xmlns="http://www.w3.org/2000/svg">
<path d="M43.9827 5.26166C43.9671 4.90828 43.8329 4.60493 43.4714 4.46467C43.2901 4.3944 43.1017 4.38585 42.9113 4.38585C41.1466 4.38559 39.382 4.38507 37.6171 4.38248C37.5061 4.38222 37.3888 4.40944 37.2697 4.32518C37.2528 4.07732 37.2801 3.82168 37.297 3.56475C37.3533 2.71149 37.4716 1.86161 37.4435 1.00369C37.4241 0.413854 37.1551 0.11855 36.5754 0.0664371C36.2451 0.0368805 35.913 0.0176919 35.5815 0.0174326C34.3961 0.015877 33.2102 0.0443978 32.0253 0.0438793C27.5762 0.0423237 23.1269 0.0793986 18.6776 0.0231373C15.3193 -0.0193827 11.9602 0.0104322 8.60169 0.00680248C8.30746 0.00654322 8.01527 0.0192486 7.72205 0.0550276C6.89379 0.155883 6.55763 0.515749 6.58243 1.36667C6.60058 1.99021 6.68008 2.61194 6.71485 3.23522C6.7353 3.60286 6.83934 3.96947 6.77313 4.327C6.62998 4.40789 6.50395 4.38274 6.38304 4.38274C5.14014 4.38455 3.89724 4.38352 2.65434 4.38404C2.07558 4.38429 1.49657 4.37755 0.918063 4.39103C0.346973 4.40426 0.0923606 4.6599 0.0187376 5.22536C-0.0326451 5.62049 0.0394441 6.01172 0.0256398 6.40555C0.00314388 7.0418 0.0667971 7.67493 0.161127 8.3021C0.69157 11.8377 2.46082 14.6262 5.18641 16.8341C7.36544 18.5992 9.85814 19.72 12.517 20.4921C12.9311 20.6124 13.2428 20.8284 13.5053 21.1691C14.2239 22.1017 14.9893 22.9938 15.8063 23.8401C16.7025 24.7685 17.6172 25.677 18.6075 26.5028C18.9143 26.7586 19.0659 27.0646 19.0546 27.4786C19.0462 27.7975 19.0406 28.1172 19.047 28.4366L19.0899 31.7389L19.0907 31.7397C19.0902 32.3806 19.0907 33.0215 19.0894 33.6624C19.0891 33.7656 19.1121 33.8758 19.0337 33.9686C18.9209 34.0361 18.7949 34.0099 18.674 34.0101C17.4216 34.0119 16.1693 34.0127 14.9167 34.0099C14.6973 34.0093 14.4816 34.0322 14.2658 34.0677C13.8839 34.1302 13.6321 34.3384 13.5071 34.7164C13.3818 35.0944 13.3499 35.4882 13.2916 35.8771C12.8718 38.6718 12.4516 41.4664 12.0469 44.2632C11.9175 45.1563 11.7169 46.0423 11.6964 46.9487C11.6806 47.6469 12.0331 47.9979 12.7266 47.9982C18.9222 48.0005 25.1178 47.9997 31.3136 48C31.4665 48 31.6158 47.9888 31.76 47.9282C32.2178 47.7358 32.4042 47.337 32.3068 46.6694C32.0406 44.8431 31.7638 43.0184 31.4913 41.1932C31.4289 40.7747 31.3663 40.356 31.3039 39.9365H31.3021L30.82 36.7275H30.8243C30.7586 36.2917 30.6917 35.8564 30.6237 35.4211L30.6132 35.3511L30.6129 35.3516C30.5973 35.2523 30.582 35.1527 30.5664 35.0534C30.4378 34.243 30.1622 34.0132 29.3414 34.0122C27.9942 34.0106 26.6467 34.0088 25.2995 34.013C25.0618 34.0138 24.9199 33.9456 24.9204 33.6728C24.9245 31.5559 24.9225 29.439 24.9266 27.3218C24.9271 27.0275 25.0475 26.7939 25.2819 26.6023C26.0723 25.9562 26.8275 25.2681 27.5525 24.5481C28.6381 23.4698 29.6402 22.3145 30.562 21.09C30.7883 20.7895 31.0659 20.6117 31.4164 20.5118C32.2112 20.2852 32.9942 20.02 33.7641 19.7177C36.7011 18.5642 39.2669 16.8725 41.252 14.3555C43.3502 11.6944 44.1299 8.61841 43.9827 5.26166ZM11.1256 17.9241C8.88494 17.0441 6.8171 15.8707 5.09335 14.1504C3.44016 12.5007 2.33479 10.5456 2.02445 8.17817C1.95952 7.68323 1.89178 7.18854 1.82608 6.6936C1.81355 6.59948 1.78978 6.50329 1.8519 6.41929C1.90891 6.36588 1.97742 6.37107 2.04286 6.36847C3.53884 6.30781 5.03558 6.30366 6.53233 6.31714C7.0776 6.32207 7.15096 6.39907 7.2545 6.95001C7.83965 10.0573 8.83253 13.0252 10.2372 15.8491C10.5443 16.4667 10.8922 17.0633 11.2199 17.6703C11.2644 17.7524 11.3388 17.8222 11.3319 17.9293C11.2603 18.0065 11.19 17.9492 11.1256 17.9241ZM22.8794 30.3389V30.7327V34.0446H21.0087C21 33.9056 20.9946 33.7667 20.9903 33.6275V29.9886L20.9885 29.9871C20.9893 29.5136 20.9895 29.04 20.9916 28.5665C20.9916 28.5419 21.0138 28.5173 21.0455 28.4509C21.6289 28.8237 22.2306 28.8862 22.8797 28.4359L22.8794 30.3389ZM20.8162 33.4605H20.728V33.3726L20.8162 33.4605ZM27.5399 36.0936C27.8232 36.0928 28.0233 36.216 28.2353 36.3635C29.0029 36.8984 28.994 36.8981 29.1221 37.8185C29.4112 39.8934 29.7116 41.9668 30.0071 44.0407C30.0855 44.5924 30.165 45.1439 30.2399 45.6961C30.255 45.8079 30.2796 45.9256 30.1881 46.0552H13.7213C14.218 42.7451 14.7116 39.4548 15.2032 36.1779C15.3604 36.0863 15.4768 36.1071 15.5887 36.1071C19.5725 36.104 23.5561 36.1053 27.5399 36.0936ZM28.4007 20.8678C26.7032 22.9733 24.7251 24.7737 22.5555 26.3635C22.0952 26.7008 22.0024 26.7006 21.5243 26.3555C17.633 23.5481 14.548 20.0109 12.2463 15.7724C10.5031 12.5624 9.40618 9.1302 8.84736 5.51263C8.68733 4.47608 8.59658 3.4333 8.47618 2.39311C8.46519 2.29874 8.45573 2.20073 8.5204 2.07369H35.5983C35.538 2.58964 35.4856 3.07421 35.4242 3.55749C35.1566 5.66741 34.8084 7.75945 34.1959 9.80171C32.9737 13.8748 31.0585 17.5707 28.4007 20.8678ZM42.1469 6.95027C41.9918 8.37003 41.7305 9.76256 41.1315 11.0716C40.5446 12.3545 39.7199 13.4548 38.7033 14.4164C37.6168 15.4437 36.3627 16.209 35.04 16.8733C34.4454 17.1719 33.858 17.4857 33.2664 17.7908C33.099 17.8771 32.9303 17.9632 32.6777 17.9891C34.8018 14.3853 36.2042 10.5435 36.943 6.44315H42.1526C42.2461 6.63449 42.1641 6.79342 42.1469 6.95027Z" fill="#475569"/>
</svg>
