<svg width="103" height="110" viewBox="0 0 103 110" fill="none" xmlns="http://www.w3.org/2000/svg">
<path d="M15.0036 55.008L34.0748 21.1991L26.5809 7.9165L0.015645 54.9923H0V55.008H0.015645L26.5809 102.084L34.0748 88.8012L15.0036 55.008Z" fill="#F47C37"/>
<path d="M25.1562 54.9924V55.008H25.1719L39.1585 79.8054L46.6525 66.5071L40.1598 55.008L46.6525 43.4933L39.1585 30.1951L25.1719 54.9924H25.1562Z" fill="#F47C37"/>
<path d="M102.614 54.9922H102.598L71.5739 0H71.1984H56.5703L87.61 55.0078L56.5703 110H71.1984H71.5739L102.598 55.0078H102.614V54.9922Z" fill="#551D5A"/>
<path d="M77.4573 55.0078V54.9922L46.4176 0H46.0421H31.4141L62.4537 55.0078L31.4141 110H46.0421H46.4176L77.4573 55.0078Z" fill="#551D5A"/>
</svg>
