<svg width="110" height="110" viewBox="0 0 110 110" fill="none" xmlns="http://www.w3.org/2000/svg">
<g clip-path="url(#clip0_2547_5542)">
<path d="M43.1148 38.913L50.4554 46.1989C51.6648 47.4014 53.3009 48.0764 55.0064 48.0764C56.7118 48.0764 58.348 47.4014 59.5574 46.1989L65.6399 40.2148L66.9089 38.8692L102.124 3.59921C102.422 3.3067 102.626 2.93203 102.71 2.52305C102.794 2.11408 102.754 1.68934 102.596 1.30308C102.437 0.916818 102.167 0.586554 101.82 0.354456C101.473 0.122358 101.065 -0.00104358 100.647 6.64823e-06H88.2416C84.2804 0.0113898 80.4834 1.58366 77.6737 4.37594L55.0064 27.0214L47.5235 19.5495C44.7677 16.7916 41.0294 15.2412 37.1307 15.2392H19.5176L43.1476 38.8692L43.1148 38.913Z" fill="#FF0C5D"/>
<path d="M66.8862 71.1089L59.5565 63.823C58.3453 62.6198 56.7074 61.9446 55.0001 61.9446C53.2929 61.9446 51.6549 62.6198 50.4437 63.823L44.4158 69.7852L43.1468 71.1089L7.86584 106.412C7.57105 106.706 7.37017 107.08 7.28869 107.488C7.20722 107.897 7.24882 108.32 7.40822 108.704C7.56763 109.089 7.83764 109.417 8.18401 109.648C8.53038 109.878 8.93748 110.001 9.35366 110H21.8798C23.8121 110 25.7255 109.62 27.5107 108.88C29.2958 108.141 30.9177 107.057 32.2835 105.69L55.0056 82.9786L62.3571 90.3521C65.1856 93.163 69.0139 94.7368 73.0016 94.728H90.5053L66.8534 71.1089H66.8862Z" fill="#FFC005"/>
<path d="M27.0215 55.0054L19.6043 62.4226C18.2162 63.8033 17.115 65.445 16.364 67.253C15.613 69.0611 15.227 70.9998 15.2283 72.9577V90.4614L38.8584 66.8314L46.1662 59.4798C47.3727 58.2681 48.05 56.6278 48.05 54.9179C48.05 53.208 47.3727 51.5677 46.1662 50.356L3.56647 7.8438C3.27425 7.55183 2.90205 7.35302 2.49689 7.2725C2.09173 7.19198 1.6718 7.23336 1.29014 7.39141C0.908492 7.54945 0.582247 7.81708 0.352633 8.16046C0.123018 8.50385 0.00033565 8.90759 8.75155e-05 9.32068V21.7811C-0.00665802 23.7479 0.37661 25.6965 1.12772 27.5142C1.87884 29.3319 2.98289 30.9826 4.37602 32.3709L27.0215 55.0054Z" fill="#221ECA"/>
<path d="M105.678 77.6728L83.1423 55.0055L90.6361 47.4789C93.3393 44.7402 94.8494 41.0435 94.837 37.1954V19.5057L71.3054 43.1467L64.0961 50.4217C62.9114 51.6338 62.248 53.2614 62.248 54.9563C62.248 56.6512 62.9114 58.2787 64.0961 59.4908L71.3382 66.9299L106.51 102.233C106.796 102.518 107.16 102.712 107.556 102.79C107.952 102.869 108.363 102.828 108.736 102.674C109.109 102.52 109.428 102.258 109.653 101.923C109.878 101.587 109.999 101.193 110 100.789V88.1641C110.008 86.2167 109.63 84.2869 108.888 82.4862C108.147 80.6855 107.056 79.0496 105.678 77.6728V77.6728Z" fill="#221ECA"/>
</g>
<defs>
<clipPath id="clip0_2547_5542">
<rect width="110" height="110" fill="white"/>
</clipPath>
</defs>
</svg>
