<svg width="110" height="110" viewBox="0 0 110 110" fill="none" xmlns="http://www.w3.org/2000/svg">
<g clip-path="url(#clip0_2547_5555)">
<path d="M93.8792 16.1999C88.8523 10.9825 82.8078 6.85258 76.12 4.06599C69.4322 1.2794 62.2435 -0.104534 54.9991 -0.000117472C47.7547 -0.104534 40.566 1.2794 33.8782 4.06599C27.1904 6.85258 21.1459 10.9825 16.119 16.1999C10.9152 21.2163 6.79883 27.2494 4.02571 33.9242C1.25259 40.599 -0.118008 47.7729 -0.000892595 54.9999C-0.108638 62.2494 1.26558 69.4445 4.0375 76.144C6.80942 82.8435 10.9206 88.9061 16.119 93.9602C21.1654 99.141 27.2172 103.236 33.903 105.994C40.5888 108.752 47.7676 110.116 54.9991 110C62.2306 110.116 69.4094 108.752 76.0952 105.994C82.781 103.236 88.8328 99.141 93.8792 93.9602C99.0631 88.8993 103.159 82.8336 105.917 76.1344C108.675 69.4352 110.037 62.2436 109.919 54.9999C110.046 47.7787 108.688 40.6084 105.929 33.9339C103.17 27.2594 99.0685 21.2232 93.8792 16.1999V16.1999ZM88.6824 88.5067C84.3174 93.0104 79.0779 96.5743 73.2855 98.9795C67.4932 101.385 61.2704 102.58 54.9991 102.493C48.7253 102.599 42.4971 101.411 36.7022 99.0047C30.9073 96.5985 25.6698 93.025 21.3158 88.5067C16.8403 84.1247 13.3003 78.8802 10.91 73.0906C8.51969 67.3009 7.32882 61.0866 7.40943 54.8235C7.30759 48.5455 8.48844 42.3128 10.8796 36.5071C13.2709 30.7015 16.8221 25.4451 21.3158 21.06C25.6674 16.5386 30.9045 12.9631 36.6999 10.5566C42.4954 8.15008 48.7248 6.96433 54.9991 7.07337C61.2709 6.98249 67.4949 8.17653 73.2877 10.582C79.0806 12.9874 84.3197 16.5532 88.6824 21.06C93.1832 25.4263 96.744 30.6665 99.1465 36.4587C101.549 42.251 102.742 48.4732 102.653 54.7433C102.743 61.0253 101.55 67.2597 99.1479 73.065C96.7458 78.8704 93.1847 84.1248 88.6824 88.5067V88.5067Z" fill="url(#paint0_linear_2547_5555)"/>
<path d="M87.5761 73.1729L80.4063 80.3266L55.176 55L29.8493 80.3266L22.6796 73.1729L36.0727 59.7157H13.6172C14.5901 69.0439 18.8618 77.7181 25.663 84.1761C29.4782 88.1356 34.067 91.268 39.1441 93.3789C44.2212 95.4898 49.6782 96.5339 55.176 96.4465C60.6826 96.5294 66.1478 95.4834 71.2347 93.3731C76.3216 91.2627 80.9223 88.1328 84.7531 84.1761C91.4668 77.6656 95.6937 69.0131 96.7026 59.7157H74.2471L87.5761 73.1729Z" fill="url(#paint1_linear_2547_5555)"/>
<path d="M22.6792 36.0892L29.8489 28.8714L55.1755 54.1499L80.4059 28.8714L87.5756 36.0892L74.1825 49.4984H96.6381C95.6183 40.218 91.3922 31.5842 84.6885 25.086C80.8632 21.141 76.2722 18.0191 71.1972 15.9119C66.1222 13.8046 60.6701 12.7565 55.1755 12.8317C49.6778 12.7443 44.2208 13.7884 39.1437 15.8993C34.0665 18.0102 29.4778 21.1427 25.6626 25.1021C18.8694 31.5377 14.6024 40.1911 13.6328 49.4984H36.0883L22.6792 36.0892Z" fill="url(#paint2_linear_2547_5555)"/>
</g>
<defs>
<linearGradient id="paint0_linear_2547_5555" x1="27.1863" y1="101.611" x2="71.7285" y2="27.0267" gradientUnits="userSpaceOnUse">
<stop stop-color="#5D3661"/>
<stop offset="1" stop-color="#9B56A2"/>
</linearGradient>
<linearGradient id="paint1_linear_2547_5555" x1="30.9079" y1="103.825" x2="75.4501" y2="29.2403" gradientUnits="userSpaceOnUse">
<stop stop-color="#5D3661"/>
<stop offset="1" stop-color="#9B56A2"/>
</linearGradient>
<linearGradient id="paint2_linear_2547_5555" x1="35.6713" y1="78.5462" x2="80.1974" y2="3.9618" gradientUnits="userSpaceOnUse">
<stop stop-color="#F15C27"/>
<stop offset="1" stop-color="#FDE963"/>
</linearGradient>
<clipPath id="clip0_2547_5555">
<rect width="110" height="110" fill="white"/>
</clipPath>
</defs>
</svg>
