<svg width="110" height="110" viewBox="0 0 110 110" fill="none" xmlns="http://www.w3.org/2000/svg">
<g clip-path="url(#clip0_2547_5560)">
<path d="M66.4667 15.9449V33.0329L56.6226 23.1744L43.5352 48.7921L52.4506 0L66.4667 15.9449Z" fill="#38BDB0"/>
<path d="M43.5488 94.055V76.9814L53.3787 86.8255L66.4661 61.2222L57.5506 110L43.5488 94.055Z" fill="#F26B68"/>
<path d="M94.0555 66.4801H76.9818L86.826 56.636L61.2227 43.5486L110 52.464L94.0555 66.4801Z" fill="#FBAF3C"/>
<path d="M15.9449 43.5627H33.0329L23.1744 53.3926L48.7921 66.4657L0 57.5646L15.9449 43.5627Z" fill="#525F67"/>
<path d="M90.7267 35.4902L78.6537 47.5632V33.6471L51.293 42.5054L92.084 14.3018L90.7267 35.4902Z" fill="#A1CD3A"/>
<path d="M19.2733 74.5241L31.3606 62.4368L31.3463 76.3671L58.707 67.5089L17.916 95.6982L19.2733 74.5241Z" fill="#99A3AA"/>
<path d="M74.4949 90.7405L62.4219 78.6532H76.3523L67.494 51.2925L95.6833 92.0978L74.4949 90.7405Z" fill="#ED75A4"/>
<path d="M35.4769 19.3025L47.5499 31.3755L33.6338 31.3612L42.5064 58.7219L14.3027 17.9309L35.4769 19.3025Z" fill="#6178AA"/>
</g>
<defs>
<clipPath id="clip0_2547_5560">
<rect width="110" height="110" fill="white"/>
</clipPath>
</defs>
</svg>
