<svg width="99" height="110" viewBox="0 0 99 110" fill="none" xmlns="http://www.w3.org/2000/svg">
<g clip-path="url(#clip0_2547_5549)">
<path d="M70.7915 52.6695C70.1573 52.6695 69.5072 52.6695 68.873 52.6695C69.2377 53.4622 69.6024 54.2549 69.9512 55.0794C73.6911 63.9452 75.6105 73.4723 75.5954 83.0946C75.6013 87.9943 75.1073 92.8817 74.121 97.681L92.8771 86.8522C94.5939 85.7326 96.0235 84.2253 97.0507 82.4517C98.078 80.6782 98.674 78.688 98.7909 76.6418V65.5435C95.3319 61.5011 91.0375 58.2568 86.2038 56.0343C81.37 53.8117 76.1117 52.6637 70.7915 52.6695V52.6695Z" fill="url(#paint0_linear_2547_5549)"/>
<path d="M23.6394 75.8808C23.6394 73.1671 24.7163 70.5644 26.6336 68.6441C28.551 66.7238 31.152 65.6428 33.8657 65.6386C34.4819 65.6428 35.0969 65.6958 35.7048 65.7972C37.2248 63.5168 38.9668 61.3925 40.9052 59.4553C45.5578 54.782 51.2441 51.2681 57.505 49.1973C52.4602 41.2111 45.7042 34.4454 37.7252 29.3893C29.7461 24.3332 20.7435 21.1129 11.3678 19.9612L5.91381 23.1321C4.20327 24.247 2.77748 25.7468 1.75056 27.5116C0.723651 29.2763 0.124134 31.257 0 33.295L0 76.6894C0.116856 78.7356 0.712934 80.7257 1.74017 82.4993C2.7674 84.2729 4.19705 85.7802 5.91381 86.8998L30.124 100.852C29.0748 97.1212 28.5414 93.2644 28.5385 89.389C28.5347 87.8422 28.6194 86.2965 28.7922 84.7594C27.228 83.8638 25.9279 82.5712 25.0231 81.0122C24.1184 79.4533 23.6411 77.6832 23.6394 75.8808V75.8808Z" fill="url(#paint1_linear_2547_5549)"/>
<path d="M92.8777 23.1004L55.302 1.41115C53.4751 0.481134 51.4541 -0.00366211 49.4041 -0.00366211C47.354 -0.00366211 45.3331 0.481134 43.5061 1.41115L22.3242 13.6351C25.5064 14.4755 28.6267 15.535 31.6626 16.8061C40.2105 20.4123 47.9754 25.6463 54.5251 32.2169C59.0393 36.7209 62.9317 41.8077 66.0991 47.3423C71.9687 46.6749 77.913 47.2504 83.5455 49.0314C89.178 50.8124 94.3726 53.759 98.7915 57.6795V33.295C98.6722 31.2515 98.075 29.2645 97.0479 27.4939C96.0207 25.7233 94.5924 24.2184 92.8777 23.1004V23.1004Z" fill="url(#paint2_linear_2547_5549)"/>
<path d="M40.7475 68.2862C42.2575 69.6568 43.3241 71.447 43.8105 73.4275C44.2968 75.408 44.1809 77.4885 43.4776 79.4027C42.7743 81.3169 41.5155 82.9776 39.8625 84.172C38.2096 85.3664 36.2377 86.0401 34.1995 86.1069C34.1043 87.1639 34.0568 88.2579 34.0568 89.3889C34.0415 94.878 35.272 100.299 37.6558 105.244L43.5062 108.636C45.3354 109.559 47.3555 110.04 49.4041 110.04C51.4528 110.04 53.4729 109.559 55.3021 108.636L63.9112 103.658C66.6558 95.5897 67.746 87.051 67.1168 78.5518C66.4875 70.0527 64.1517 61.7676 60.2488 54.1914C52.3531 56.5728 45.4857 61.5363 40.7475 68.2862V68.2862Z" fill="url(#paint3_linear_2547_5549)"/>
</g>
<defs>
<linearGradient id="paint0_linear_2547_5549" x1="69.1901" y1="59.2967" x2="99.0763" y2="98.0457" gradientUnits="userSpaceOnUse">
<stop stop-color="#F15C27"/>
<stop offset="1" stop-color="#FDE963"/>
</linearGradient>
<linearGradient id="paint1_linear_2547_5549" x1="37.5757" y1="31.3766" x2="-6.6907" y2="98.3469" gradientUnits="userSpaceOnUse">
<stop stop-color="#048FBD"/>
<stop offset="1" stop-color="#91B8E2"/>
</linearGradient>
<linearGradient id="paint2_linear_2547_5549" x1="22.3242" y1="28.8557" x2="98.7915" y2="28.8557" gradientUnits="userSpaceOnUse">
<stop stop-color="#C1282D"/>
<stop offset="1" stop-color="#EE3552"/>
</linearGradient>
<linearGradient id="paint3_linear_2547_5549" x1="61.4062" y1="63.2603" x2="33.7238" y2="132.45" gradientUnits="userSpaceOnUse">
<stop stop-color="#00959F"/>
<stop offset="1" stop-color="#75C9B3"/>
</linearGradient>
<clipPath id="clip0_2547_5549">
<rect width="98.7907" height="110" fill="white"/>
</clipPath>
</defs>
</svg>
