<svg width="125" height="110" viewBox="0 0 125 110" fill="none" xmlns="http://www.w3.org/2000/svg">
<path fill-rule="evenodd" clip-rule="evenodd" d="M44.0815 14.2384C56.6486 61.3024 78.5068 81.9583 109.656 76.2061C97.2822 57.2307 80.2737 39.9192 58.6303 24.2716C83.6571 37.8476 100.956 51.2141 110.526 64.3713C110.358 56.5924 108.057 49.0195 103.888 42.5198C92.6313 26.6077 72.6958 17.1806 44.0815 14.2384ZM33.2223 16.0401C38.1712 10.865 44.0935 6.77524 50.6297 4.01914C57.1659 1.26304 64.1798 -0.101989 71.2458 0.00687217C78.2817 -0.10949 85.2663 1.25298 91.7695 4.01037C98.2728 6.76777 104.157 10.8617 109.06 16.0401C114.143 21.0933 118.162 27.162 120.87 33.8714C123.577 40.5807 124.915 47.7883 124.801 55.0489C124.902 62.2782 123.557 69.452 120.85 76.1272C118.142 82.8024 114.13 88.8374 109.06 93.8592C104.173 99.0667 98.2945 103.186 91.7889 105.962C85.2834 108.737 78.2905 110.109 71.2458 109.992C58.9525 110.216 46.9883 105.911 37.5241 97.8593C56.4284 98.9612 76.2672 93.7821 97.0405 82.3219C87.0191 82.7847 77.0836 78.6084 67.234 69.7928C56.6218 69.9912 42.1589 73.7268 23.8453 80.9996L23.7486 80.9004C39.5917 70.8066 52.234 65.4953 61.6754 64.9663C58.872 62.0242 55.9719 58.9112 52.9752 55.6274C42.4166 57.5778 31.305 62.5366 19.6401 70.5036C12.7215 75.2775 6.15686 80.5702 0 86.3385C4.38964 77.6337 10.6745 70.0831 18.3673 64.2721C17.8486 61.2266 17.5898 58.1405 17.5939 55.0489C17.4775 47.7983 18.8033 40.5996 21.4904 33.8925C24.1775 27.1855 28.1694 21.1109 33.2223 16.0401Z" fill="url(#paint0_linear_2547_5543)"/>
<defs>
<linearGradient id="paint0_linear_2547_5543" x1="67.234" y1="106.206" x2="54.3918" y2="11.3815" gradientUnits="userSpaceOnUse">
<stop stop-color="#3F9B46"/>
<stop offset="1" stop-color="#9ACA3C"/>
</linearGradient>
</defs>
</svg>
