<svg width="111" height="110" viewBox="0 0 111 110" fill="none" xmlns="http://www.w3.org/2000/svg">
<path d="M41.8418 82.4895L55.5813 96.25L41.8418 110L0.591797 68.7395L14.3418 54.9895L28.0918 68.7395L41.8418 54.9895L55.5813 68.7395L41.8418 82.4895Z" fill="#FF0C5D"/>
<path d="M110.591 68.7395L69.3301 110L55.5801 96.25L69.3301 82.4895L55.5801 68.7395L69.3301 54.9895L83.0801 68.7395L96.8407 54.9895L110.591 68.7395Z" fill="#221ECA"/>
<path d="M110.591 41.25L96.8407 54.9896L83.0801 41.25L69.3301 54.9896L55.5801 41.25L69.3301 27.5L55.5801 13.75L69.3301 0L110.591 41.25Z" fill="#FFC005"/>
<path d="M41.8418 27.5L55.5813 41.25L41.8418 54.9896L28.0918 41.25L14.3418 54.9896L0.591797 41.25L41.8418 0L55.5813 13.75L41.8418 27.5Z" fill="#221ECA"/>
</svg>
